<svg version="1" xmlns="http://www.w3.org/2000/svg" width="1125.333" height="1125.333" viewBox="0 0 844.000000 844.000000"><path d="M335.2 100.5c-3.7 4.6-7.9 16.9-9.1 27-1.9 15.3-6.9 35.2-14.7 57.6-5.3 15.2-9.3 24.4-22.3 51.5-5 10.5-9.3 20-9.6 21.2-.2 1.5.6 3.4 2.7 5.7 3.4 3.9 3.2 4.1-1.9 2-2.9-1.2-3.8-1.3-4.5-.3-7.5 11.1-12.2 33.2-9.8 46.5 2.3 13.7 6.8 19.5 26.8 35.5 9 7.1 25.1 17.8 26.9 17.8 1.7 0 1.7 0-.6 5.3-1.7 4-2.9 5-10.6 9.2-4.7 2.6-11.5 5.9-15.1 7.3l-6.4 2.5-2.9-2.7c-3.2-3.1-2.7-3.1-16.6-.2-4.4.9-16.3 2.4-26.4 3.5-12.3 1.3-18.6 2.3-19.2 3.2-.4.7-1.1 3.5-1.4 6.1-.4 2.6-1 4.8-1.5 4.8-.8 0-4.5-10.6-5.5-16.2-.7-3.5-.9-3.7-4.9-4-3.7-.3-4.2-.6-5.2-3.7-1.2-3.7-4.1-5.4-8.3-4.9-3.6.4-3.7-1.8-.2-3.7 3.7-1.9 5.1-4.3 5.1-9 0-2.6.7-4.3 2.5-5.9 2.5-2.3 3.1-4.9 1.9-8-.3-.9-1.1-1.6-1.7-1.6-.7 0-.7.4.1 1.2.7.7 1.2 2.2 1.2 3.5 0 2-.4 2.2-4.7 1.9-2.7-.2-3.3-.1-1.5.1 3.6.5 3.8.9 1.7 3.7-.8 1.1-1.5 3.4-1.5 5v3.1l-9.3.1c-6.3.1-11.1.8-15.2 2.2-3.3 1.1-6.1 1.9-6.2 1.8-.2-.1-.6-1.6-.9-3.3-.5-2.6-.2-3.1 1.8-3.7 1.2-.4 1.8-.9 1.2-1.2-.6-.2-2.1-.1-3.4.4-2.2.8-7-.5-7-1.9 0-.3 1.8-1.1 4-1.8 2.1-.6 4.2-1.6 4.5-2.1.3-.5-1.6-.3-4.2.5-4.6 1.4-7.2.8-5.9-1.3 1.4-2.2 17.6-6.3 30.1-7.6 12.1-1.3 12.5-1.4 5.5-1.5-10.1-.1-25.3 2.4-31.7 5.4-4.7 2.1-5.3 2.7-5.3 5.5 0 2.3.7 3.5 3.3 5 1.7 1.1 3.5 2.1 4 2.2.4.2 1.5 2.6 2.5 5.3 1.7 4.8 2 5 6.5 5.9 5.6 1.1 6 2.6 1.1 5-3.5 1.6-3.6 1.9-3.1 5.8.5 3.6.2 4.3-2.4 6.5-1.6 1.4-2.9 3.3-2.9 4.4 0 1.2-.7 1.9-1.9 1.9-3.3 0-8 2.1-8.6 4-.8 2.5 5.2 20.7 7.4 22.2 1.3 1 1.9 3.2 2.4 8.3.6 8.1 2.1 11.8 5.3 13.9 2 1.4 2.2 2.1 1.7 7.6-.5 5-.3 6.4 1.3 8.1 2.3 2.6 6.7 4.9 9.1 4.9 2.6 0 3.8 3.5 7.1 21 2.7 13.7 2.8 15.8 1.6 17.7-1.7 2.7-1.7 5.3-.2 14.4 1.5 9.5 3.1 10.4 18.3 9.6 10.9-.5 19.3-2.5 22.6-5.3 1.4-1.3 2-.6 5.3 5.7 3.9 7.5 8 14 21.2 33.9 4.5 6.9 9 14.2 10 16.3 3.5 7.3 8.3 5.9 20-6l7.5-7.7-2.7 7.5c-7.8 21.7-21.8 49.7-36.8 73.2-4.4 7-15.9 23.2-25.4 36-11.5 15.5-17 23.7-16.6 24.7.4.8 2.2 7.3 4 14.3 1.9 7.1 4.5 15.1 5.9 17.8 1.3 2.7 2.2 4.9 1.8 4.9-.3 0-2.1-1.4-4-3-10.5-9.2-28.5-12.4-42.7-7.4-5.4 1.9-7.5 4.1-15.8 15.7-6.8 9.6-13.7 16.2-19.4 18.5-1.6.7-3.6 2.5-4.5 4-1.2 2.1-3.5 3.3-10.1 5.6-8.5 2.8-15 6.7-13.6 8.2.5.4 4.3-.9 8.5-2.8 4.3-2 9.6-4.1 11.8-4.8 4.5-1.3 8.4-2.9 13.5-5.3l3.5-1.7-3.5.6c-1.9.3-4.3.8-5.4 1.1-4.4 1.2-.4-2.3 7.6-6.9 9.4-5.3 15.1-6.8 21.3-5.7 5.4 1 12.5 1.1 12.5.1 0-1.2-15.7-4.5-19.4-4l-3.2.4 5.8-9.2c5.8-9.1 5.9-9.2 11.7-10.8 7.2-2 20.2-2.1 26.8-.1 3 .9 8.7 4.1 13.8 7.9 8.5 6.3 8.6 6.4 5.7 7-1.6.4-3.3.6-3.8.5-.5-.1-3.4-.1-6.4 0-8.2.2-4.3 1.8 6.3 2.7 8.3.6 8.9.8 10.2 3.4 1.4 2.7 1.3 3-1.8 6.4-3 3.3-3.9 3.6-8.8 3.7l-5.4.1 3.5 1.5c1.9.8 7.5 2.5 12.4 3.8 4.9 1.2 8.5 2.5 8 2.8-2 1.2-12.4 1.9-12.4.8 0-.6-1.3-1.1-3-1.1-7.4 0-.4 7.1 8.9 8.9 3.4.7 6.1 1.4 6.1 1.6 0 .2-2.3 1.1-5.1 2-3.7 1.3-4.8 2-3.7 2.6 5.2 2.9 40.5 3.8 88.6 2.3 17.8-.6 20.2-.5 19.7.8-.7 1.7 3.6 3.7 12.3 5.8 8.6 2 31.1 1.8 53.8-.6 4.1-.4 5.3-.2 5.7 1 .7 1.8 6.3 2.2 8.7.6 1.2-.8 1.2-1 .1-1-3 0-.1-1.1 4-1.6 2.4-.2 5.4-.6 6.5-.8 1.2-.3 3.9.2 6 .9 2.2.8 5.5 1.4 7.4 1.4 3.1 0 3.3-.1 1.6-1.2-1.1-.7-3-2.3-4.2-3.5-1.4-1.5-2.8-2.1-3.6-1.6-1 .5-1 .4 0-.7 1.1-1.2 1.6-1.1 3.2.9l1.9 2.2 30.3-.4c16.7-.2 31.8-.1 33.6.1 3 .5 3.1.6 1.5 2-1.6 1.2-.6 1.3 8.2.8 17.1-1.1 43.4-4.6 66.2-8.9 9.5-1.8 11.8-1.4 10 1.5-.9 1.5-.8 2.2.5 3.5 2.2 2.3 14.1 3 22 1.4 3.5-.7 10-1.4 14.6-1.6 4.6-.2 9.9-.8 11.9-1.5 1.9-.6 5.3-.8 7.4-.5 4.8.8 11.9 3.5 11.9 4.6 0 .5-1.6 1.4-3.5 2-1.9.6-3.5 1.6-3.5 2.1 0 1.2 4.8.1 7.8-1.7 2.1-1.4 2.1-1.5.5-3.3-1-1-2.7-2.3-3.8-2.9-3.4-1.9.3-1.3 9.4 1.5 4.7 1.4 10.5 3.9 12.8 5.5 4.6 3.1 6.3 3.5 6.3 1.5 0-1.9-4.1-5.5-7.7-6.8-2.7-.9-3.3-1.7-4.2-6-1.9-8.8-8.4-18.4-16.2-24-2.8-2-11-4.3-19.1-5.4l-4.8-.6 2-3.9c2.5-4.9 2.5-6.7 0-10.8l-2-3.3 2.5-4.3c4.2-7.3 6.6-18.6 6.4-31.1-.1-7.4-.6-11.9-1.6-13.9-.8-1.5-14.2-15.7-29.7-31.5-40.3-41-57-62.5-88.4-114.4-5.6-9.2-9.7-16.7-9.2-16.7 2.6 0 12 5.7 17 10.3 19.2 17.6 58.9 33.5 77.8 31.2 10.4-1.2 15-5.4 24-21.5 11.6-20.8 20.1-62.5 23.2-113.5.9-15 .7-31-.5-37-.3-1.5.7-2.7 4-4.9 2.5-1.5 7.2-5.8 10.6-9.4 3.4-3.7 6.8-6.6 7.6-6.4.8.2 2.1-.2 2.9-.9.9-.7 4.6-1 10.6-.8 11.6.4 16.6-1 20.8-5.7 6.2-7.1 6.3-10.9.3-20.5-4.2-6.9-2.1-6.8-22.1-1.3-18 4.9-20.4 5.1-24.1 2.3l-3.2-2.3 5.8-2.9c3.2-1.6 7.6-4.6 9.8-6.7 2.8-2.7 5.2-3.9 8.3-4.4 4.7-.7 6.5-1.9 13.4-8.8 4.6-4.6 6.8-9.4 6.8-15 0-1.7-1.8-4.7-5.1-8.7-6-7.2-7.4-8.1-12.6-8.1-3.2 0-5.2 1.1-13.3 7.6-8.4 6.7-31.2 23.7-34.8 25.8-.7.4-2.5.3-4-.3s-3.9-1.5-5.4-2l-2.8-1 4-5.8c2.2-3.1 4.6-7.7 5.4-10.3.7-2.5 2.7-6.6 4.3-9 1.7-2.5 4-7.2 5.3-10.5 2.7-7.4 3.7-20.8 1.8-24.5-1.8-3.4-9.9-6-20.4-6.5l-8.2-.5-3.6 10.6c-5.9 17.1-18.9 43.6-23.3 47.6-1 .9-6.7 3.7-12.6 6.1-8.5 3.6-11 4.2-12.2 3.3-1.5-1.1-1.4-1.7.8-6.1 1.4-2.8 4-9.5 5.8-15 2.8-8.8 3.2-11.3 3.2-20.5-.1-10.9-.9-15.1-7.7-41.5l-3.6-14 1.9-25.5c3.1-40.7 3.3-46.7 1.5-50.3-3.5-6.9-16.2-19.5-20.6-20.3-.7-.2-5.6-2.1-10.8-4.3-11.7-4.9-34.8-12.1-53.5-16.7C445.4 102 403 97.1 355.8 97h-17.7l-2.9 3.5zm58.3 1.5c26.2 2.3 39.8 4 60.3 7.6 16.1 2.9 19.7 4.2 6.5 2.5-7-.9-16.2-1.7-44.8-3.7-4.9-.3-8.8-.4-8.5-.1.3.2 4.6 2.9 9.5 6 9.2 5.7 21.8 17.1 17.7 16-1.2-.3-1.9-1-1.5-1.6.4-.6 0-.8-1-.4-1.2.4-1.4.2-1-1.1.6-1.4.4-1.5-.9-.4-1.2 1-2 .8-4.2-1.3-1.5-1.4-3-2.5-3.5-2.5-.4 0-3.3-1.6-6.5-3.5-12.4-7.4-26.2-12.5-47.6-17.6l-7.5-1.7 5.5-.1c3 0 15.4.8 27.5 1.9zm5.6 23.4c9.2 3 24.9 9.3 35 14 5.7 2.6 8.2 4.5 10.1 7.4 2.6 3.8 8.8 15.7 8.8 16.7 0 .2-5-2-11.1-5.1-6.1-3-11.3-5.3-11.5-5.1-.4.4 5.9 3.9 20.1 11.2 3.1 1.5 4.4 3 5.6 6.5 1.3 3.5 2.3 4.6 4.5 5.2 10.9 2.7 10.2 2.4 7.4 3.3-2.2.7-3.9 1.1-7.3 1.4-.4.1-.7 1.1-.5 2.3.1 1.3-.1 4.9-.5 8.1-.9 6.4-.5 6.3-11.2 3-9.6-3.1-12.9-5.1-17.9-11.3-2.8-3.3-5.2-6-5.4-6-1.1 0 4.8 8.5 18.1 25.6 1 1.3 1.5 2.4.9 2.4-.5 0-6-3.3-12.3-7.3-6.3-4-14.8-9.5-18.9-12.1-5.7-3.7-6.9-4.2-5-2.2 1.4 1.5 7 5.7 12.5 9.3 11.2 7.4 12.9 8.8 10 7.7-9.3-3.4-32.6-18.1-34.3-21.6-1.9-4-1.3.4 1.2 8.2 1.3 4.1 2.7 8.3 3.1 9.2.6 1.5.4 1.6-1.8.5-1.4-.6-2.3-1.5-2.1-1.8.2-.4-.9-.9-2.5-1.2-5.2-1.1-22-20.9-26.3-31.1-.9-2.3-1.7-3.5-1.7-2.8-.2 2.6 5.1 13.7 9 19.1 3.7 5.1 3.3 4.8-3.9-2.7-9.1-9.7-14.8-18.3-13.7-20.9.4-1 .9-3.7 1.1-6.1.5-5.7 4.6-14.9 5.6-12.4.5 1.2.7.8.7-1.4.1-2.1 1.2-4 3.6-6.4l3.5-3.4 5.1 4.9c2.8 2.8 8.6 9.4 13 14.8 4.3 5.4 7.9 9.5 7.9 9.2 0-1-5.9-9.2-11-15.4-2.7-3.2-4.6-6.2-4.2-6.6.4-.5.3-.6-.3-.3-.5.3-2.8-1.1-4.9-3.2l-3.9-3.8 7.4-1c4.1-.5 8.1-1 9-1.1.9 0 5 1 9 2.3zm18.1-.9c1.9.4 11.2 6.8 17.3 12 2.4 2 .6 1.4-8.2-2.6-6.2-2.8-15-6.4-19.5-8l-8.3-2.9 8.4.6c4.6.3 9.2.7 10.3.9zm140.1 15.3c2.1 2.1 3.4 4.2 3 4.6-.5.4-.2.6.6.4.7-.2 1.6.3 1.9 1.1.2.8 0 1.1-.6.7-1.2-.7-1 2 .3 3.1.4.4.5.3.1-.4-1.2-2.2 1.1-2.2 3.1 0 3.2 3.5 5.6 8.7 4.1 8.7-.8 0-2.5 2.6-3.9 5.7l-2.5 5.8-2.8-7.8c-1.5-4.2-3.1-7.7-3.5-7.7-.3 0-1.5-1.6-2.5-3.5s-2.3-3.2-2.9-2.8c-.6.3-.7.1-.3-.6.4-.6 1.2-.9 1.7-.6 1.5 1 1-2.2-.6-3.8-1-1.1-1.1-1.7-.3-1.9.6-.2 1.2-1.2 1.4-2.2.2-1.2-.2-1.6-1.2-1.2-.9.3-1.2.1-.9-.4 1-1.6 1.9-1.2 5.8 2.8zm-206.2 21.7c-2.2 2.4-5.1 6.5-6.3 9-1.2 2.5-2.6 4.5-3 4.5-.5 0-2 2.4-3.3 5.2-2.3 4.8-2.5 5-2.5 2.3 0-9.3 3.5-15.1 12.9-22.1 6.3-4.6 7.1-4.2 2.2 1.1zm6.8 2.2c1 2.2 1 2.5-.2 1.5-.8-.7-1.7-.9-2.1-.5-.4.4-.4-.1 0-1.2.6-1.8.5-1.8-1.5.2-1.2 1.3-2.5 2.3-2.8 2.3-.4 0 .4-1.1 1.7-2.5 2.9-3.1 3.4-3.1 4.9.2zm-8 5.5c-.7 1.2-1.3 3.1-1.3 4.3-.1 1.1-.7 1.9-1.4 1.7-.7-.1-1.2.6-1.3 1.5 0 1-.3 1.3-.5.6-.3-.7.7-3.3 2.1-5.8 2.7-4.5 4.6-6.4 2.4-2.3zm11.6-.2c.3.5.1 1-.4 1-.6 0-1.1-.5-1.1-1 0-.6.2-1 .4-1 .3 0 .8.4 1.1 1zm-10.2 2.7c-.4 1.1-.3 1.4.5.9.8-.5 1-.2.5 1-.5 1.5-.7 1.5-1.5 0-.5-.9-.6-2.1-.3-2.6 1-1.6 1.5-1.2.8.7zm197.6 3.8v2l-.9-2c-.5-1.1-.9-2.9-.9-4v-2l.9 2c.5 1.1.9 2.9.9 4zM365 174.4c0 .6-.5.3-1.1-.7-.6-.9-1.5-1.4-2.1-1.1-.7.4-.8.2-.4-.5.9-1.4 3.6.3 3.6 2.3zm-23.6 4.8c-.4 1.3-.8 4.5-.9 7.3 0 2.7-.2 8.1-.4 12l-.3 7-1.4-5.5c-1.7-6.3-1.3-12.8 1.1-18.8 1.8-4.4 3.2-5.8 1.9-2zm35.3 5.7c5.2 4.6 6.3 6.1 4.2 6.1-.5 0-.8-.4-.4-.9.3-.5-.7-.9-2.2-.9-1.6 0-5.7-.7-9.3-1.6-9.9-2.5-9.9-2.5-7-4.1 1.4-.8 3.3-1.4 4.3-1.5 1 0 2-.7 2.3-1.5.7-1.8 1.4-1.4 8.1 4.4zM475 181c0 .6-2 1.9-4.5 3-2.9 1.2-4.5 2.6-4.5 3.7 0 1-.5 6.1-1 11.3-1.1 11.4-2.5 32.3-2.4 36.5 0 2.6 1.4 11.4 3 19.5 1.2 5.8-2.4-4-4.1-11.1-1.5-6.5-1.5-9.2-.6-21.9.6-8 1.5-19.9 1.9-26.5l.7-11.9 5.5-1.7c3-.9 5.6-1.7 5.8-1.8.1-.1.2.4.2.9zm-130.3 3.2c-.3.8-.6.5-.6-.6-.1-1.1.2-1.7.5-1.3.3.3.4 1.2.1 1.9zm206.5.3c.3 1.3.1 2.2-.3 1.9-.9-.5-1.3-4.4-.5-4.4.2 0 .6 1.1.8 2.5zm-150.3 3.4c-.2.6-1-.2-1.7-1.7-1.1-2.5-1.1-2.5.4-1 .9.9 1.5 2.1 1.3 2.7zm-36.3.2c3.2 1.1 9.7 2.9 14.3 4 8.1 2 10.3 3.1 10.9 5.7.3 1.5-1.4 1.6-2.3.1-.4-.6-1.2-.8-1.9-.6-.7.3-5.9-.6-11.7-1.9-13.3-2.9-15.2-2.9-6.4.2 5.7 2 27.4 7.1 32.2 7.6.6.1.9.7.6 1.4-.5 1.4.6 2.2 4.5 3.3 2.4.7 2.8.5 3-1.3.1-1.7-.5-2.2-2.5-2.4-5.3-.4-3.5-1.2 3-1.3 3.7-.1 8-.2 9.6-.3 1.6 0 2.9.3 2.8.9-.1.5.6.9 1.6.8 1 0 1.6.1 1.3.4-1.1 1.1 6.8 4.2 9.1 3.7 3.2-.8 2.9-2.3-.7-3.1-1.6-.3-3-.9-3-1.3 0-.5 2.5 0 5.5 1.1 3 1 6.6 1.9 7.9 1.9 1.4 0 3.7.5 5.2 1 3.2 1.3 4.6.3 2.1-1.4-2.4-1.9-2.2-2.1 2.5-2.3 4.2-.1 4.2-.1 1.8 1.3l-2.5 1.5 2.5-.7c1.4-.4 2.9-1.2 3.3-1.8.5-.6.5 2.7.1 7.4-.9 9.1-1 28.3-.2 36.5.4 4.4.2 5.2-2.4 7.7-1.6 1.5-3.6 2.8-4.4 2.8-.8 0-1.2.4-.9 1 .3.5 1.7 1 3.1 1 3.1 0 3.1 2.1-.1 8.5-3 5.8-7.8 14.1-8.8 15.1-.4.4-2.5-.6-4.7-2.1-2.6-1.8-3.7-3.1-2.9-3.5 1.1-.8-3.7-2.5-5.6-2.1-.5.2-.7 0-.4-.4.4-.3-1.5-2.7-4.2-5.2s-5.6-6.3-6.6-8.4c-.9-2.2-2.1-3.9-2.6-3.9s-.7-.6-.4-1.3c.2-.6-.5-2.4-1.5-4-1.1-1.5-1.4-2.7-.8-2.7.6 0 .4-1-.6-2.5-.9-1.3-1.8-4.6-2-7.2-.3-2.6-.9-5-1.3-5.3-2.3-1.3.4-6.3 5.3-10 8.9-6.7 19.8-8.2 29.3-4 7.2 3.2 4.8.6-2.9-3-8.9-4.3-13.5-4.3-23.2-.2-6.9 3-10.6 3.2-10.6.5 0-.8-.5-1.1-1.1-.8-.7.5-.5 1.3.5 2.4 1.8 1.9 2.1 4.1.7 4.1-1 0-6.1 8.5-6.6 11.1-.2 1-2.1 4.3-4.3 7.5-2.2 3.3-4.7 7.5-5.7 9.4-1 1.9-3.3 5.7-5.2 8.3-3.3 4.7-3.4 5-1.8 7.4 2.3 3.5 1.4 4.9-5.1 7.8-5.3 2.4-5.7 2.4-7.9.7-2.7-2-4.5-5.3-4.5-8.5 0-1.4 3.2-5.5 8.6-11.2 9.4-9.8 11.4-13.2 11.4-19.7 0-3.3-.8-5.6-3.5-9.5-4.1-6-4.2-6.9-1.5-7.6 1.1-.3 2-1.2 2-2.1 0-1.5-.2-1.5-2.5 0-2.1 1.4-2.8 1.4-4.1.3-4.1-3.3-12.6-5.4-18.7-4.5-4.7.7-16 6.7-13.9 7.4.7.2 2.1-.2 3-1 4.2-3.6 13.5-5.5 18.9-3.8 6.6 2 8.3 3.3 12.7 9.4 8.2 11.5 7.6 14.4-5.6 28.3-11.2 11.8-11.5 12.7-6.9 20.9l3 5.2-2 1.8c-1.2 1-2.7 3.4-3.5 5.4-.8 1.9-2.5 4.6-3.8 6-3.4 3.9-4.9 7.6-4.2 10.5.5 1.9.3 2.5-.5 2-.8-.6-.9-3.3-.5-9.4.9-11.5-1-19.4-8-33.3-5.6-11.2-6.3-14.7-4.7-24.1.6-4.2 3-6 4.4-3.4.7 1.3 2.8 1.6 10.2 1.6 5 0 10.8.5 12.7 1 7.3 2.3 9.7.4 6.1-4.7-2.8-4-9.4-6.9-16.1-7.1-5.1-.1-5.9.2-9.4 3.5-2.1 1.9-4 3.3-4.3 3-.3-.3 1-2.1 3-4 8.4-8.2 23-4.8 30.4 7 1.1 1.8 1.2 1.8 1.2-.3.2-6.5-13.5-14.1-23.3-12.9-2.9.3-5.3 1.2-5.8 2.1-.5.8-1.5 1.5-2.3 1.5-.8 0-2.2 1.3-3.2 3-.9 1.6-2.1 3-2.5 3-.4 0-.8-4.3-.7-9.5 0-5.2-.1-9.8-.4-10.2-.2-.4.2-4.4.8-8.8.7-4.4 1.3-7.2 1.4-6.3.2 3 1.5 2 4.5-3.3 3.3-5.9 6-8.9 7.9-8.9.8 0 4 .9 7.3 2.1zm184.3 4.9c0 .8-.7-.1-1.4-2-1.8-4.6-1.7-6.4 0-2.5.8 1.6 1.4 3.7 1.4 4.5zM404 188.9c0 .6-.4 1.2-.8 1.5-.5.3-.9-.1-.9-.9s.4-1.5.9-1.5c.4 0 .8.4.8.9zm7 4.6c0 .2-.5.7-1.2 1.1-.7.5-.8.3-.3-.6.6-1 .4-1.2-.9-.7-1.1.5-1.5.3-1-.5.5-.7.2-.9-.8-.6-.8.4-1.5 0-1.5-.7 0-1.1.6-1.1 2.9.1 1.5.8 2.8 1.6 2.8 1.9zm142-2.1c0 .3-.4.8-1 1.1-.5.3-1 .1-1-.4 0-.6.5-1.1 1-1.1.6 0 1 .2 1 .4zm-109.3 5.3c0 1.7 0 1.7-2.7-1.2l-2.3-2.5 2.5 1.2c1.3.7 2.5 1.8 2.5 2.5zm-34.2-.4c.4-.5.4-.2 0 .6-.6 1.1-.4 1.3.9.8 1-.4 1.5-.3 1.1.3-.4.6.4 1.4 1.7 1.9 1.8.7 1.1.9-3 .8-3-.1-4.9-.3-4.3-.5 1.5-.5 1.4-3.5-.1-5.2-.7-.8-.4-.7.8.3 1.1.9 2.4 1.4 2.9 1zm12.4 3.3c.2.2-.8.4-2.3.4-1.6 0-2.5-.4-2.1-1 .4-.7-.3-.9-1.9-.6-2.6.5-3.7-.9-1.3-1.7 1-.4 6.1 1.6 7.6 2.9zm129.2-.9c-1.2 2-1.4 1.4-.5-1.2.4-.9.9-1.4 1.1-1.1.3.2 0 1.3-.6 2.3zM406 197.4c0 .3-.4.8-1 1.1-.5.3-1 .1-1-.4 0-.6.5-1.1 1-1.1.6 0 1 .2 1 .4zm43 0c0 .3-.4.8-1 1.1-.5.3-1 .1-1-.4 0-.6.5-1.1 1-1.1.6 0 1 .2 1 .4zm105.1 3.3c-1.2 2-1.4 1.4-.5-1.2.4-.9.9-1.4 1.1-1.1.3.2 0 1.3-.6 2.3zm-107.7-.1c.9 2.4.2 2.6-1.2.4-.7-1.1-.8-2-.3-2s1.2.7 1.5 1.6zm9.3-1c-.3.3-1.2.4-1.9.1-.8-.3-.5-.6.6-.6 1.1-.1 1.7.2 1.3.5zm-28.8 2.3c1 .7.7.9-1.2.8-1.5-.1-2.7-.5-2.7-1 0-1 2.2-.9 3.9.2zm-92.5 21.5c.7-.3 2.4.5 3.9 1.6 2.3 1.9 2.7 2.9 2.6 7.3 0 5.2 0 5.2-1.7 2.7-.9-1.3-2.8-3.7-4.1-5.3l-2.4-2.8-2.4 2.3c-1.8 1.7-2.3 1.8-1.7.5.3-.9 1-1.7 1.5-1.7.4 0 .6-.7.3-1.5-.7-1.7.7-2 2.3-.4.7.7 1.2.6 1.6-.5.4-.9.1-1.5-.5-1.3-.6.1-1.2-.4-1.3-1.1-.2-.7-.1-.8.1-.3.3.6 1.1.8 1.8.5zm-.7 12.8c-1 1.8-1.5 2.5-1.2 1.5.3-1 0-2.8-.6-4-1-2.1-1-2.1.5-.3 1.2 1.5 1.6 1.6 1.6.5 0-.8-.4-2-1-2.7-.5-.7-.2-.5.7.3 1.6 1.4 1.6 1.7 0 4.7zm20.8-5.2c-.4.7.3.8 2.2.4 2.3-.5 2.6-.4 1.6.6-1 1.1-.9 1.6.5 2.6 1.6 1.2 1.5 1.3-.5 1.4-1.4 0-2.3-.6-2.3-1.5 0-.8-.5-1.5-1-1.5-.6 0-1 .8-.8 1.7.2 1.3-.5 1.9-2.4 2.1-3.4.4-3.6-1.3-.6-4.5 2.2-2.3 4.5-3.2 3.3-1.3zm13.5 1.5c.6.8.9 1.9.5 2.5-.3.5-.1 1 .6 1s.9-1 .7-2.5c-.3-1.4-.2-2.5.2-2.5 1.6 0 6 4.2 6 5.7 0 1.3-.8 1.5-4.6.9-2.6-.3-6.1-.6-7.8-.7-2.9-.1-3-.1-.6-.8 1.7-.5 2.5-1.4 2.4-2.9-.1-2.5.8-2.8 2.6-.7zm-41.7 13.6c-.7 2.5.1 2.4 2.8-.4l2.2-2.2-.7 4c-.3 2.2-.8 5.2-1.2 6.7-.4 1.8-.2 2.8.5 2.8.5 0 .8-.7.5-1.5-.5-1.3-.2-1.4 2.1-.5 2.4.9 2.6.8 2-.7-.5-1-.9-3.4-1.1-5.3l-.3-3.5.8 3.5c.4 2 1.1 4.2 1.5 4.9.5.8.9 3.8.9 6.7 0 3.2.4 5.1 1 4.7.7-.4.8.1.3 1.3-.4 1-.4 1.5 0 1.1 1.1-1.1 5.4 3.3 5.4 5.5 0 2.8-1.2 2.2-6.2-3-7-7.2-11.8-16.6-11.8-23.3 0-3.4.3-4.9.9-4 .5.7.6 2.2.4 3.2zm14.8 10.1c.1 1.3.1 2.9 0 3.7-.2.7.3 1 .9.6.7-.4.9.1.5 1.8-.4 1.4-.2 2.8.4 3.1.7.5.9 0 .5-1.1-.5-1.7-.5-1.7.6 0 .6 1 .9 2.5.6 3.4-1 2.4-6.9-5.5-6.2-8.2.3-1.1.6-2.8.6-3.8 0-2.5 2-2.1 2.1.5zm120.8 3.3c0 .5-.4.3-.9-.5s-.9-2.2-.9-3c0-1.6 1.7 1.6 1.8 3.5zm175 4.6c12.2 1.5 12.4 1.6 11.9 10.3-.3 6.1-1 8.5-5 16.6-2.6 5.2-5.3 10.6-6.1 12-.9 1.4-2 4.4-2.6 6.7-1.4 5.3-9.1 16.7-11.6 17.2-1.5.2-1.7-.1-1.1-2 .4-1.3.8-2.9.9-3.4.2-.6.6-1.6 1.1-2.4.6-.9.1-2-1.5-3.3-1.3-1.1-1.8-1.7-1.1-1.3 1.4.7 1.6-.4.2-2.5-.9-1.3-1-1.3-1 0 0 .9-1.5-.2-3.6-2.5-1.9-2.2-3.1-3-2.5-1.8 1.5 3 1.4 4.1-.2 1.9-1.2-1.7-1.6-1.4-4.4 3-6.2 10-7.3 12.1-6.5 12.9.4.4-.3.6-1.5.3-1.5-.4-2-.2-1.6.8.3.8-.5 1.6-2.2 2-2 .5-2.4.9-1.3 1.6.9.7.4.8-1.4.4-1.7-.4-2.8-.2-2.8.4 0 .6-.4.8-1 .5-.5-.3-1-.2-1 .3 0 1-4.3.9-10.9-.3-4.4-.7-4.4-.8-2-2.1 1.3-.7 5.9-2.5 10.1-3.9 9.6-3.3 12.1-5.3 15.7-12.4 4.3-8.5 12-27.4 15.7-38.6 3.2-9.9 3.7-10.5 8.4-11.4.3-.1 4.3.4 8.9 1zM466 268.2c0 1.9-1.6.5-1.7-1.4-.2-1.8 0-2 .7-.8.5.8 1 1.8 1 2.2zm-65.7.7c.4.1.7.6.7 1.2s1.4 2.4 3.1 4c2.4 2.2 2.9 3.2 2 4.3-.6.7-.8 1.5-.5 1.9.3.3-.5 1.1-1.8 1.8-2 1.1-2.1 1-1.1-.2 1.8-2.2 1-4.7-2.2-7.5-2.8-2.4-5.1-3.2-4-1.4.3.5.2 1-.4 1-1.8 0-2.1-1.8-.5-2.4.9-.3 1.4-1.2 1.1-2-.4-.9 0-1.3 1.1-1.1.9.2 2 .4 2.5.4zm-49.3 12c-.1.9-2.1 3.8-4.6 6.6-2.7 3-4.3 4.2-4 3 .3-1.1 1-5.2 1.6-9 2.1-14 1.9-13.7 4.6-7.6 1.3 2.9 2.4 6.1 2.4 7zm112-10.3c0 1.4.3 1.4 1.5.4.9-.7 1.7-1.1 1.9-.9.2.2-.9 1.4-2.3 2.5-2.6 2.2-2.7 2.2-5 .3-1.3-1.1-2.1-2.2-1.7-2.6.3-.4 1.3.2 2.1 1.3 1.4 1.8 1.4 1.8 1.5-.4 0-1.2.5-2.2 1-2.2.6 0 1 .7 1 1.6zm-5.5 3.2c-.3.3-1.1 0-1.8-.7-.9-1-.8-1.1.6-.5 1 .3 1.5.9 1.2 1.2zm-39.5 4.9c0-.4.9.2 2.1 1.4 1.1 1.1 2.7 1.8 3.4 1.5.8-.3 1.7-.1 2 .4.3.5 2.7 1.9 5.3 3 5.3 2.4 6.2 3.4 6.2 7.2 0 3.5-.5 3.5-3.5 0-2.4-2.9-6.9-4-9-2.2-.7.6-5.7 2.2-11.1 3.5-13.3 3.3-22.1 3.3-31-.1-6.5-2.4-7-2.5-10.2-1-1.8.9-3 2.1-2.7 2.6.3.6.1 1-.5 1-.7 0-.9.7-.6 1.6.5 1.4.4 1.5-.8.5-1.1-.9-1.2-2-.5-4.3.5-1.8.7-3.4.4-3.6-.2-.3.3-1.8 1.1-3.3 1.4-2.8 1.5-2.9 4.4-1.4 3.4 1.7 4 1.8 4 .6 0-.5-1.1-1.2-2.5-1.5-1.4-.4-2.5-1-2.5-1.5s2 .1 4.4 1.3c3.2 1.5 3.9 2.2 2.5 2.4-1 .2-1.9.7-1.9 1.2 0 1.2 6 3.1 7.3 2.3.6-.3.7-.1.3.5-1.4 2.4 31.6.8 33.4-1.6.3-.4.4-.6.1-.5-.7.4-4.2-4.7-6.2-9.2-2.7-6.1-1.6-7.5 2.7-3.4 1.9 1.8 3.4 3 3.4 2.6zm41.3-.8c-.6 2.2-3.7 2.1-4.1-.2-.2-.8.5-1.7 1.5-1.9 2.5-.6 3.2-.1 2.6 2.1zm12.1 2.1c1.1 2.3 1.2 2.9.3 1.8-.8-1-1.6-1.6-1.8-1.4-.2.3-.5-.7-.5-2-.2-3-.1-2.9 2 1.6zm-6.4-2.6c0 .2-.8 1-1.7 1.7-1.6 1.3-1.7 1.2-.4-.4 1.3-1.6 2.1-2.1 2.1-1.3zm-68.3 1.2c-.3.3-1.2.4-1.9.1-.8-.3-.5-.6.6-.6 1.1-.1 1.7.2 1.3.5zm11.8 5.2l-2.8 2.7 2.3-3.3c1.2-1.8 2.5-3.1 2.8-2.7.3.3-.7 1.8-2.3 3.3zm46-.8c-.4 1.2-.9 1.9-1.2 1.7-.3-.3-.2-1.5.2-2.7.4-1.2.9-1.9 1.2-1.7.3.3.2 1.5-.2 2.7zm8.9-.4c.5 1.4.4 1.5-.9.4-1.7-1.4-1.9-2-.6-2 .5 0 1.2.7 1.5 1.6zm-7.5 4.8c-.6 2.1-1.2 3.6-1.4 3.4-.3-.2 0-2.1.6-4.2s1.2-3.6 1.4-3.4c.3.2 0 2.1-.6 4.2zm-104.7 1.9c-1.2 1.6-2.3 4.7-1.6 4.7.2 0 .9-1 1.4-2.3 1.8-4 0 12.3-2.1 19.2-2.4 7.9-2.3 8.9.3 3.1 1.9-4.4 2-4.4 2.9-2l1 2.4 2.3-2.8 2.2-2.9 1.2 5.5c.9 4 1 6.2.2 8.3-1.8 4.7-.3 4 2.3-1.2 2.2-4.1 6.2-8.1 7.2-7.1.2.2.1 1.6-.2 3.3-.5 2.5-.7 2.7-1.3 1-1.1-3.1-3 7.2-3 16.3 0 7 1.8 17.9 4.1 24.2 1.2 3.2.2-6.1-1.1-10.5-1.4-4.9-2-16.6-1.1-22.5l.9-5.5.2 5.5.3 5.5.9-6.5c.5-3.6 1-7.1 1-7.8.1-.6.2-1.2.3-1.2.5 0 9.5 4.9 12.5 6.8 1.9 1.2 4.5 2.2 5.6 2.2 3.7 0 4.3 1.9 3.4 9.5-.5 3.9-.9 9.2-.9 12 .1 4.8.1 4.9.9 1.5.5-1.9 1.2-7.2 1.5-11.8.8-9.1 2.2-11 7.2-9.7 1.4.3 3 .2 3.6-.3.7-.5 5.1-2.1 9.9-3.7 8.2-2.7 8.8-2.7 11.2-1.2 1.5 1 3.3 3.8 4.3 6.7 1 2.7 2.1 5 2.4 5 1.5 0 1.7-2.9.3-4-.8-.7-1.4-2-1.4-2.8 0-.9-1.4-3.1-3.2-4.9-3-3.1-3.1-3.4-1.6-4.9 2.6-2.6 5.9-1 10.6 5.3 4.5 6 6 9.9 4.6 11.8-.5.7-2.4 3.1-4.1 5.5-4.9 6.4-4 6.6 2 .3 7.1-7.6 26.5-22.6 28-21.7.7.4.9.4.5-.1-1.1-1.2 1.1-3.5 2.6-2.9 1.7.7 6.3-4.8 9.1-10.7l2.1-4.7 3.7 9.7c2 5.3 3.7 10 3.7 10.5s-2.2 5.4-4.9 11.1c-5.2 10.7-12.2 19.5-18.2 22.9l-3.4 1.9 3.7-3.9c3.7-3.9 8.4-12.1 7.6-13-.3-.2-1.7 1.3-3 3.4-5.8 8.7-10.5 12.7-22 18.5-10.4 5.3-19.6 8.3-30.8 10.2-4 .7-4.3.6-3.1-.9 1.7-2 .3-2.1-2.5-.2-2.3 1.7-14.4 5.9-15 5.3-.3-.2 1.3-1.6 3.4-3.1 2.2-1.5 5-3.8 6.2-5.1 1.3-1.3 2.8-2.2 3.4-1.8.6.3.8.3.4-.2-.4-.4 1-3 3.2-5.8 5.5-6.8 5-7.7-.7-1.5-2.7 2.8-8.5 7.9-12.9 11.4l-8.2 6.4h-6.8c-11.3 0-17.1-2.1-22.6-7.9-5.3-5.8-8.4-13-9.8-22.9l-.9-6.7.4 7.5c.3 7.9 2.9 15.9 6.8 21.4l2.2 3.1-3.3-2.7c-4.4-3.7-7.5-7.5-10-12.3-1.2-2.2-2.1-3.4-2.2-2.6 0 .8 1.4 3.9 3 7l3.1 5.6-3.7-4c-6.7-7.4-10.1-16.1-11.4-29.5l-.7-7.5-.2 7.5c-.2 6.6-.4 7.1-1.3 4.6-1.2-3.3.3-16.9 2.7-23.7.8-2.3 1.2-4.6.8-5.2-.4-.6-.1-.7.7-.2 1 .6 1.2.4.6-1-.7-1.9 3.8-10.2 9.8-18 2.9-3.6 3.1-3.8 3.4-1.7.2 1.3-.1 2.8-.6 3.5zm38.3-3.5c-.3.3-1.1 0-1.8-.7-.9-1-.8-1.1.6-.5 1 .3 1.5.9 1.2 1.2zm72.5-1.4c0 .3-.4.8-1 1.1-.5.3-1 .1-1-.4 0-.6.5-1.1 1-1.1.6 0 1 .2 1 .4zm13 3.1c0 .5-.5.3-1-.5s-1-2-1-2.5c0-.6.5-.3 1 .5s1 1.9 1 2.5zm-87.6 1c-.4.8-.7 1.5-.9 1.5-.2 0-.5-.7-.9-1.5-.3-.9 0-1.5.9-1.5s1.2.6.9 1.5zm90 4.2c.9 1.8 1.4 3.3 1.2 3.3-.6 0-3.6-5.5-3.6-6.6 0-1.1.5-.3 2.4 3.3zm-19.7 1.5c-.3.8-.6.5-.6-.6-.1-1.1.2-1.7.5-1.3.3.3.4 1.2.1 1.9zm-29.8-.3c1.9 1.2.6 4.1-1.8 4.1-1.1 0-2.1.3-2.3.7-.1.5-1.9 1.6-3.8 2.7-5 2.7-33.5 3.4-38.3 1-5-2.6-9.8-6.4-9.2-7.5.8-1.2 6.5-1.2 6.5 0 0 1.3 4.9 2.9 11 3.6 7.5.8 22.3-.9 29-3.3 6.4-2.4 7-2.5 8.9-1.3zm24.8 5.3c-.3.8-.6.5-.6-.6-.1-1.1.2-1.7.5-1.3.3.3.4 1.2.1 1.9zm-24.9 3c-3.6 5.5-18.7 10.9-30.7 11-11.1.1-16.8-1.8-22.2-7.3-3.3-3.4-4.2-7.3-1.1-4.8 2.9 2.5 9 4.9 13.7 5.5 12.1 1.6 28-.7 37-5.3 4.7-2.4 5.3-2.2 3.3.9zm27.4 1c-.6.6-.7 0-.4-1.9.5-2.1.7-2.3 1-.9.2 1 0 2.2-.6 2.8zm243.1 1.7c5.3 5.5 5.7 6.3 5.7 10.7 0 5.6-2.7 9.7-9.6 14.4-3.1 2.2-6.1 3.3-9.9 3.7-5.6.6-9.2-.8-7.8-3 .3-.5.2-.7-.4-.4-1.5.9-5.7-3.9-4.8-5.4.5-.8.4-1-.4-.5s-1.6-.3-2.4-2.3c-1.4-3.7-3.1-4.1-2.5-.6.4 2.1.3 2.3-.9 1.4-1.9-1.6-2.7-.5-1.3 2 .6 1.2.8 2.7.4 3.3-.4.6-.3.8.3.5.6-.4 2.4.8 4 2.6 2.8 3 3.8 3.6 7.3 4.2.8.1 1.5.7 1.5 1.3 0 1.3-10.1 9.2-11.9 9.2-.6 0-2.2.9-3.6 2-4 3.1-9.5 2.3-5.7-.8.7-.6 2.4-1.3 3.7-1.5 7.2-1.4 8.1-1.9 6.8-3.6-1.1-1.4-1.1-1.4.3-.3 1.3 1 1.8 1 2.8-.1.6-.8.7-1.8.3-2.2-.4-.5-.2-.5.4-.2 1.5.9 3.8-1.9 2.9-3.3-.5-.8-1.5-.4-3.1 1.1-1.3 1.2-2.1 2.6-1.8 3 1 1.6-.3.9-1.7-.9-.7-.9-.9-1.4-.5-1 1.3 1.1 3.6-1.1 3.6-3.3 0-1.1-.6-1.9-1.2-2-.7 0-2.1-.2-3.1-.4-.9-.2-1.5.1-1.1.6.3.5.9.7 1.4.4.4-.3 1.3.2 1.9.9.9 1 .9 1.6.1 2.1-.6.4-.9.1-.8-.6.2-.7-.6-1.3-1.7-1.4-1.5 0-1.9-.6-1.8-2.3.2-1.2-.2-2.2-.7-2.2-.6 0-1 .4-1 1 0 .5-.8 1-1.7 1-1.5 0-1.6-.2-.3-1 .8-.5 1.2-1.2.8-1.5-.8-.9-5.9 2.5-5.3 3.5.3.4-.3 1.4-1.2 2.1-1.5 1.2-1.6 1.2-.8-.1.5-.8 1-2.2 1.2-3 .3-2 4.4-4.9 6.3-4.5.9.2 1.7-.3 1.7-1 0-1.9-1.9-1.3-7.3 2.7-7.8 5.6-11.2 7.1-14.2 6-1.5-.5-3.7-.8-4.9-.7-1.2.1-2-.2-1.8-.6.3-.4-.5-.9-1.8-1.3-1.2-.3-2.8-1.5-3.5-2.6-1.2-2-1.2-2 2.5-.5 2.1.9 5.1 1.8 6.7 2 5.9.8 22.3-9.7 43.5-27.8 7.5-6.4 9.3-6.2 16.4 1.2zm-222-3.4c-.3.9-.8 1.4-1 1.1-.3-.3-.2-.9.2-1.5.9-1.6 1.5-1.3.8.4zm-47.2 7.3c-1 1.5-3 3.7-4.3 4.9-3 2.9-13.7 7.6-15.5 6.9-.8-.3-1.1-.1-.8.4.3.6-.3 1-1.4 1-1.2 0-2.1.4-2.1.8 0 .5-3.5.9-7.8.9-13 .2-24.6-6.2-25.9-14.2-.6-3.8.6-4.6 2.8-1.9.7.9 4.1 2.9 7.4 4.5 5.5 2.6 7.3 2.9 15.7 2.9 5.2 0 10.8-.4 12.4-.9 1.6-.5 4.8-1.4 7.2-2.1 2.3-.7 4.2-1.7 4.2-2.2 0-.4.8-.8 1.8-.7.9 0 1.2.3.5.5-.7.3-.9 1.2-.6 2 .3.8.1 1.4-.4 1.4s-1.8.7-2.9 1.5c-1.7 1.4-1.7 1.4 1.1.3 3.6-1.4 9.7-7.7 8.8-9.1-.3-.6-.1-.7.6-.3.8.5.6 1.5-.8 3.4zm25.6-1.6c-.3.8-.6.5-.6-.6-.1-1.1.2-1.7.5-1.3.3.3.4 1.2.1 1.9zm14.7 4c-1.6 1.2-3.4 2.5-4 3-.6.4-1.1.2-1.1-.7 0-.8.4-1.2.8-1 .4.3 1.8-.4 3-1.5 1.3-1.1 2.8-1.9 3.3-2 .5 0-.4 1-2 2.2zm-7.9 2.9c-.4.5 0 .9.7.9.9 0 .9.3-.2 1-2.2 1.5-2.7 1.2-2.4-1.3.3-3 .3-2.9 1.4-2.2.6.4.8 1.1.5 1.6zm150.6.2c-1 .9-1.1.8-.5-.6.3-1 .9-1.5 1.2-1.2.3.3 0 1.1-.7 1.8zm-60.7 7.7c6.5 4.4 19.3 10.2 25.5 11.5 7.6 1.6 7.9 3.5.5 2.3-3.2-.5-6.4-.6-7.1-.4-.9.4-1.1.1-.7-.5.5-.8-.3-1-2.4-.7-1.7.2-2.9.1-2.7-.3.3-.4-.7-.9-2-1.2-1.4-.2-2.3-.2-2 .1.2.3 0 1.1-.6 1.8-.5.7-1.2 2.5-1.5 4-.3 1.5-1.1 3.6-1.9 4.7-.7 1-1.1 2.7-.7 3.6.5 1.4.4 1.4-1.1.2-1-.8-2-1.2-2.2-.9-.3.2 1.4 1.5 3.7 2.8 2.4 1.4 3.8 1.7 3.3.9-.7-1.1-.6-1.2.6-.2.8.6 3.5 1.3 5.9 1.6 2.8.2 1.5.4-3.5.5-9.3.2-13.7-1.7-18.9-8.1-4.1-5.1-4.2-11.8-.3-19.5 1.5-2.8 2.9-5.2 3.2-5.2.2 0 2.4 1.4 4.9 3zm-109.5-.3c-.7 1-1.4 1.9-1.5 2.1-.1.2-.4-.4-.8-1.3-.3-.9-.2-1.3.3-1 .5.3 1.2.1 1.6-.5.3-.5.9-1 1.2-1 .3 0-.1.8-.8 1.7zm13.1-1.4c0 .2-1.5 1.3-3.2 2.6l-3.3 2.2 2.8-2.5c2.6-2.4 3.7-3.1 3.7-2.3zm-7 5.1c0 .2-.7.9-1.5 1.6-1.3 1.1-1.4 1-.9-.4.5-1.4 2.4-2.3 2.4-1.2zm165.5.6c-.3.5-1.4 1-2.3.9-1.4 0-1.3-.2.3-.9 2.7-1.1 2.7-1.1 2 0zm7.5 1.6c0 .2-1.6.4-3.6.4-1.9 0-3.3-.4-3-.8.5-.8 6.6-.4 6.6.4zm-12.2 4.2c.2.7-.1 1.2-.8 1.2-.6 0-.8-.5-.5-1 .3-.6-.1-1-.9-1s-1.8-.4-2.1-1c-.4-.6.2-.7 1.6-.1 1.3.4 2.5 1.3 2.7 1.9zm2.7.2c.3.5.1 1-.4 1-.6 0-1.1-.5-1.1-1 0-.6.2-1 .4-1 .3 0 .8.4 1.1 1zm6.3.7c-1 .2-2.6.2-3.5 0-1-.3-.2-.5 1.7-.5s2.7.2 1.8.5zm21.9 10c-.3 1-.5.4-.5-1.2 0-1.7.2-2.4.5-1.8.2.7.2 2.1 0 3zm5.4.6c1.2 2.2 1.2 2.2-1 .3-1.1-1.1-2.1-2.3-2.1-2.8 0-1.4 1.9.1 3.1 2.5zm4.6 2.4c.5-.3 1 0 1 .8 0 1-.5 1.1-1.9.4-1-.5-1.8-1.5-1.8-2.2 0-.8.3-.8.9.2.5.7 1.3 1.1 1.8.8zm62.6 8.6c1.4 2.9 2.9 6.5 3.2 8 1.3 5.1-3.4 9.2-14.3 12.7-3.9 1.2-4.5 1.2-6.9-.6-1.4-1.1-3.2-2.9-4-4-1.2-1.9-1.1-2.1 2-2.1 2.2 0 3.4.5 3.4 1.4 0 .9-.4 1-1.1.3-.5-.5-1.7-1-2.5-1-1.3.1-1.3.3.2 1.1.9.6 1.5 1.4 1.3 1.8-.8 1.2 6.6 1.2 9.7-.1 2.2-.8 2.5-1.3 1.5-2-.9-.7-.8-.8.5-.4 2.7.9 4.1-.3 2.6-2-1-1.2-.8-1.6.9-2.1 1.2-.3 2.2-1 2.2-1.5s-.4-.7-.9-.4c-.5.4-.7-.2-.4-1.3.3-1.2-.4-2.5-2-3.8-2.8-2.2-6.3-2.3-16.8-.3-4.1.8-8.6 1-11.5.5l-4.9-.7 10.6-2.4c5.9-1.4 13.1-3.3 16-4.3 7.9-2.8 8.3-2.7 11.2 3.2zm-84.6-.6c1.2.5 1.4.3.8-.7-.6-.9-.4-1.1.4-.6.7.5 1 1.1.7 1.4-.3.3-.1 1.2.6 1.9.6.8-.6.4-2.8-.8-6-3.4-5.9-3.7.3-1.2zm30.3-.7c0 .5-.2 1-.4 1-.3 0-.8-.5-1.1-1-.3-.6-.1-1 .4-1 .6 0 1.1.4 1.1 1zm5.9 2.3l2.5 3.2-3.5-3c-1.8-1.7-3.6-3.1-3.8-3.3-.2-.1.2-.2 1-.1.8 0 2.5 1.4 3.8 3.2zm-114.4-.3c1.9.7 1.8.9-.8 1.9-5 2-8.6.7-4.5-1.6 2.7-1.4 2.7-1.4 5.3-.3zm24 0c.4.6 1 .8 1.4.6.4-.3.8.1.8.9 0 1.1-.5 1-2.4-.2-1.2-.8-2.3-1.7-2.3-1.9 0-.8 1.9-.3 2.5.6zm81.5-.6c0 .2-.9.6-2 .9-1.1.3-1.8.1-1.4-.4.5-.9 3.4-1.3 3.4-.5zm-30.5 3.5c.3.5.2 1.2-.3 1.5-.5.3-.9-.1-.9-.9 0-1.7.3-1.9 1.2-.6zm7.5.7c0 .8-1.9 1.3-2.4.6-.3-.5.1-.9.9-.9s1.5.2 1.5.3zm-22.7 1.1c-1.8.2-4.8.2-6.5 0-1.8-.2-.4-.4 3.2-.4s5 .2 3.3.4zm27.7 7.9c0 .2-1.3-.5-3-1.4-1.6-.9-3-2.1-3-2.5 0-.5-.3-.6-.7-.4-.5.3-1.7-.7-2.7-2.1-1.5-1.9-.5-1.5 3.7 1.8 3.2 2.3 5.7 4.4 5.7 4.6zm34-7.6c0 .5-.2 1-.4 1-.3 0-.8-.5-1.1-1-.3-.6-.1-1 .4-1 .6 0 1.1.4 1.1 1zm-90.6.8c.3.5-.1.9-.9.9s-1.2-.4-.9-.9c.3-.4.7-.8.9-.8.2 0 .6.4.9.8zm39.3-.2c-.3.3-1.2.4-1.9.1-.8-.3-.5-.6.6-.6 1.1-.1 1.7.2 1.3.5zm17.2.9c1.6.5 2.1.4 1.7-.4-.4-.6-.5-1.1-.2-1.1 1.5 0 1.3 1.9-.2 3.4-1.7 1.5-2 1.4-4.2-1.1-1.2-1.4-1.6-2.4-.9-2.1.8.3 2.5.9 3.8 1.3zm50.1-1.1c0 .2-.7.7-1.6 1-.8.3-1.2.2-.9-.4.6-1 2.5-1.4 2.5-.6zm-104.8 2.9c-1.4 1.6 1.3 6.1 3 5.1.6-.4.8-.2.4.4-.3.6-.2 1.3.3 1.6.5.4 1.2.2 1.6-.4.3-.5 1.1-1 1.8-1 .6 0 .3.6-.7 1.3-1.5 1.1-1.6 1.5-.3 2.5 1.5 1.3 16.8 4.4 22.9 4.7 2.1.1 4.1.5 4.5.9.4.4-5.1.4-12.2.2l-13-.6-3.7-4c-3.7-4.1-8.6-11.6-6.9-10.5.5.3 1.2.1 1.6-.5.3-.5.9-1 1.2-1 .3 0 .1.6-.5 1.3zm26.9.5c-1.3.2-2.7 0-3.2-.5-.6-.6.3-.7 2.3-.4 2.8.4 2.9.6.9.9zm-284.6 11.8c-5.5 12.4-5.6 11 1.2 37.4 2.3 8.5 4.3 17.5 4.7 20 .6 4.7-6-16.2-9.3-29-1-4.1-2.4-8.8-3-10.3-1.6-4.2-1.3-9.7.8-15.9 2.9-8.6 7.7-14.8 10-13.2.2.2-1.8 5.1-4.4 11zm290.2-11c-.3.3-1.2.4-1.9.1-.8-.3-.5-.6.6-.6 1.1-.1 1.7.2 1.3.5zm-98.4 2.4c-2.5 1.5-3.6 3.3-5.2 8.2-1.1 3.5-2.4 6.2-3 6-.6-.1-1.1.8-1.1 2 0 1.9.2 2 1 .8.7-1.1.8-.5.4 2-.9 4.7-1.1 4.8-2.1 1l-.9-3.3-2.4 3c-1.4 1.7-3 3.9-3.7 4.9-2.4 3.7-.2-4.8 2.6-10 3.5-6.8 12.7-16.6 15.5-16.6 1.8 0 1.6.3-1.1 2zm105-1.3c-.7.2-1.9.2-2.5 0-.7-.3-.2-.5 1.2-.5s1.9.2 1.3.5zm52.1 5.3l3.1 3.5-3.7-3.4c-2.1-1.9-3.8-4.2-3.7-5 0-1.4.1-1.4.6-.1.3.8 2 3.1 3.7 5zm-94.9 0c-.4.6-.1.9.5.8 1.5-.4 1.8 1.4 2.2 12.9.2 5.1.5 9.3.8 9.3.3 0 1.1 2.6 1.8 5.7 2.8 12.2 6.3 25.9 7.1 27.8 9.3 21.1 15.1 29.5 20.2 29.5 3.9 0 8-3 9.9-7.4 3.3-7.9 9.9-35 10-41.4 0-2.2.5-3.2 1.5-3.2.8 0 1.5.8 1.5 1.7 0 1.5-.2 1.5-.9.4-.6-1-.9-.2-.9 2.5 0 2.1-.2 5-.5 6.4-.2 1.4-1.4 7.7-2.6 14-1.7 9.3-7.1 31.7-9.7 40.2-1.2 3.9-11.2 1.2-16.5-4.4-2.3-2.5-2.8-2.7-1.9-1 1.1 2.2 1 2.3-1 1.2-1.1-.6-2-1.9-1.8-2.9.1-.9-1.4-4-3.5-6.8-2-2.8-4.7-7.4-5.9-10.3-1.3-3.1-2.5-4.7-3-4.2-1.2 1.2-5 .3-4.2-.9.3-.5 0-.9-.6-.9-.8 0-1 .9-.6 2.5.8 3.2-.2 3.2-1.4 0-.5-1.4-1.5-2.4-2.2-2.3-.7.2-1.2-.2-1.2-.7 1.3-8.8 1.4-11.4.6-11.9-.6-.3-.8-1.6-.5-2.9.4-2 .3-2-.7-.4-.8 1.3-.9 2.6-.1 4.8.6 1.6.7 2.8.3 2.5-.4-.2-.9 3.2-1 7.7-.2 7.4 0 8.3 2 10 2.2 1.8 2.2 1.8.1.8-1.6-.8-2.3-.8-2.6.2-.3.6-.6-7.2-.6-17.4-.1-17.9 0-18.7 1.9-19.2s2 0 2 6.2c0 3.6.4 8 .9 9.8.6 2 .5 3.5-.1 4.1-1.2 1.2-.2 6.2 1.2 6.2.6 0 1.9-.9 2.9-1.9 1.1-1.1 2.2-1.7 2.5-1.4.3.4.6-.1.6-1.1 0-.9-.4-1.5-.8-1.2-.4.2-.7-1.2-.5-3.2.1-2 0-2.8-.3-1.7-1.2 4.1-2.2 3.6-1.2-.6.9-4.2.6-16.2-.6-22.4-.5-2.4-.4-2.6.3-1 .8 1.6 1 1.1.9-2.5 0-3.5-.2-3.9-.7-2l-.7 2.5-1.2-2.2c-.7-1.2-1.2-3-1.2-4 0-1.5-.2-1.6-1-.3s-1 1.2-1-.3c0-2.5 2.8-2.1 3.3.5.2 1.3.3.9.2-.7-.2-1.7-.6-4.1-.9-5.5-.5-2.1-.5-2.2.3-.5l1 2-.1-2c0-3.7-1.3-7.1-2.2-5.7-.4.7-1.2 1-1.7.7-1.3-.8-1.1-9.5.2-9.5.5 0 .7-.4.4-1-.4-.6.1-.7 1.2-.4 1.7.5 1.7.5.1-.9-1-.8-1.8-2.7-1.8-4.3.1-2.5.2-2.6 1.1-1.1.5.9.7 2.2.4 2.7zm56-1.9c1.3.6.5.6-2 .3-2.2-.4-4.7-1-5.5-1.5-1.8-1 4.6 0 7.5 1.2zm50.5-.2c.7 1.4.7 2.2-.2 2.7-.7.4-.8.3-.4-.4s0-1.2-1.1-1.3c-1.2 0-1.4-.2-.4-.6 1.1-.5 1.1-.7 0-1.4-1-.6-1-.9-.2-.9.7 0 1.7.9 2.3 1.9zm18.3-.4c-.3.9-.8 1.4-1 1.1-.3-.3-.2-.9.2-1.5.9-1.6 1.5-1.3.8.4zm-34.9 1.1c.3.8.2 1.2-.4.9-.6-.3-1-1-1-1.6 0-1.4.7-1.1 1.4.7zm12.6.9c1.1 1.3 1 1.4-.4.9-.9-.3-1.6-1-1.6-1.5 0-1.3.6-1.1 2 .6zm-204 6.7c-5.4 8.3-4.9 6.8-9.6 29.3-3.3 15.7-4.4 20-4.4 16.4 0-3.5 2.1-20.3 3.7-29.3l1.7-10 6.4-6.8c3.5-3.7 6.6-6.8 6.7-6.8.2 0-1.8 3.3-4.5 7.2zm164.9-4.8c1.3 1.4 1.8 2.6 1.2 3-1 .6-2.5-1.1-2.6-2.9 0-.6-.9-.9-1.9-.7-1.1.2-1.5-.1-1.1-.7.9-1.6 1.9-1.3 4.4 1.3zm24.9.8c1 1.2 1 1.8.1 2.4-.8.4-.9.3-.5-.4s.2-1.2-.3-1.2c-.6 0-1.1-.8-1.1-1.7 0-.9.1-1.4.3-1.2.1.2.8 1.1 1.5 2.1zm-476.8.6c0 1.8-1.3 2.2-8.4 2.5-1.6.1-3.1-.3-3.3-1-.5-1.4 4-3.1 8.5-3.2 2.4-.1 3.2.3 3.2 1.7zm496.2.4c-.7.7-1.2.8-1.2.2 0-1.4 1.2-2.6 1.9-1.9.2.3-.1 1.1-.7 1.7zm-17.1 4.1c-1 .9-1.1.8-.5-.6.3-1 .9-1.5 1.2-1.2.3.3 0 1.1-.7 1.8zM201.4 380c0 2.3-.4 2.5-7.9 3.6-8.8 1.3-16.3 3.2-18.3 4.7-1.6 1.3-2.9 0-3.4-3.3-.2-1.9.1-2.5 1.7-2.5 1.1 0 2.2-.3 2.5-.7 1.2-1.6 14.9-4.6 20-4.5 5.1.2 5.5.4 5.4 2.7zm113 1.7c-3.6 11.9-7.4 19.8-10.8 22.1-1.8 1.2-5.7 4.8-8.7 7.9-5.5 5.8-7.2 5.8-4.4.1l1.6-3.3-3.3 3.9c-1.8 2.1-4.6 5.2-6.2 7-2.6 2.8-2.6 2.7.4-1.4 1.8-2.5 5.1-7.4 7.4-11 10.5-16.1 7.5-13.9-3.8 2.8-4.2 6.2-7.4 11.7-7.1 12.3.4.5-1.3 3.1-3.7 5.9-3.4 3.9-4.4 4.6-5.1 3.4-.6-1 .1-3 2-6.2 1.6-2.6 3.2-5.6 3.6-6.6.7-1.6.5-1.7-.8-.6-1.2 1-.9-.3.9-4.4 3.1-7 3.1-6.9.5-5.6-2.9 1.6-3.1.9-1.4-4.1 2.5-6.9 4-8.6 9.7-10.4 6.9-2.3 16.7-7.3 24.3-12.4 3.3-2.3 6.1-4.1 6.2-4.1 0 0-.5 2.1-1.3 4.7zm123.7 4.7c-2.5 4-9.8 24.2-11.3 31.1-.6 2.9-.8 9.7-.5 16.3.6 9.7.4 11.5-1.1 13.3-.9 1-2 2.9-2.4 4.2-.7 1.9-.7 1.8-.4-.6.2-1.5 0-2.7-.4-2.7-.8 0-4-18.2-4-22.9 0-4 4.7-16.2 10.1-26.4 2.1-4 5.5-10.5 7.6-14.5 3.6-6.9 3.8-7.2 4.1-4.3.2 1.9-.5 4.5-1.7 6.5zm234.9-7.5c0 2-13.4 13.2-19.4 16.1-5.2 2.6-7.2 3.1-10 2.6-4.8-.9-5.2-2.1-.8-2.4 2-.2 5.5-1.1 7.9-2.2 3.3-1.5 4.2-2.3 3.7-3.7-.4-1.3-.3-1.5.4-.4.7 1 1.4 1.1 3.2.1 1.2-.6 1.9-1.4 1.6-1.7-.3-.3-1.4 0-2.3.8-1.6 1.3-1.7 1.2-.4-.4.8-1.1 2.1-1.5 3.2-1.2 1.1.4 1.9.2 1.9-.3s.9-1.2 2-1.5c1.1-.3 2-1 2-1.7 0-.6-.5-.8-1.2-.4s-.8.3-.4-.4c.4-.6 1.4-.8 2.3-.5 1.1.4 1.4.3.9-.5-.4-.8-.2-1 .7-.6.8.3 1.7-.2 2-1 .7-1.7 2.7-2.2 2.7-.7zm-313 7.3c0 1-3-.5-7.2-3.4-4.8-3.4-3-3.9 2.2-.6 2.8 1.7 5 3.5 5 4zm264.7-6.6c-.3.3-1.2.4-1.9.1-.8-.3-.5-.6.6-.6 1.1-.1 1.7.2 1.3.5zm7.3 1c0 .2-.7.4-1.5.4s-1.5-.4-1.5-1c0-.5.7-.7 1.5-.4.8.4 1.5.8 1.5 1zm-24.6 3.3c.5.7-17.6.2-18.3-.5-.3-.3 3.6-.4 8.7-.3 5.1.1 9.4.4 9.6.8zm14.4.6c-.9.9-6.8 1.3-6.2.4.3-.5 1.9-.9 3.6-.9 1.7 0 2.9.2 2.6.5zm2.7.5c.3.5.1 1-.4 1-.6 0-1.1-.5-1.1-1 0-.6.2-1 .4-1 .3 0 .8.4 1.1 1zm5.2-.4c-.3.3-1.2.4-1.9.1-.8-.3-.5-.6.6-.6 1.1-.1 1.7.2 1.3.5zm6.6.1c-.7.2-2.1.2-3 0-1-.3-.4-.5 1.2-.5 1.7 0 2.4.2 1.8.5zm-423.6 7.4c.6 3.8 2.2 9.3 3.7 12 2.5 5 2.6 5.1 1.4 15.2-.6 5.6-1.1 19.5-1.2 30.9V471h-4.5c-6.3 0-14.8-4.1-16.2-7.7-1.1-2.9-3.9-16.4-3.9-18.9 0-2.8 8.5 4.1 10.5 8.5 1.9 4.3 4.1 5.8 2.6 1.8-2-5.3-5.1-8.9-12.2-14.6-4.2-3.3-8.1-6.7-8.8-7.5-1.4-1.7-1.4-1.7-3.2-21.6-1.1-11.4-1.5-13.5-1.9-9.6l-.5 4.8-1.9-2.1c-1.1-1.1-2.4-2.1-3-2.1-.5 0 .4 1.5 2.1 3.2 2.9 3.1 3.2 3.9 3.5 11.3l.3 8-3 .5-3 .5-3.2-12.5c-4.8-19-4.7-17.4-.5-19.5 10.2-4.9 24.4-8.2 36.2-8.4l5.6-.1 1.1 7.1zm428-6.5c-.3.3-1.2.4-1.9.1-.8-.3-.5-.6.6-.6 1.1-.1 1.7.2 1.3.5zm-270.4 3c4.8 1.5 6.3 3.4 2.7 3.4-3.1 0-9.8-3-10.4-4.7-.5-1.1-.2-1.3 1.1-.8 1 .4 3.9 1.3 6.6 2.1zm205.6 6.4c-.5 1-.8-.5-.8-4 .1-5.5.1-5.5.9-1.5.4 2.2.4 4.7-.1 5.5zm33.8-8.4c-.3.3-1.2.4-1.9.1-.8-.3-.5-.6.6-.6 1.1-.1 1.7.2 1.3.5zm-20.2 1.3c.3.5.1 1.2-.5 1.6-.5.3-1-.1-1-.9 0-1.8.6-2.1 1.5-.7zm11.2.6c0 .8-.4 1.2-.9.9-.5-.3-.6-1-.3-1.5.9-1.3 1.2-1.1 1.2.6zm4.3-.5c-.8.5-1.9 1-2.5 1-.5 0-.3-.5.5-1s2-1 2.5-1c.6 0 .3.5-.5 1zm16.4 3.5c1.1.8 1.6 1.5 1 1.5-.5 0-1.8-.7-2.8-1.5-1.1-.8-1.6-1.5-1-1.5.5 0 1.8.7 2.8 1.5zm8.6 0c3.3 1.9 2.1 1.9-2.1 0-1.9-.8-2.7-1.4-1.9-1.4.8 0 2.6.6 4 1.4zm-369.4 4.8c-3.6 8-7.4 20.7-9.2 30.8-1.5 8.2-1.9 9.2-4.3 10.1-1.4.5-4.3 1.9-6.4 2.9-2.3 1.2-4.6 1.7-5.9 1.3-1.4-.4-1.8-.2-1.4.5 1.5 2.4-2.5.9-7.1-2.6-6.1-4.6-6.3-4.9-5.8-9.8.2-2.2.6-9.4 1-16 .3-6.6.8-13.9 1.1-16.3l.6-4.2 10.2-.1c5.5-.1 12.6-.4 15.6-.9 3-.4 7.4-.8 9.7-.9l4.2-.1-2.3 5.3zm123.9-4.3c-4.4 1.1-6.5 1.1-6.5 0 0-.6 2.1-.9 4.8-.9 4.2.1 4.4.2 1.7.9zm205 0c.3.5.1 1-.4 1-.6 0-1.1-.5-1.1-1 0-.6.2-1 .4-1 .3 0 .8.4 1.1 1zm46 1.8c-.3.3-1.1 0-1.8-.7-.9-1-.8-1.1.6-.5 1 .3 1.5.9 1.2 1.2zm-8.9 1.4c1.9 2.3 1.9 2.3-.1.7-1.1-.9-2.7-1.4-3.5-1.2-1.3.4-1.3.3 0-.6.8-.6 1.5-1.1 1.6-1.1 0 0 .9 1 2 2.2zm-37.9 2.5c-.3 1-.5.4-.5-1.2 0-1.7.2-2.4.5-1.8.2.7.2 2.1 0 3zm36.3-.7c0 .5-.6 1-1.4 1-.7 0-1.9.7-2.6 1.5-.7.8-1.7 1.5-2.3 1.5-.6 0 .4-1.1 2.3-2.5 3.8-2.8 4-2.9 4-1.5zm-20 .4c0 .2-.7.7-1.6 1-.8.3-1.2.2-.9-.4.6-1 2.5-1.4 2.5-.6zM577.9 410c0 1.4-.3 1.9-.6 1.2-.2-.6-.9-1.2-1.4-1.2-.4 0-.6.7-.3 1.5.4.8.1 1.5-.5 1.5-1.2 0-1.5-8.9-.4-12.9.5-2.1.8-1.8 1.9 2.5.7 2.7 1.3 6 1.3 7.4zm19.8-11.4c-.3.3-1.2.4-1.9.1-.8-.3-.5-.6.6-.6 1.1-.1 1.7.2 1.3.5zm-432.2 3.6c.2 1.3 1.4 6.3 2.5 11.1 1.1 4.9 2 9.3 2 9.8s-1.5.9-3.3.9c-3.7 0-3.9-.2-8.3-11.4-3.2-8-3.1-9.1 1.4-10.9 4.9-2.1 5.1-2.1 5.7.5zm451.1-1c.4.6.3.8-.4.4-.6-.3-1.3.2-1.6 1.2-.4 1-2.1 3.2-3.9 5-2.5 2.4-3.6 2.9-4.7 2.1-1.3-.9-1.3-1 .2-.6 1.7.6 5.3-2.5 4.1-3.6-.3-.4 0-.7.9-.7.8 0 2-1.1 2.6-2.5 1.3-2.8 1.8-3 2.8-1.3zm-36.2 5.8c.7 4.1-.8 2.1-1.8-2.5-.5-1.9-.4-2.6.2-2 .5.5 1.2 2.6 1.6 4.5zm9.3-2.8c-.3.8-.6.5-.6-.6-.1-1.1.2-1.7.5-1.3.3.3.4 1.2.1 1.9zm2.8-1.2c.3.5.1 1-.4 1-.6 0-1.1-.5-1.1-1 0-.6.2-1 .4-1 .3 0 .8.4 1.1 1zm-273.8 21c-1.9 3.6-4.3 8.7-5.3 11.4-1 2.7-2 4.4-2.2 3.8-.2-.8-.9-.9-2.3-.2-1.7 1-1.8.7-1.2-3.7.8-6.2 4.5-19.4 7.3-25.8l2.2-5 2.5 6.5 2.5 6.5-3.5 6.5zm272.7-16.5c.3.8.1 1.5-.4 1.5-.6 0-1-.7-1-1.5s.2-1.5.4-1.5.6.7 1 1.5zm.3 5.7c-.3.7-.5.2-.5-1.2s.2-1.9.5-1.3c.2.7.2 1.9 0 2.5zm-174.6-.9c-.6.8-.7 1.8-.3 2.2.4.5.1.5-.6.1-1-.6-1-1.1-.1-2.2.6-.8 1.4-1.4 1.6-1.4.3 0 0 .6-.6 1.3zm188.9-.9c0 .9-11.3 9.5-12 9.1-.8-.5-2.1-4.5-1.4-4.5.3 0 .8 1 1.3 2.1.7 2.1.9 2.1 4.4-1.3 2-2 3.8-3.4 4-3.2.2.3 1-.2 1.7-1.1 1.2-1.5 2-1.9 2-1.1zm-24 9c0 5.2-.6 4.3-1.3-1.8-.3-3-.1-4.3.4-3.5.5.8.9 3.2.9 5.3zm-166.4-4.1c.4.4-.4.7-1.9.7-3 0-3.8 1-4.4 5.6-.3 2.1 0 3.4.7 3.4.6 0 .8-.5.4-1.2-.5-.7-.2-.9.7-.6 1.1.4 1.6-.2 1.7-2.4.1-1.7-.2-2.7-.7-2.3-.6.3-.8 1.2-.4 2 .3.8.1 1.5-.5 1.5-1.1 0-1-2.5.1-3.7 1.7-1.7 3.5-1.1 3 1-.3 1.2-.5 2.9-.5 3.9.1.9-1 1.9-2.2 2.2-2.4.6-2.7 2.4-1.2 5.8 1.2 2.7 2.3 2.2 3.1-1.5.7-2.9.9-2.6 1.6 3.3.5 3.6 1.7 11.3 2.7 17.1 1.6 9.4 1.7 10.7.3 11.9-1.3 1.2-1.4 1.2-.8-.2.4-1.2.2-1.5-.9-1.1-.8.3-1.3 1.1-1 1.8.5 1.4-1.2 3.5-2.9 3.5-.5 0-.1-.7.9-1.5 1.1-.8 1.5-1.5.9-1.5s-3 1.8-5.4 4.1c-2.4 2.2-3.4 3.5-2.2 2.9 1.2-.5 2.7-1.8 3.2-2.8.6-.9 1.1-1.2 1.1-.7 0 1.7-7.9 9-8.7 8-.5-.4-.2-1 .5-1.2.6-.3 1.2-1 1.2-1.6-.1-.7-.8-.3-1.8.8-.9 1.1-4.1 4-7 6.3-3 2.6-5.2 5.2-5.2 6.4 0 1 .4 1.7 1 1.3.5-.3.7-1.2.3-2.1-.3-.9 0-1.4.8-1.2.7.2 1.3-.2 1.4-.9 0-.6.3-1.5.7-1.9 1.9-1.8-.4 4.2-2.3 6.3-1.9 2-3.2 2.3-8.8 2.2-4.6 0-6-.3-4.6-.9 1.8-.8 1.7-.9-.8-.9-1.6-.1-2.6.3-2.3.8.4.5-.3.7-1.4.4-1.7-.5-1.2-1.4 4.3-7.7 6-6.7 17.5-20.7 20.7-25.1.8-1.1-4.3 3.7-11.3 10.7-7.1 7-12.6 13.2-12.2 13.8.4.6-.4 1-1.9 1-2.4 0-4.1 1.4-4.1 3.4 0 .5-.6 1.1-1.4 1.4-1.3.4-1.2-1.1.5-8.3.5-2 .5-2-1-.1-.9 1.1-1.6 2.9-1.6 4 0 4.5-3 5.5-5.5 1.9-1.1-1.6-1.2-2.4-.4-2.9.8-.4.9-.3.5.4s-.3 1.2.3 1.2c.5 0 .9-.9.8-1.9-.1-1.6-.5-1.8-1.9-1-1.9 1-2.5 3.9-.8 3.9.5 0 .7.7.4 1.5-.4.9 0 1.5.7 1.6.8.1 3.2.3 5.4.4 2.2.2 4.6-.1 5.5-.8 1.1-.8 1.1-.6-.1.7-1.5 1.6-2.7 1.7-9.5 1.1-5.9-.6-7.3-1-5.6-1.6 1.2-.5 2.2-1.1 2.2-1.3 0-.3-.7-.3-1.6.1-1.4.5-1.4.2 0-3.2 1.8-4.2 7.1-13.2 12.7-21.6 4.9-7.2 42.5-45.8 44.4-45.5.8.1 1.8.5 2.1.9zm-52 16.4c-.2.2-.8-1-1.4-2.6-1.5-4.3-2.2-3.8-1.8 1.1.3 2.6.1 3.6-.4 2.8-.6-.9-.9.3-.8 3.5 0 2.8-.5 7.7-1.1 11-.9 5-.8 6.6.5 9.3.9 1.9 1.3 3.6 1 3.9-.3.3-.8-.6-1.2-2.1-.3-1.4-1.1-2.3-1.6-2-1 .6-.2-11.1 1-15.1.3-1.1.6-3.6.7-5.5 0-1.9.2-6.7.3-10.5l.3-7 2.5 6.4c1.3 3.5 2.2 6.6 2 6.8zM173.3 429c.7 0 2.4-.7 4-1.4 2.4-1.3 2.7-1.3 2.7 0 0 .8 1.1 3.5 2.4 5.9 2 3.8 2.2 5.1 1.5 9.6-.5 2.8-1 5.3-1.3 5.6-.7.7-12-2.8-13.6-4.3-1-1-1.7-4.2-2-9.4-.5-7.4-.4-7.9 1.5-8.2 1.1-.2 2.4.2 2.8.9.4.7 1.3 1.3 2 1.3zm239-.5c-.3.9-.8 1.4-1 1.1-.3-.3-.2-.9.2-1.5.9-1.6 1.5-1.3.8.4zm-45 10.9c1.4 2.9 3.1 7.3 3.6 9.6.9 4.3.9 4.4-5.7 13.6-3.6 5.1-6.8 9.1-7.1 8.9-.2-.3.4-1.5 1.5-2.7 1.6-1.9 1.6-2 .1-.9-.9.8-2.1 1.1-2.5.7-.4-.4.1-1.2 1.1-1.7.9-.6 1.7-1.7 1.7-2.5s.5-1.2 1-.9c.6.4.7 1.2.4 1.8-.5.8-.2.7.7-.1 1.1-1 1.1-1.6.1-3.3-.8-1.2-1.1-2.4-.8-2.7.3-.3.6 0 .6.6 0 .7.5 1.2 1.1 1.2.5 0 .7-.5.4-1-.4-.6-.7-3.1-.7-5.5 0-2.5-.4-4.7-.9-5.1-1.5-.9-1-2.4.6-1.8 1.1.5 1.5-.1 1.5-1.9 0-3.3-1-5.8-2.1-5.2-.4.3-.2-.7.6-2.2 1.1-2.1 1.2-2.9.2-3.5-.9-.5-.7-.8.4-.8.9 0 2.7 2.2 4.2 5.4zm-177.6 7.3c-.3 1-.5.4-.5-1.2 0-1.7.2-2.4.5-1.8.2.7.2 2.1 0 3zm171-1.5c-.3.8-.6.5-.6-.6-.1-1.1.2-1.7.5-1.3.3.3.4 1.2.1 1.9zm216-.2c.1 1.1-.2 2.2-.8 2.5-.5.4-.9-.5-.9-1.9 0-3 1.5-3.5 1.7-.6zm9.8 0c1.1.5 1.4.9.8.9-.7.1-1.3.8-1.3 1.7 0 .8.4 1.3.9 1 .5-.3 1.4.1 2 .8.8 1 .9 1.6.1 2.1-.5.3-1-.2-1.1-1.2 0-1.2-.6-.7-1.7 1.5-1.6 3.2-1.6 3.5.3 4.8 1 .8 2.6 1.4 3.4 1.3 1.1 0 1.2-.2.4-.6-1.5-.5-1.8-4.3-.4-4.3 1.6 0 6.1 6.8 5.5 8.4-.5 1.2-1 1.3-3 .4-1.3-.6-2.1-1.5-1.8-1.9.3-.5-.3-.9-1.3-.9-1.7-.1-5.8-2-6.5-3-.1-.3.5-1.6 1.5-3 2.1-3 2.2-4.1.2-3.4-.8.4-1.5.1-1.5-.6 0-.6.5-.8 1.1-.5 1.3.9.8-2.7-.6-3.7s.4-.9 3 .2zm-3.5 1.9c0 .6-.5 1.3-1 1.6-.6.4-.8 1.1-.5 1.6.4.5-.1.9-1.1.9-1.4 0-1.4-.2-.3-1.6 1-1.3 1-1.7-.2-2.5-1.1-.7-.9-.9.9-.9 1.2 0 2.2.4 2.2.9zm-223.3 3.3c-.3.8-.6.5-.6-.6-.1-1.1.2-1.7.5-1.3.3.3.4 1.2.1 1.9zm-175.4 2.7c3 1.7 3.2 2.4 1.6 8.7-1 3.9-2.9 6.1-2.9 3.3 0-.5-.5-.7-1-.4-1.7 1.1-4.8-.5-4.5-2.3.1-.9 0-1.1-.2-.5-.6 1.8-3 1.6-3.7-.3-.8-2-.8-6.2 0-9.1.5-1.8 1.1-2.1 4.2-1.6 2.1.3 4.9 1.3 6.5 2.2zm177.4-.7c-.3.8-.6.5-.6-.6-.1-1.1.2-1.7.5-1.3.3.3.4 1.2.1 1.9zm213.3 1.4c0-.6 1.5.4 3.3 2 3.3 3.1 5.6 4.8 11.5 8.6 4.7 3 2.8 4.1-6.1 3.6-4.2-.2-7.3 0-7.1.4.3.5.1.8-.5.8-.5 0-1-.8-.9-1.8 0-.9-.3-3.8-.7-6.5-.7-4.2-.6-4.7.9-4.1 1.9.7 2.1 2.1.4 2.7-.7.2-.9.8-.5 1.3s1.2.3 1.6-.4c.4-.8 1.5-1 2.6-.6 1.6.7 1.6.5-.2-1.3-1.2-1.2-3-2.4-4.2-2.8-1.2-.3-2.1-1.4-2.1-2.3 0-1.5.2-1.5 1-.2.5.8 1 1.1 1 .6zm6-.1c1.6 1.9.1 1.9-2.4 0-1.6-1.2-1.7-1.5-.4-1.5.8 0 2.1.7 2.8 1.5zm-220.2 2.6c-.3.8-.7.3-1.1-1-.4-1.7-.3-2.1.5-1.3.5.5.8 1.6.6 2.3zm-3.7 8.9c.6 0 .7-.5.3-1.2-.4-.7-.3-.8.5-.4 1.4.9.5 2.6-1.5 2.6-.9 0-1.4-1-1.3-3.3.2-3 .2-3 .6-.5.2 1.6.9 2.8 1.4 2.8zm240.2-2.5c-.3.9-.8 1.4-1 1.1-.3-.3-.2-.9.2-1.5.9-1.6 1.5-1.3.8.4zm-240.4 9c0 .5-.4.3-.9-.5s-.9-2.2-.9-3c0-1.6 1.7 1.6 1.8 3.5zm64.7 2.2c-.3.4-.1 1.2.5 2 .6.7.9 1.3.5 1.3-1.1 0-1.4.2-8.7 7-4.1 3.8-7.6 6.6-7.9 6.4-.3-.3.4-1.2 1.5-2.1 1.1-.8 1.9-1.9 1.8-2.4-.2-.5.2-.8.8-.7.6.2 1.3-1.1 1.6-2.7l.4-3-2.6 2.8c-1.4 1.5-2.3 3.2-1.9 3.8.4.7 0 .9-1.2.5-1.1-.3-2.6-.1-3.4.5-1.3.9-1.2 1 .3.5.9-.3 1.7-.1 1.7.4 0 .6-.7 1-1.6 1-.8 0-1.2.4-.9 1 .4.6-.7 1-2.7 1l-3.3-.1 5.5-4.9c3-2.7 5.8-5 6.2-5 .5 0 3.4-2.4 6.5-5.4 4.7-4.4 6-5.2 6.6-4 .5.9.6 1.8.3 2.1zm-229.5-.6c.8 1.7.8 2.3-.2 2.9-.9.6-.8 1.2.6 2.7 1.8 1.7 1.8 1.8.1 2.1-2.3.5-2.6.1-3.6-4.4-1.3-5.5.8-7.6 3.1-3.3zm190.9.2c0 .2-1.7 1.9-3.7 3.8l-3.8 3.4 3.4-3.8c3.3-3.4 4.1-4.2 4.1-3.4zm16.4 6.1c-3.8 3.2-4.5 2.4-.9-.9 1.5-1.5 2.9-2.4 3.2-2.1.3.3-.8 1.6-2.3 3zm-45.1-.4c-.3 1.1-.7 2-.9 2-.2 0-.4-.9-.4-2s.4-2 .9-2 .7.9.4 2zm69.6 5.4c.9 3.5.9 3.7-.7 2.4-2.7-2.3-4.6-3.3-3.8-1.9.4.6.4 1-.1.9-.4-.2-.9.1-1.1.7-.2.5.1 1.1.7 1.3.6.2 1.1-.1 1.1-.7s.5-1.1 1.1-1.1c.6 0 .9.6.7 1.2-.3.7-2.5 1.5-5.1 1.8-3.7.5-4.4.3-3.5-.7.5-.7 1.4-1 1.9-.7.5.3.9.1.9-.5 0-1.3 6.4-8.4 6.7-7.4.1.5.6 2.5 1.2 4.7zm224.8-1.2c-.3.8-.6.5-.6-.6-.1-1.1.2-1.7.5-1.3.3.3.4 1.2.1 1.9zm-275.3 1c-.3.4-1.2.8-2 .8s-1.3-.4-1-.8c.3-.5 1.2-.9 2-.9s1.3.4 1 .9zm273.7 9c-2.5 13.6-4.4 20.7-5.4 20.1-.6-.3-.7-.1-.3.6 1.7 2.6-3.4 19.2-10 32.8-6.8 13.8-11 19.2-11.7 14.6 0-.5-.6-1.4-1.3-2.1-1.1-1-.5-2.4 3.2-7.5 9-12.1 19.1-36.5 24-57.9 2.1-9.2 3.2-9.6 1.5-.6zm-267.1.4c19.7.6 32.7-.1 42.3-2.2 2.7-.6 2.8-.6 1.5 1.5-.8 1.4-1 2.4-.3 2.9.6.4 1 2.9 1 5.7.1 6.5 1.2 10.5 3 10.5.7 0 1.7.5 2.1 1.1.5.8-.1 1-1.9.7-1.5-.3-2.8-.2-2.9.3-.2.4-4.9 1-10.5 1.4-9.1.7-10.3.6-10.3-.9 0-1.1-.9-1.6-2.7-1.7-1.6 0-3.5-.2-4.3-.3-.8-.2-8-.6-16-1-12.1-.6-15-.4-17.4.9-2.6 1.4-11.1 1.3-12.6-.2-.9-.8 0-17.6 1-18.8.6-.7.7-1.5.4-1.8-.4-.4.9-.2 2.7.3 1.9.6 13.1 1.3 24.9 1.6zm46 1c0 .8-.4 1.2-1 .9-.5-.3-1-1-1-1.6 0-.5.5-.9 1-.9.6 0 1 .7 1 1.6zm2.7 15.9c-.2.5-.7-.7-1.1-2.8-.4-2.1-1.1-3.5-1.5-3.3-.7.5-.8-2.6-.2-6.4.2-.8.9 1.4 1.7 5 .8 3.5 1.3 6.9 1.1 7.5zM224.5 505c.3.5-.1 1-1 1s-1.3-.5-1-1c.3-.6.8-1 1-1 .2 0 .7.4 1 1zm-7.9 4.6c-2.7 1.5-2.8 1.9-2.3 6.2.3 2.6.9 6.2 1.3 8.1.6 2.6.4 3.3-.7 2.9-1.5-.5-5.2-15.9-4.1-17 .7-.6 4.2-1.4 7.2-1.6.8-.1.2.6-1.4 1.4zm-19.3 0c1 1.1-1.3 4.5-2.5 3.8-.8-.5-.9.5-.5 3.4.4 2.3 1 6 1.3 8.2.4 2.5.3 4-.4 4-1.2 0-4.2-12.2-4.2-16.9 0-2.7.3-3.1 2.8-3.1 1.6 0 3.2.3 3.5.6zm11.7 2c0 1.2-.7 1.5-3 1.2-1.7-.3-3.3-.1-3.6.4-.3.5-1 .5-1.6.2-.8-.5-.9-.1-.4 1.1 1 2.6 2 14.1 1.2 13.3-1.5-1.3-3.7-12.1-3.1-14.9.6-2.7 1-2.9 5.6-2.9 3.8 0 4.9.3 4.9 1.6zm172.5 2.5c5 .1 10.4.4 12.1.6 3.1.5 3.2.7 2.3 3.7-.5 1.7-.6 7.5-.3 12.9.6 7.9.4 10.1-.7 10.8-1.6 1-15 1.2-23.7.3l-6.1-.7-.5-4.1c-.3-2.2-.7-8.5-.8-13.8-.3-10.7-.1-11 5.7-10.2 1.7.2 7.1.4 12 .5zm-31.1 28c-.8 1.4-3.4 1-3.4-.5 0-.9.7-1.2 2-.9 1.1.3 1.7.9 1.4 1.4zm6.6.8c0 .4 1.1.6 2.5.3 1.7-.3 2.5 0 2.5 1 0 2 4.6 3.4 12.5 3.7 3.9.1 11.4 1.4 16.7 2.8 10.5 2.7 16.7 2.8 8.3.1-2.9-.9-4.1-1.6-2.8-1.7 3.2-.1 7.3-2.2 7.3-3.7s4-2.1 20.2-2.9l11.7-.6.7 2.6c.6 2.5-1.2 5.3-2.5 3.9-.3-.3.1-.9.8-1.4.9-.5 1.1-1.5.6-2.6-.5-1.4-.9-1.5-1.2-.5-.5 1.1-.7 1.1-1.4 0-.6-.9-.9.1-.9 2.9 0 2.6-.4 4.1-1 3.7-.6-.4-1 .5-1 1.9 0 1.6-.6 2.6-1.5 2.6-.8 0-2 .9-2.7 2-1.5 2.3-3 2.7-2.2.6.3-.8 0-1.7-.7-2.2-.8-.4-1-.3-.5.5.4.6.2 2-.5 2.9-.7.9-1 1.4-.5 1 .5-.4 2.2 0 3.7.8 2.3 1.2 3.7 1.2 6.9.4 3.4-.9 4-1.5 4.1-3.8.2-2.5.2-2.5.6-.4.3 1.5 1 2.2 1.9 1.8.8-.3 1.4-.2 1.4.3 0 .9-13.4 5.1-16.2 5.1-1 0-1.8-.5-1.8-1 0-.6 1.2-.8 2.8-.5 2.6.5 2.6.5.4-.6-1.7-.9-2.8-.9-4.8 0-1.5.6-2.9.9-3.2.7-.3-.3.3-.8 1.2-1.2 2.7-1.1 1.8-2-2.1-2.1-2.8 0-3.3.1-1.8.7 1.6.6 1.1 1-2.7 2-2.7.7-4.8 1.7-4.8 2.2 0 .5.4.7.9.4.5-.4 2-.1 3.3.4 1.6.7-4 .9-19.1.5-13.8-.3-21.8-.9-22.5-1.6-.8-.8 1-.9 6.7-.4 5.4.5 7.7.4 7.7-.4 0-.6-.5-1.1-1.2-1.1-.6 0-.8-.3-.5-.6.4-.4 1.4-.1 2.2.6 1.2 1 1.3 1.5.4 2.1-.7.4 3.1.8 8.4.8 8.2 0 9.5-.2 9-1.6-.3-.8 0-1.8.6-2.3.7-.4-1.6-.7-5.1-.7-4.3 0-5 .2-2 .4 4.4.4 5.6 1.7 2.2 2.6-1.1.3-2 .2-2-.3 0-.4-1.1-.7-2.5-.6-1.4 0-2.5.4-2.5.8 0 .5-.7.8-1.5.8-2.1 0-1.9-2.8.3-3.3.9-.2-.1-.4-2.3-.4-2.2 0-8-.2-13-.6-4.9-.3-8.2-.3-7.2-.1 2.3.7 2.2 2.3-.2 1.7-1-.3-2.2.1-2.6.7-.5.9-.1 1 1.4.5 1.3-.4 2.1-.2 2.1.5s-1.8 1-5 .9c-2.7-.2-5-.7-5-1.2s.6-.7 1.3-.4c.7.3 2.1-.1 3.2-.9 1-.8 1.5-1.4.9-1.4-.5 0-.2-.5.6-1.1 1.3-.9 1.3-1 0-.8-2.4.3-6.8-1.2-8.1-2.7-.8-1-.8-1.4 0-1.4.6 0 1.1.4 1.1 1 0 .5.4 1 .9 1s1.1-1.5 1.3-3.4c.2-1.9.1-3.3-.3-3-.4.2-1 0-1.3-.5-.4-.5.2-1.2 1.1-1.4 1.1-.3.5-.5-1.2-.6-2.3-.1-2.7-.3-1.5-1.1 1.1-.7 1.1-1 .2-1-.7 0-1.1-.4-.8-.8.2-.4-.5-.9-1.6-.9-1.6-.2-1.8.1-.9 1 .6.6 1.1 1.8 1 2.6 0 1.1-.2 1.2-.6.3-.9-2.2-2.3-1.3-2.4 1.5v2.8l-1.2-2.3c-.7-1.6-.7-2.6-.1-3 .6-.4 1.3-1.5 1.7-2.5.6-1.7 5.7-2.5 5.7-.8zm-8.9 6.9c.1 4.2 1.6 10 1.8 6.8.1-1.2.6-1.6 1.6-1.2 2.4.9 1.7-1.4-.7-2.5-2.1-.8-2-.9.5-.4 1.6.3 2.6.2 2.3-.3-.2-.4 0-1.4.5-2.2.6-1.1.8-.5.4 1.8-.3 1.8-.2 3.8.2 4.5.4.7.8 2.5.8 4 0 2.8-.1 2.8-4.5 2.2-5.7-.9-5.7-.9-5.5-4.5.1-1.6.2-5.3.3-8.1.2-5.8 2.1-5.9 2.3-.1zm89.5 1.9c-1 1-1.9-.5-1-1.8.6-1.1.8-1.1 1.2 0 .2.7.1 1.5-.2 1.8zm-80.2-.1c.3.8.2 1.2-.4.9-.6-.3-1-1-1-1.6 0-1.4.7-1.1 1.4.7zm77.3 4.6c-.2 1.3-.4.5-.4-1.7-.1-2.2.1-3.2.4-2.3.2 1 .2 2.8 0 4zm4 0c-.3.7-.5.2-.5-1.2s.2-1.9.5-1.3c.2.7.2 1.9 0 2.5zm-77.6 3.6c-.7.2-1.8-.1-2.3-.6-.8-.8-.4-.9 1.3-.5 1.3.4 1.8.8 1 1.1zm69.4.3c-1 1.5-2.5 1-1.9-.6.4-.8 1-1.2 1.5-.9.5.3.7 1 .4 1.5zm-56.5.9c0 .5-.7.7-1.5.4-.8-.4-1.5-.8-1.5-1 0-.2.7-.4 1.5-.4s1.5.4 1.5 1zm66.7 3.2c-.3.8-.6.5-.6-.6-.1-1.1.2-1.7.5-1.3.3.3.4 1.2.1 1.9zm-22.2-.2l3 .8H418c-1.9 0-4.6-.4-6-.8-2.4-.8-2.4-.8.5-.8 1.7 0 4.4.4 6 .8zm20 1.1c-.3 1.2-.7 2.4-1 2.7-.3.3-.3-.5-.1-1.9.6-3 .5-2.9 1-2.9.3 0 .3 1 .1 2.1zm-2.8 1.1c0 .7.2 1.8.4 2.4.2.7 0 1.1-.6 1-.5 0-.9-.6-.7-1.3.2-.9-.3-.9-2.2 0-2.1 1-2.2 1.3-.7 2.4 1.4 1.1 1.4 1.3.1 1.4-.8.1-2.2.3-3 .4-.8.1-2.4.3-3.5.4-1.7.1-1.8.3-.5 1.4.8.7 1.6 2.5 1.7 4.2.2 2.9 0 2.6-1.9-2.5-.7-1.8-1.1-2.1-1.7-1.1-1 1.6-2.2 1.6-3.2 0-.4-.8-1.1-1.1-1.4-.7-1 1 2.5 3.7 4 3.1 1.1-.4 1.3-.1.8 1.3-.4 1.2-.3 1.5.5 1 1.6-.9 1.5.7 0 2.2-.9.9-.9 1.5 0 2.4.7.7 1.2.8 1.2.2 0-.5.9-1 1.9-1 1.1 0 1.7.5 1.4 1-.4.5.1.7 1.2.2 1.6-.6 1.6-.4.4 1-.8 1-1.5 1.2-1.7.5-.2-.6-1-1.1-1.7-1.1-1.1 0-1.1.6.3 3l1.7 2.9 1.2-2.2c.7-1.2 1.2-1.8 1.3-1.4 0 .5-.5 1.7-1 2.8-.7 1.1-.7 1.9-.1 1.9.5 0 1.2-.6 1.4-1.3.3-.6.6-.1.6 1.2.1 1.6.5 2.1 1.6 1.8.8-.4 1.7-.2 2 .3.3.5-.5 1.2-1.8 1.5l-2.5.7 2.4 2.6c1.4 1.4 2.3 3 2.1 3.6-.3.6.2 1.9 1 2.8.8.9 1.3 2.2 1.1 2.8-.4 1.2-9.1-13.3-8.8-14.6.1-.4-.2-1-.7-1.3-1.3-1-8.6-12.4-7.4-11.7.7.5.8.1.5-.9-.4-.9-.9-1.4-1.1-1.1-.3.3-1.4-.5-2.3-1.7-1.8-2.1-1.8-2.2.3-3.4 2.7-1.5 4.8-1.7 2.7-.2-1.2.8-1.2 1 .4.7 1.1-.2 1.8-.7 1.7-1.3-.4-1.4 3.2-2.4 5.2-1.3 1 .5 2.1.7 2.4.4.3-.3-.2-.8-1.1-1.2-1.4-.5-1-1.1 2.1-2.9 2.1-1.3 3.8-2.4 3.9-2.4 0-.1.1.5.1 1.1zm6.8 3.4c.3 2.1.2 4.1-.4 4.7-.7.7-.8.4-.5-.9.3-1.1 0-3-.6-4.4-1-2.4-1-2.4-.6.5.3 1.7.1 3.7-.3 4.3-.5.8-.8-.2-.9-2.4-.2-6.3 2.2-7.6 3.3-1.8zm-94 .5c2.8.6 3.1 5.6.9 15.2-1.2 5.3-2.1 7.4-2.8 6.7-.7-.7-.6-1.4.2-2.2 1.7-1.7 1.5-4.8-.3-4.8-.8 0-1.5.4-1.5 1 0 .5.5 1 1.1 1 .7 0 .5 1-.5 2.5-1.8 2.7-2.1 3.9-.7 3.1 1.6-1.1 1.9 2 .6 7.5-.6 3-1.4 4.7-1.7 3.9-.3-.8-.4-.2-.2 1.4.4 3.2-1.1 12.4-3.2 19.6l-1.3 4.5.4-4c1.2-12.3 1.9-16.5 2.7-16.5.5 0 .7-1.3.3-2.9-.3-1.5-.1-7.5.4-13.2.6-5.7 1.1-12.2 1.3-14.4.1-3.2.5-4.1 2.1-4.1s1.6.2.3 1.2c-2.3 1.7-1.9 2.7.5 1.3 1.9-1 2-.9 1.4 1.3-1 3.2-1.5 3.5-2.5 1.8-.9-1.3-1-1.3-1 0 0 1.7 2 5.1 2 3.5 0-.6.5-.3 1 .5.7 1.1 1 .5 1.1-2.5.1-2.2.3-4.7.4-5.5.1-.8-.4-2.1-.9-2.9-.8-1.1-.8-1.3.2-.7.6.4 1.2.2 1.2-.3 0-.6-1.1-1.1-2.5-1.1-1.7 0-2.5-.5-2.5-1.8 0-1.1.3-1.3.8-.6.4.7 1.6 1.3 2.7 1.5zm9.8-1.4c-.7.2-1.3 1.2-1.3 2 0 1.4.3 1.4 1.9-.1 1.1-1 2.5-1.5 3-1.1 1.6.9 1.3 2.2-.5 2.9-1.2.5-1.5.2-1-1.1.6-1.5.4-1.5-1.2.2-1.8 1.8-1.8 2.1-.5 3.2.9.7 1.9 1.4 2.3 1.5.4.2 2.2 6.1 3.9 13.3 3.4 14.1 11.2 39.7 11.8 39.1.3-.2-.5-3.9-1.7-8.1-1.2-4.3-1.9-8.6-1.7-9.6.3-1.1.1-1.7-.4-1.3-.5.3-.9-.1-.9-1 0-.8-.3-2.2-.7-3.2-.4-1.2-.3-1.5.5-1 .7.4 1.2.1 1.2-.8s-.6-1.3-1.3-1c-1.7.6-4.3-9.1-3-10.9 1.6-2 1.4-5.7-.2-5-1.1.4-1.2 1-.4 2.4.6 1.2.6 1.9 0 1.9-.5 0-1.2-.8-1.5-1.8-.9-3.1-1.8-7.6-2-10.2-.1-3-1.6-4.9-3.2-4.3-.7.2-1.4.1-1.7-.4-.3-.4.5-.9 1.7-.9 1.5-.1 2.9.8 4 2.6 1.8 3.1 2.2 5.4.5 3-.8-1.2-.9-1.1-.6.5.2 1.1.9 1.9 1.6 1.7.9-.2.9.3.2 1.7-.8 1.4-.7 2 .4 2.4.9.4 1.2.1.8-.9-.3-.7-.3-1.4 0-1.4s4.3 7.2 8.8 15.9c4.6 8.8 9.1 17 10.2 18.3 1.5 1.9 1.5 1.6-.3-2.1-3.8-7.6-5.1-12.2-4-14 .7-1.2.9-1.3 1-.2 0 .8.2 1.2.5.9.7-.6-3.5-10-4.9-10.9-.5-.4-.5-1.2-.1-1.9.6-.9.4-1.1-.5-.5-1 .6-1.2.4-.7-.8.4-1.1.1-1.7-.8-1.7-1.7 0-8.5-6.3-8.5-7.9 0-.7.4-1 .9-.6.5.3 1.2.1 1.6-.5.3-.5-.2-1-1.2-1-1.8 0-5.9-5.8-4.8-6.8.3-.3.5-.1.5.4s4.7.8 10.9.6l10.9-.4 1.1 4.9c.7 2.6 1.4 7 1.6 9.7.2 2.7.8 5.3 1.4 5.9.7.7.8.2.5-1.4l-.5-2.4 1.1 2.5c.8 1.7.8 2.6.1 2.8-.6.2-1.1.8-1.1 1.4 0 .5.6.8 1.3.5.8-.2 2.8 4.4 5.9 14.2 5.5 17 5.1 15.1 3.7 15.1-.5 0-.7-.5-.3-1.2.5-.7.3-.8-.5-.3-.9.5-1.2 0-.9-1.5.2-1.4-.3-2.5-1.2-2.7-.9-.3-1.1-.1-.5.4.6.4 1.1 1.7 1.2 2.8.2 2.5 5 17.2 6.7 20.5.7 1.4 1.8 2.4 2.5 2.2.7-.1 1.1.3.8 1-.2.7-1 1.2-1.6 1.1-1.5-.4-1.3.7.4 3.7l1.5 2.5-.4-2.8c-.3-1.5 0-2.7.5-2.7s.9.4.9 1c0 .5 1.8 5.1 4 10.2l4 9.2-3.3 3.4c-5.1 5.4-16.6 13.2-18.4 12.5-1.1-.4-1.4-.2-.9.5.5.9-3.9 4.2-5.9 4.3-.2 0-2.8 1.1-5.7 2.4-2.8 1.3-5.6 2.1-6.1 1.8-.5-.3-.2-1 .7-1.5 1.7-.9 1.3-2.8-.5-2.8-.6 0-.8.4-.4.9.3.5.1 1.2-.4 1.6-.6.3-.8 1.2-.4 2 .3.8 0 1.5-.7 1.5s-1-.8-.7-2c.3-1 .1-2-.4-2.2-1.2-.4-3-9.7-12.3-63.8-10.4-60.1-10-57-7.3-56.9 1.2 0 1.6.3 1 .6zm76 5.8c-.3.9-.8 1.4-1 1.1-.3-.3-.2-.9.2-1.5.9-1.6 1.5-1.3.8.4zm-137.8 8.1c-1.9 8.3-8.7 27.1-13.8 38-3.2 7-4.7 9.3-6.4 9.7-1.3.2-2.3-.1-2.4-.7 0-.6-.4-.2-.9.9s-.9 1.5-.9.9c-.1-.6 2.8-7.1 6.3-14.5s9-20 12.2-28.1c5.9-14.9 8.6-17.7 5.9-6.2zm134.8-7.1c.9 2.2-.8 2.6-2.1.4-1-1.5-1-1.9.2-1.9.8 0 1.6.7 1.9 1.5zm-20 3.4c2.1 3.2 2.3 4 1.2 4.5-.8.3-1.5 1.1-1.5 1.7 0 .8.5.7 1.6-.2 1.4-1.2 1.9-1 3.9 1.5 1.3 1.6 2.1 3.6 1.7 4.4-.3 1-.1 1.3.6.8.6-.3 1.3-.2 1.7.4.3.6-.1 1.3-.9 1.6-.9.3-1.3 1-1 1.6.4.5 1.1.5 1.9-.2.9-.7 1.6-.6 2.5.5.7.8 1 1.5.8 1.5-.3 0 1.2 1.8 3.3 4.1 2.4 2.6 3.6 4.7 3.2 5.7-.4 1-.2 1.4.2.9 1.3-1.1 4.4 2.3 3.8 4.1-.4.9-.2 1.3.4.9 1.9-1.2 3.6 1.9 2.3 4-.9 1.4-1 1.4-.7.2.3-1-.5-2.4-2.3-3.7l-2.8-2.1-.5 2.8c-.3 1.5-.3 3.7-.1 4.8.7 2.6-1.2 6.3-3.1 6.3-.7 0-1.7.5-2 1-1 1.6.5 5 2.2 5 1.1 0 1.3.5.8 1.7-.5 1-.8 2.5-.7 3.3.1 3.7.7 6 1.5 6 .5 0 .5 1 .2 2.1-.5 1.5-.4 1.9.4 1.5 1.2-.8 1.5-3.9.5-4.9-1.2-1.2-1.3-6.7-.1-6 .6.4.8 0 .5-.9-.4-.8 0-1.5.8-1.5.7 0 1.1.4.8.9-.3.5 0 1.5.6 2.3.6.8 1 2.7.9 4.2-.2 1.5.3 3.7 1 4.8 1.2 1.9 1.2 1.9.8-.3-.3-1.2-.1-2.2.4-2.2s.9.4.9 1c0 .5.7 1 1.5 1s1.5-.5 1.5-1.1c0-.7 3-.8 9.5-.3 8.9.6 9.5.5 9.6-1.2 0-1.8.1-1.8.9.1 1.3 3.1 1.2 3.3-1.5 3-1.4-.1-2.5 0-2.5.2 0 .7 3.5 5.8 4.5 6.5.6.5.5 1.1-.4 1.7-.9.6-1 1.1-.2 1.5.6.4.9 1.2.6 1.7-.3.5.1.6.9.3.9-.3 1.6-.1 1.6.5s-.5 1.1-1.1 1.1c-.7 0-.9.9-.5 2.2 1 3.2 1.4 5.5 2.3 11.3.7 4.7.7 4.8 1.5 2 .5-2.2.6-1.7.3 2-.4 5.3 2 20.2 3.6 22.1.5.6.7 1.9.3 2.8-.4 1-.1 1.6.9 1.6 1.4 0 2.7-2.8 2.7-5.9 0-1-.3-1.1-1.4-.2-1 .8-1.6.9-2.1.1-.3-.5.1-1 .9-1s1.6-.8 1.8-1.8c.7-3 2.7 8.3 2.3 12.4-.3 2.8-.3 3.2.3 1.4.6-1.9 1.1-.6 2.5 6.5 1.6 8 1.6 9.1.2 10.1-1.6 1.2-2.1 2.9-.5 1.9.6-.3 1-.1 1 .5 0 .7-.8.9-2 .5-2.5-.8-2.8 2.1-.5 5.1 1.7 2.3 1.9 3.8.3 2.8-.8-.5-.9 0-.4 1.7.4 1.3.9 3.8 1.1 5.6.4 3.5 2.4 7.9 2.5 5.4 0-1.2.3-1.2 1.2-.3 1.7 1.7 2.6 1.5 3.1-.6.3-1.2.5-1.1.6.6.1 1.7-.4 2.3-1.6 2.1-3.1-.3-3.6.1-2.4 1.5.7.8 2.1 1.2 3.1.9 1.5-.4 2 0 2 1.3 0 2.4-1.7 5.1-2.6 4.1-.4-.3-.2-1.3.4-2 .7-.8.9-1.7.6-2-.4-.3-1.5.4-2.5 1.6-1 1.2-1.8 1.7-1.9 1.1 0-.5.6-1.6 1.3-2.3 1-1.1.9-1.3-.5-.8-1.3.5-1.8.1-1.8-1 0-1-.7-3.6-1.6-6-1.4-3.6-1.9-4.1-3.4-3.3-1.6.8-2 .4-3-2.8-.7-2-2.3-6.5-3.6-9.9-1.3-3.4-2.4-6.5-2.4-7 .1-1.5 3.9 6.2 4 8 0 1 .4 1.5 1 1.2 1-.6-1-5.2-5.1-11.8l-1.9-3.2.6 4c1.1 7.5 5.3 24 9.3 37 2.3 7.1 4.1 13.2 4.1 13.6 0 .4-1.7.7-3.7.8-2.1 0-12.6 1.2-23.3 2.6-35 4.6-47.4 4.5-71.1-.7l-9.7-2.1-.6-5.1c-.4-2.8-.4-14.8-.2-26.6.3-11.8.6-30.7.7-42l.1-20.5 1.9 14c2.4 17.7 2.9 18.9 7.2 18.1 1.8-.3 5.7-1.9 8.8-3.4l5.6-2.9 1.3 5.1c.7 2.8 3.9 12.7 7 22.1 7.2 21.2 8.1 23.7 8.6 23.2.4-.4-5.4-20.8-11.2-39.5-3.2-10.6-3.6-12.5-2.3-13.2 2.4-1.4 14.1-10.9 19.3-15.7 4.8-4.6 4.8-4.6 3.7-8.5-1.1-3.5-1-4.1 1.4-7.3l2.7-3.4-3.2-10.2c-1.7-5.5-2.9-10.3-2.6-10.6.3-.3 1.2.2 2.1 1 1.4 1.5 1.8 1.4 3.7-.5 1.6-1.6 1.8-2.2.7-2.9-.8-.5-1-.9-.5-.9s.3-.6-.3-1.3c-.6-.8-.8-1.7-.4-2 .3-.4.1-.7-.5-.7-.8 0-.9-1.1-.5-3.2s.3-2.9-.5-2.5c-.6.5-.8-.1-.5-1.5.5-2.3.5-2.3-1-.3-1 1.3-1.6 1.5-1.7.7 0-.7-.7-2-1.5-2.8-.8-.9-1.5-2-1.5-2.6 0-.6.9 0 1.9 1.3 1.1 1.3 2.3 2.1 2.7 1.7.4-.4.2-1.4-.4-2.1-.7-.8-.9-1.6-.6-2 .3-.3.1-1.4-.6-2.4-1-1.6-1.1-1.6-.6-.1.3 1 .1 1.8-.5 1.8-.7 0-.9-1-.5-2.5.4-1.4.2-2.5-.4-2.5-.5 0-1-.9-1-1.9 0-2.1-2.9-8.2-4.4-9.2-.5-.4-.5-2-.1-3.5 1.2-4.2 1.2-4.8-.2-6.2-1.7-1.8-1.6-2.9.3-3.6 1.2-.5 1.4-.1.9 1.5-.5 1.6-.4 1.9.6 1.4.9-.6 1.1-.2.7 1.3-.3 1.2-.1 2.3.6 2.5.7.3.4 1-.7 1.9-1.7 1.2-1.7 1.6-.3 5 .9 2 2 3.9 2.6 4.3 1.3.8 1.3-.8-.1-2.2-1.2-1.2-2-6.3-1-6.3 1.1 0 3.6 10.2 3.3 12.8-.2 1.6.1 2.1.8 1.7.7-.4 1-.1.9.6-.1.8.1 2.1.4 2.9.4.8 1.8 5.5 3.3 10.5 1.5 4.9 3.7 12.6 5 17 1.4 4.4 3.8 12.9 5.6 18.8 1.7 5.9 3.2 10.6 3.5 10.4.2-.2-1-6.2-2.7-13.3-4.2-17.7-4.2-17.4-3.1-17.4.5 0 1.2.6 1.4 1.2.4 1 .6 1 .6 0 .1-.8-.7-1.6-1.7-1.9-1.2-.3-2.2-2.1-3-5.6-.6-2.9-2-8.4-3.1-12.2-1.4-5-1.7-7.3-.9-8 .8-.7.9-.5.5.6-.3.9-.1 2.2.3 3 .7 1 1.1.8 1.9-1.1.5-1.4 1-1.9 1-1.3.1.7.5 1.3 1.1 1.3 1.6 0 2.2-4.4.9-7.5-1-2.8-1.2-2.8-2-1-.5 1.3-.6.2-.3-3l.4-5-2 2.5c-2.1 2.7-2.6 4.5-1 3.5.6-.3.7.1.4.9-.3.9-1 1.3-1.5 1-.5-.3-.9 1-1 2.8-.1 3.1-.2 3.1-.8.8-.5-1.4-.4-2.9.1-3.4 1.2-1.5 1-2.6-.5-2-1.8.6-3.8-6.8-2.2-8.3.9-.8 1.2-.3 1.2 1.9 0 1.6.6 3.4 1.4 3.8 1.7 1.1 2.6.3 1.1-1.2-.8-.8-.7-1.5.4-2.5.8-.8 1.1-1.9.8-2.5-.4-.7-.2-.8.4-.4.7.4 1.2.2 1.2-.4 0-.7.7-.9 1.6-.6 1.5.6 1.5.4.3-1-.7-.9-1.5-1.2-1.7-.6-.2.6-1 .8-1.8.5-1-.3-1.4.2-1.5 1.8 0 1.3-.3 1.8-.6 1.1s0-2.5.5-4.1c.8-2.4.7-3.1-.5-3.5-2.6-1-3.7-.6-2 .6 1.4 1.2 1.4 1.5.2 3.2-1.3 1.7-1.5 1.8-1.5.3 0-.9.6-1.7 1.3-1.7.7 0 .5-.5-.5-1.1-1-.5-1.5-1.6-1.2-2.4.4-.8.2-1.5-.4-1.5-1.2 0-2.4 2.8-1.3 3.2 1 .4 2.3 6.8 1.3 6.8-1.4-.1-8.2-23.3-7.1-24.6.7-.8.7-1.4-.1-1.9-.5-.3-1-.1-1 .5 0 .7-.6.5-1.5-.4-1.9-1.8-1.9-3.6-.1-3.6.7 0 2.5 1.8 3.9 3.9zm38.3 28.9c-1.6 1.6-1.6 1.5-.7-1 .6-1.5.6-3.8.1-5.5l-.8-2.8-.2 3c-.2 2.9-.2 2.9-.9.5-.4-1.4-.3-3.2.3-4.2.7-1.2.3-2.5-1.7-5.2-1.5-1.9-2.3-3.7-1.8-4 .5-.4 1.2 0 1.5.6.3.7.4.4.3-.7-.2-1.2-.9-1.9-1.9-1.7-2 .3-3.2-1.4-3.4-5.1-.2-2.5 0-2.6 1.1-1 .8 1.1 1 2 .4 2.4-.6.3-.4 1.1.4 1.7 1.1 1 1.4.5 1.5-2.4.1-2.4-.2-3.3-1-2.8s-.9.2-.5-1c.4-1 .7-2.3.8-2.9 0-.7 1.9 5.9 4.1 14.6 3.8 14.9 3.9 16 2.4 17.5zm-43.4-27.9c2.5 5.8 3.1 8.8 1.9 9.5-.7.4-1 0-.9-1.1.3-3.6-.3-4.8-2.7-5.9-1.8-.9-2.5-.9-2.9 0-.3.7-.5.7-.5-.2-.1-.7.6-1.5 1.4-1.8.8-.4 1.5-1.3 1.5-2.1 0-1.3-.3-1.3-1.6-.3-2.4 2.1-3.7 5-2.6 6.3 1 1.3 3.6 19.7 2.8 20.4-.5.5-2.8-10-2.5-11.3.1-.5-.2-2-.8-3.4-1.8-4.4-2.6-9.3-1.4-8.6.6.4 1.1.2 1.1-.3 0-.6-.7-1.1-1.5-1.1-1.5 0-2.1-2.1-.8-3.3.3-.4 2.3-.7 4.2-.7 3.3 0 3.8.4 5.3 3.9zm-50.1 26.8l2.2 14.1-2.3 15c-1.4 8.8-2.8 15-3.4 14.9-1.5-.3-2.6 7.9-1.9 14.2.4 4.2.3 5.2-.7 4.6-1-.6-1.1.1-.6 3 .5 2.3.4 3.5-.2 3.1-.6-.4-.8 1-.5 3.6.4 2.7.3 3.9-.5 3.5-.7-.5-.9.7-.6 3.5.3 3.6.2 3.9-.6 1.8-.7-1.9-.8-1.2-.4 2.7.4 3.7.2 5.8-.9 7.3l-1.4 2.1-.6-2.1c-.3-1.1-.1-1.8.3-1.5 1.6 1 1.9-1.2.5-3.1-.8-1-1.5-4-1.5-6.6 0-2.6-.4-5-1-5.3-.5-.3-.9-3-.9-5.8.1-2.9.4-4 .6-2.5.5 3.4 2.3 3.7 2.3.4 0-3.5-1-5.6-2.6-5.6-.8 0-1.4-.4-1.4-.9 0-1.7 2-2.3 3.5-1.1 1.2 1 1.4.2 1.1-4.9-.2-3.3 0-5.8.4-5.6.7.5 2.3-11.9 2.4-19.3.1-2.3.5-4.2 1-4.2s.6-1.4.2-3.1c-.3-1.8-.2-3.7.4-4.4.5-.6 1.1-4.6 1.2-8.8.2-5.7.7-7.7 1.7-7.7.7 0 1.1-.6.8-1.3-1.5-3.9-1.7-5.6-.7-6.2.6-.4 1 .6 1 2.5 0 1.7.4 2.9.8 2.6 1-.6.3-7.6-.9-7.6-.4 0-1.2.7-1.7 1.6-2 3.6-2.3-.9-.5-8.7l1.8-8.1.7 4.9c.4 2.6 1.7 11.2 2.9 19zm35.6-21.5c-.3.8-.6.5-.6-.6-.1-1.1.2-1.7.5-1.3.3.3.4 1.2.1 1.9zm-14.8 2.5c.2.2-.3.3-1.1.3-.9 0-1.9-.7-2.2-1.6-.6-1.5-.4-1.5 1.1-.3 1 .7 2 1.5 2.2 1.6zm29.1-.1c0 .8-.4 1.2-1 .9-.5-.3-1-1-1-1.6 0-.5.5-.9 1-.9.6 0 1 .7 1 1.6zm36.3 2.5c.3 1.2.3 1.8 0 1.5-.4-.3-1.2-.1-1.9.5-1 .8-1.1.6-.1-1.5 1.4-3.1 1.3-3.1 2-.5zm-64.7 1.5c.2 2.8.1 2.8-1.5-.4-.9-1.7-.9-2.2.1-2.2.7 0 1.4 1.2 1.4 2.6zM404 590c0 .5-.4 1-1 1-.5 0-1-.5-1-1 0-.6.5-1 1-1 .6 0 1 .4 1 1zm5.7 2.2c-.3.8-.6.5-.6-.6-.1-1.1.2-1.7.5-1.3.3.3.4 1.2.1 1.9zM380 595c-1.2.8-1.2 1 .5 1s1.7.2.5 1c-1.3.8-1.2 1 .3 1 1.9 0 2.1.8.8 2.9-.7 1.1-1.3.7-2.4-2-1.5-3.6-1.3-4.9.6-4.9.7 0 .6.4-.3 1zm23.7 1.2c-.3.8-.6.5-.6-.6-.1-1.1.2-1.7.5-1.3.3.3.4 1.2.1 1.9zm3.3-.1c0 .5-.4.9-1 .9-.5 0-1-.7-1-1.6 0-.8.5-1.2 1-.9.6.3 1 1 1 1.6zm-1 2.8c0 .6-.4 1.3-1 1.6-.5.3-1-.1-1-.9 0-.9.5-1.6 1-1.6.6 0 1 .4 1 .9zm2.9 3.1c0 1-.3.8-.9-.5-1.2-2.7-1.2-4.3 0-2.5.5.8.9 2.2.9 3zm33.3-2.1c-1.9 1.1-2 8.3-.2 8.8 1.3.4 1.3.3 0-.6-1.3-1-1.3-1.2 0-2.1 1-.6 1.7-.4 2.4.8.8 1.5 1 1.4 1.8-.3.8-2 .8-2 .5 0-.1 1.1-.7 2-1.2 2-.6 0-1.6.4-2.2.8-.7.5-1.8.5-2.4.1-.7-.4-1-.1-.7.7.3.8 1.2 1.3 2 1.1.9-.1 1.8.4 2.1 1.2.4 1.1.1 1.3-1 .9-1.3-.5-1.4-.3-.3 1.7 1 1.8 1.4 2 2.1.9.6-1 .9-1.1.9-.2 0 .7.5 1.3 1 1.3.7 0 .7-.6.1-1.8-.8-1.6.2-5.5 1.1-4.2 1.1 1.6 3.8 8.3 3.8 9.5 0 .8.4 1.5 1 1.5.5 0 .7-.7.4-1.5-.4-.8-.2-1.5.3-1.5.6 0 1.8 3.5 2.8 7.7 1 4.3 2 8.2 2.3 8.8.3.5-.7-.1-2.2-1.5-1.4-1.3-2.4-3-2.1-3.7 2-4.9 2-4.9-.2-3-2 1.7-2.1 1.7-4.7-1.8-1.5-2-2.5-4.1-2.3-4.8.3-.7.6-.3.6.8.1 1.7.3 1.8 1.2.5.9-1.3 1-1.3.6.2-.3.9.1 1.9.9 2.2.9.3 1.2 1.1.9 1.6-.4.6-.1.9.7.8 2.3-.5 3.9-3.8 1.7-3.8-.5 0-.7.5-.3 1.1.4.7.1 1-.7.7-.8-.2-1.5-1.7-1.7-3.1-.2-1.6-.8-2.5-1.4-2.1-.7.4-.8-.2-.3-1.7.7-2.1.6-2.2-.8-1.1-.9.8-2.2 1-2.8.6-.9-.5-1-.2-.5 1.2.8 2.2.2 1.5-3.8-3.9-1.5-2.1-2.5-4.4-2.3-5.1.3-.8-.1-2.6-.9-4.1-1.2-2.4-1.2-2.6.2-2.1 1 .4 1.4.1 1.1-.6-.5-1.4 2.3-5.1 3.2-4.3.3.4 0 1-.7 1.4zm-91.8 2.7c.9 2.2.8 2.4-.9 1.8-.8-.4-1.5-1.2-1.5-2 0-1.9 1.6-1.8 2.4.2zm92.3.6c-.3.8-.6.5-.6-.6-.1-1.1.2-1.7.5-1.3.3.3.4 1.2.1 1.9zm-37 3c-.4 1.4-.2 1.8.9 1.4 1.2-.4 1.1-.1-.1 1.8-1.4 2.1-1.4 2.4-.1 2.9.9.4 1.3 1.3 1 2.1-.3.8-.1 1.7.5 2 .6.4.7 1.4.4 2.2-.4 1.1-1.2.1-2.4-3.1-1-2.7-1.6-5.2-1.3-5.6.2-.4 0-1-.6-1.4-.5-.3-1-1.1-1-1.6 0-.6.5-.7 1.2-.3.8.5.9 0 .6-1.4-.4-1.3-.2-2 .4-1.6.5.3.7 1.5.5 2.6zm-57.1 1c-.2 1.3-.9 3.4-1.5 4.8l-1.2 2.5.6-2.5c.4-1.4.8-3.4.9-4.5.4-2.4.5-2.5 1.1-2.5.3 0 .3 1 .1 2.2zm104.9 10.6c-1 1.1-2.5-2.2-1.9-4.2.4-1 .1-2.2-.6-2.6-.8-.5-.9-1.3-.4-2.1.6-1 1.2.1 2.2 3.4.7 2.7 1.1 5.2.7 5.5zm-43.9-4.5c-.2.7-.5.4-.5-.6-.1-.9-.6-1.7-1.2-1.7-.5 0-.7-.5-.3-1.1.9-1.5 2.8 1.6 2 3.4zm3.1 5.5c-.3 1.2-.5.9-.7-.8-.1-2.2-.2-2.3-.9-.6-.7 1.9-.8 1.9-1.3-.2-.4-1.2-.2-2 .3-1.6.5.3.9-.1.9-.8 0-.8.5-.6 1.1.5.6 1 .8 2.5.6 3.5zm-63.4-2.6c-.2.5-1.1.8-1.9.8-.8 0-1.4.6-1.5 1.2-.1 2.8-1 6.4-2 9-.6 1.5-.8 3.2-.4 3.7.8 1.4-.3 5.1-1.6 5.1-.6 0-.6-.7 0-1.9.6-1 .8-2.1.5-2.4-.3-.3.2-4.1 1.1-8.4 1.5-7 1.9-7.8 4-7.8 1.3 0 2.1.3 1.8.7zm94.5 6c2.2 2.9 5.4 6.6 7.1 8.2 1.8 1.7 2.7 3.4 2.4 4.4-.4.9-.2 1.3.4.9 1.5-.9 4.6 2.8 4 5-.3 1.3-.5 1.1-.6-.7-.1-2-.3-2.2-1.1-1-.8 1.2-1 1.2-1 .1 0-.8-.3-1.1-.7-.8-.3.4-1.3.1-2.1-.6-1.3-1-1.5-.9-.9.5.3 1 .2 1.8-.3 1.8-.6 0-1-.5-1-1.1 0-.5-.3-.8-.7-.6-.5.3-.8-1.4-.8-3.6-.1-2.9-.5-4.1-1.4-3.9-.7.1-1-.2-.6-.8.3-.5-.1-1.3-.9-1.6-.9-.3-1.3-1-1-1.5.3-.5 0-1.7-.6-2.6-1.1-1.7-1.1-1.7-.5.1.3 1.2-.2 2.6-1.3 3.7-1.9 1.7-1.9 1.7-1.9-.8 0-1.8.2-2.1.8-1.2.6 1 .9.8.9-.8s-.4-2.1-1.5-1.7c-1.7.7-2.1-1.1-.5-2.1s1.2-2.8-.5-2.1c-.9.3-1.5 0-1.5-.9 0-2.7 1.7-1.6 5.8 3.7zm-94.8-2c0 1.3-.7 3.2-1.5 4.2-1.5 1.9-1.5 1.9-1.5-.2 0-1.2.5-2.2 1.1-2.2.6 0 .8-.9.4-2s-.2-2 .4-2c.6 0 1.1 1 1.1 2.2zm83.7 1c-.3.8-.6.5-.6-.6-.1-1.1.2-1.7.5-1.3.3.3.4 1.2.1 1.9zm3.3-.6c0 .8-.5 1.2-1 .9-.6-.4-.8-1.1-.5-1.6.9-1.4 1.5-1.1 1.5.7zm-25.5 4.8c.5 2.4.8 2.7 1.6 1.5.7-1 .8-.7.4 1.1-.3 1.4-.1 3.2.5 4 .9 1.3 1.1 1.3 2 0 .5-.8 1-1.2 1-.8 0 .3.3 1.5.6 2.5.5 1.5.4 1.5-.5.3-.9-1.3-1.1-1.3-1.1.1 0 .9 1.1 2.1 2.4 2.7 2.7 1.2 4.2 5.2 2 5.2-.8 0-1.4.5-1.4 1.2 0 .6-.3.8-.6.5-.4-.4-.1-1.4.6-2.2 1.1-1.3 1-1.8-.6-2.9-2.2-1.6-3.2-1.2-1.7.6.6.8.7 2.2.2 3.3-.7 1.7-.8 1.8-1 .2-.2-2-.4-2.7-1.2-4.7-2.8-7.1-5.5-15.9-4.9-16.5.4-.3.7-.3.8.2.1.4.5 2.1.9 3.7zm2.7-1.2c-.8.8-.9.4-.5-1.3.4-1.3.8-1.8 1.1-1 .2.7-.1 1.8-.6 2.3zm24.5-1c-.3.8-.6.5-.6-.6-.1-1.1.2-1.7.5-1.3.3.3.4 1.2.1 1.9zm-30.8 8.6c1.3 4.2 2.6 8.4 2.9 9.2.3 1 .2 1.2-.6.5-.6-.6-1.3-2.3-1.6-3.8-.3-1.6-1-3.5-1.7-4.3-.6-.8-.9-1.4-.6-1.4.4 0 0-1.8-.8-4s-1.1-4-.7-4c.4 0 1.8 3.5 3.1 7.8zm24.5-4.6c-.9 3.1-1.2 3.4-2.6 2-.8-.8-.8-1.5.2-2.7 1.9-2.2 3.2-1.8 2.4.7zm-84.9 1.8c.3.5.1 1-.4 1-.6 0-1.1-.5-1.1-1 0-.6.2-1 .4-1 .3 0 .8.4 1.1 1zm98 1c-.3.5-1.1 1-1.6 1-.6 0-.7-.5-.4-1 .3-.6 1.1-1 1.6-1 .6 0 .7.4.4 1zm-104.8 4.9c-.1 2.7-.5 4.4-.9 3.8-.4-.7-.8 1.3-.8 4.3 0 3.1-.7 8.2-1.5 11.5-.9 3.2-1.3 6.5-1.1 7.2.3.7-.1 2.8-.9 4.7-1.7 4-2.2 11.2-1.1 14.1.8 1.8.7 1.8-.8-.2s-1.3-3.7 2-25c2-12.5 3.8-23.4 4-24.1.8-2.7 1.3-.9 1.1 3.7zm96.3-.8c0 .5-.4.9-1 .9-.5 0-1-.7-1-1.6 0-.8.5-1.2 1-.9.6.3 1 1 1 1.6zm2.4.4c.3.8.1 1.5-.4 1.5-.6 0-1-.7-1-1.5s.2-1.5.4-1.5.6.7 1 1.5zm-94.3 3.9c-1.2 2.9-3.1 3.5-3.1.8 0-1.3.2-1.4.9-.4.6 1 1 .7 1.5-1.3.4-1.5.9-2.5 1.2-2.3.2.3 0 1.7-.5 3.2zm2.6-.2c-.3.7-.5.2-.5-1.2s.2-1.9.5-1.3c.2.7.2 1.9 0 2.5zm90.3.8c0 .5-.5 1-1.1 1-.5 0-.7-.5-.4-1 .3-.6.8-1 1.1-1 .2 0 .4.4.4 1zm-92 3.6c0 .3-.7 1.2-1.5 2-1.2 1.3-1.5 1.3-1.5.1 0-.7.3-1.7.7-2 .8-.8 2.3-.9 2.3-.1zm77 1.4c0 .5-.7 1-1.6 1-.8 0-1.2-.5-.9-1 .3-.6 1-1 1.6-1 .5 0 .9.4.9 1zm39.7 3.4c-.5 1.6-2.7 1.9-2.7.3 0-.7.7-1.4 1.5-1.4.9 0 1.4.5 1.2 1.1zm-117.3 1.2c.3.8.2 1.2-.4.9-.6-.3-1-1-1-1.6 0-1.4.7-1.1 1.4.7zM463 650c0 .5-.4 1-1 1-.5 0-1-.5-1-1 0-.6.5-1 1-1 .6 0 1 .4 1 1zm-120.1 7.7c0 4.3-.3 6.1-.8 4.8-.7-1.9-.3-11.5.5-11.5.2 0 .4 3 .3 6.7zm9.8-1c-.3 1-.5.2-.5-1.7s.2-2.7.5-1.8c.2 1 .2 2.6 0 3.5zM469 673.3c1.8 8.5 2.1 11 1.1 12-1 .9-1.1.7-.7-1.3.4-1.4.2-3.9-.2-5.5l-.8-3-.7 3.4c-.4 1.9-.9 3.2-1.2 3-.2-.3 0-2.1.5-4s.8-4.3.5-5.4c-.2-1.1-.4-2.5-.4-3.2-.1-.7-.8-1-1.6-.7-.8.4-1.5.2-1.5-.4 0-.6-.3-1.8-.7-2.8-.4-1.2-.3-1.5.5-1s1.2-.2 1.1-2.1c0-2.5-.1-2.6-.9-.8-.6 1.4-.7.6-.3-2.3.5-3.4.3-4.2-1.1-4.2-1.9 0-2.2-1.6-.3-2.3 1.4-.5 3.3 5.3 6.7 20.6zM339.5 656c.3.5.1 1-.4 1-.6 0-1.1-.5-1.1-1 0-.6.2-1 .4-1 .3 0 .8.4 1.1 1zm263 3.8c-.2.2 1 1.4 2.8 2.6 1.7 1.2 3.7 3.2 4.3 4.4.6 1.2 1.3 2 1.6 1.7.3-.3 3.9 2.9 7.9 7.2 4.1 4.3 6.7 6.9 5.9 5.8-.8-1.1 2.3 1.4 6.9 5.5l8.4 7.4-5.4 1.1-5.4 1.1-7-6.8c-6.6-6.5-6.9-7-5.1-8.3 1-.8 2.2-1.2 2.7-1 1.1.7.5-2.3-.8-3.6-.8-.8-1.3-.7-1.8.2-.5.7-.4 1 .3.5.6-.3 1.3-.2 1.7.3.7 1.2-2.9 3.3-4 2.3-.5-.4-.5 0-.1.8s-2.6-2.1-6.8-6.5c-4.1-4.3-7.4-8.2-7.4-8.5.2-1.9-.3-3-1.1-2.6-.5.3-1.4-.1-2.1-.9-.8-.9-.8-1.5-.2-1.5.6 0 1.3.6 1.6 1.2.4.7.4.3.2-.9-.3-1.6 0-2 1.3-1.6 1.3.5 1.3.3-.3-1.5-1-1.2-2.3-1.9-2.9-1.5-.6.4-.7.1-.2-.6.5-.9 1.3-.7 3.1 1 1.3 1.2 2.2 2.4 1.9 2.7zM338 660c0 .5-.4 1-1 1-.5 0-1-.5-1-1 0-.6.5-1 1-1 .6 0 1 .4 1 1zm13.7 2.2c-.3.7-.5.2-.5-1.2s.2-1.9.5-1.3c.2.7.2 1.9 0 2.5zm9.7 15.5c.7 14.8.7 15.1-1.4 15.8-1.5.5-1.9 1.2-1.4 2.7.4 1.3.2 1.8-.4 1.4-2.1-1.3-2.2-6.4-.2-19.6 1.1-7.4 2-14.1 2-14.9 0-.8.2-1.2.4-1 .2.2.7 7.2 1 15.6zM340 663.4c0 .3-.4.8-1 1.1-.5.3-1 .1-1-.4 0-.6.5-1.1 1-1.1.6 0 1 .2 1 .4zm-3 4.1c0 .8-.4 1.5-1 1.5-.5 0-.7-.7-.4-1.5.4-.8.8-1.5 1-1.5.2 0 .4.7.4 1.5zm1.9 7.2c-.1 3.2-.4 4.5-.6 3-.4-2.7-.5-2.8-1.8-1-1.3 1.7-1.4 1.6-.9-.7.6-2.6 2.5-7 3.1-7 .2 0 .2 2.6.2 5.7zm-4.2-.5c-.3.7-.5.2-.5-1.2s.2-1.9.5-1.3c.2.7.2 1.9 0 2.5zm-2.7 9c0 .5-.4.8-1 .8-.5 0-1-1-1-2.3 0-1.8.2-1.9 1-.7.5.8 1 1.8 1 2.2zm4.3 1c-.8 1.9-1 1.9-1.6.5-.3-.9-.2-1.7.3-1.7s.7-.8.3-1.8c-.5-1.4-.3-1.5.7-.5 1 .9 1.1 1.8.3 3.5zm5.4 2c-.3.8-.6.5-.6-.6-.1-1.1.2-1.7.5-1.3.3.3.4 1.2.1 1.9zm-8.3 2.8c.3 0 .3-.8-.1-1.8-.3-.9-.3-1.4.2-1 .4.4.9 1.8.9 3.1.1 1.3.9 3.2 1.9 4.1 2 2 2.2.8.5-2.9-.9-2-.9-2.8.1-3.8 1.1-1 1.2-.8.7 1-.4 1.2-.2 2.4.4 2.8 1 .6 1.4-.7 1.1-3.4-.2-1.1 0-1.1 1.2 0 1.3 1.2 1.3 1.6.1 3-.8.8-1.4 2.2-1.4 2.9 0 .9.5.7 1.6-.6 1.5-1.8 1.5-1.8.8.5-.4 1.6-.3 2.1.5 1.7.6-.4 1.1-.2 1.1.4 0 .7-.6 1-1.3.7-1.9-.7-4.3.8-2.8 1.7.6.4 1.1.3 1.1-.3s.7-.8 1.6-.4c1.1.4 1.2.9.5 1.6-1.5 1.5-1.4 2.7.2 2.7.8 0 1.4.7 1.4 1.7 0 1.2-.7.8-2.4-1.3-1.4-1.6-4.7-5.5-7.5-8.8-4-4.5-4.8-6-3.7-6.7 1-.6 1.6-.2 2.1 1.1.4 1.1 1 2 1.2 2zm138.8-.5c.3 1.3.1 2.2-.3 1.9-.9-.5-1.3-4.4-.5-4.4.2 0 .6 1.1.8 2.5zm-3.5 3.7c-.3.7-.5.2-.5-1.2s.2-1.9.5-1.3c.2.7.2 1.9 0 2.5zm-104.8 46.1c0 20.5-.3 24.9-1.4 25.4-.8.3-6.3.6-12.2.6l-10.8.2.2-2.5c.1-1.4.4-5.2.7-8.5.3-3.3.8-11.1 1.2-17.2.4-7.4 1-11 1.7-10.6.7.4.8-.1.3-1.3-.7-1.8-.6-1.8 1.2.1 2 2.1 1.9 4-.1 2.9-.7-.4-.8-.3-.4.2.5.5 1.3 1 1.8 1 2.2.3 2.3.5 1.1 1.2-.9.6-.6 1.4 1.2 3.1l2.4 2.3 1.2-2.2c.8-1.6.9-2.5 0-3.5s-.8-2.1.4-4.2c.8-1.5 1.5-2.4 1.6-2 0 .5-.5 1.7-1 2.7-.7 1.3-.7 2.1 0 2.5.5.3 1-.3 1-1.4 0-1.1.6-2.6 1.3-3.3.7-.7 1.6-2.2 2-3.3.6-1.6.3-1.5-1.3.5-2.3 2.9-2.7 1.5-.5-1.7 1.4-1.9 1.3-2.1-1-2.7-2.3-.6-3.6-3.6-1.6-3.6.5 0 .7-.8.5-1.8-.2-.9.2-5.1 1-9.2 1.3-7 1.4-7.2 1.6-3 .2 3.8.3 4.1 1 2l.8-2.5.1 2.7c.1 1.9-.4 2.8-1.4 2.8-.9 0-1.5.9-1.6 2.2 0 1.3-.2 3.8-.4 5.6-.3 3.2-.2 3.2 1.6 1.6 2-1.8 2.6-4 .9-2.9-.5.3-1-.1-1-1 0-1.1.5-1.5 1.5-1.1 1.2.4 1.4 0 .9-2.1-.5-1.8-.3-2.4.4-1.9.8.5 1 .1.6-.9-.4-.8-.3-3.2.1-5.2.5-2.7.9-3.3 1.6-2.2.7 1.1.9 1 1-.6.6-6.7 1.8 22 1.8 42.8zm-33.3-40.1c4.2 8.2 16.6 25.9 18.6 26.7l2.2.8-2.2 1.2c-1.2.6-2.1.8-2 .4.5-1.5-4.4-8.3-5.4-7.7-.7.4-.6.9.2 1.4.9.5.9.9.1 1.4-.6.4-1.1 1.6-1.1 2.7 0 1.2-.7 1.9-1.9 1.9-2.3 0-3.5-2.6-2.1-4.8.8-1.4.9-1.3.7.7-.3 3.2 1.9 3.8 2.5.7.3-1.4.1-2.7-.5-2.9-.7-.2-.7-1 0-2.2.8-1.6.4-2.8-1.5-5.5-1.4-1.9-2.2-2.7-1.9-1.8.3 1 .2 2-.3 2.3-.6.4-1-.1-1-1s-.4-1.3-1-1c-.5.3-1 .1-1-.4 0-.6.7-1.1 1.5-1.1s1.5-.5 1.5-1.1c0-.6-.9-.8-2.2-.3-2 .6-2.1.5-.9-1 .8-1 .9-1.6.2-1.6-.6 0-1.8 1.2-2.8 2.7-.9 1.6-1.9 3-2.1 3.3-.1.2-.7-.2-1.3-1-.6-1-.7-.4-.3 1.9.4 2 .3 3.6-.5 4-.6.4-1.2 3.8-1.3 7.9-.1 4-.6 7.2-1 7.2s-.8.9-.8 2.1c0 1.1.4 1.8.9 1.4.5-.3 1.3 0 1.7.6.4.7.3.9-.4.5-1.3-.8-3.4 5.4-3.7 11.1-.1 2.3-.4 4.6-.8 4.9-.4.4-.7 1.4-.7 2.3 0 1.2.4 1.1 2.1-.5 2.1-2.2 2.9-7.4 1.5-10.9-.5-1.3-.2-1.2.7.4 1.1 1.8 1.6 2.1 2.1 1 .6-1.4.2.7-.9 5.1-.4 1.8-.4 2.1.3 1.1.9-1.2 1.3-1.2 2.6.2 1 1 1.2 1.8.6 2.2-.5.3-1 .2-1-.3 0-.6-.9-.8-2-.5-1.1.3-2 1-2 1.7 0 1.8-3.7 3.8-4.4 2.3-.3-.7-.4-.3-.3.8.2 1.4 1 1.9 2.7 1.8 2.3-.2 2.3-.1-.5 1.2-2.9 1.3-2.9 1.3 2.2 1.1 2.9-.1 5.6-.6 6-.9.3-.4.1-.7-.5-.7-.7 0-1.2-.5-1.2-1.2 0-.6.7-.4 1.8.5 1 1 2.9 1.7 4.3 1.8l2.4.1-2.5.8c-2.4.7-2.3.7 1 1.2 2.2.3.8.5-3.6.6-3.9.1-8.5-.1-10.2-.4-3.1-.6-3.1-.7-2.7-5.8.2-2.8.9-5.2 1.5-5.4.5-.2.8-.8.5-1.2-.5-.9 4.7-39.9 6.4-48.5l.9-4 .1 3.4c0 1.9.3 3.2.6 2.9.9-.9 1.2-6.8.4-7.4-.9-.5-1.2-2.4-.4-2.4.2 0 1.2 1.5 2.1 3.2zm15.4 5.9c0 1.6-.4 2.8-.9 2.5-.8-.5-.3-5.6.5-5.6.2 0 .4 1.4.4 3.1zm248 10.6c0 .1-.7 0-1.5-.3-.8-.4-1.5-1.1-1.5-1.6 0-.6-.8-.4-1.7.3-1.6 1.2-1.7 1.2-.5-.2 1-1.3 1-1.8-.1-2.8-.8-.6-1.8-.7-2.3-.3-.5.4-.6.3-.2-.2.4-.5.2-1.6-.4-2.5-.7-.9.9.4 3.5 2.9 2.6 2.4 4.7 4.5 4.7 4.7zm-8.6-2.9c.3.5-.1.9-.9.9s-1.2-.4-.9-.9c.3-.4.7-.8.9-.8.2 0 .6.4.9.8zm-17.9 5.5c.6.5-.5.5-2.2.2-2.1-.4-3.3-.3-3.3.4 0 1.2 1.1 1.4 4.6 1.2 2.3-.2 5.9 4.3 5.7 7.2-.1.9.2 1.5.7 1.2.4-.3 2.2 1.8 4 4.6 1.7 2.8 2.5 4.7 1.8 4.3-3.6-2.3-5.4-.2-3.7 4.4 1 2.6 1.1 2.6 2.4.8.8-1 1.2-2.3.8-2.9-.3-.5-.9-.3-1.4.4-.6 1-.9 1-.9.2 0-1.6 1.7-2.6 2.5-1.3.4.6 1 .8 1.5.5 1-.6 6 5.9 6.5 8.7.4 1.6.2 1.9-.7 1-.9-.9-1.5-.9-2.7.1-.9.6-.7.1.4-1.2 1.7-2.1 1.8-2.4.3-1.8-1.1.4-1.7.2-1.5-.5.1-.7-.3-1.2-1-1.3-.6 0-1.5-.3-1.9-.7-.4-.4-1.3-.3-2.1.3-1.7 1.5-4.4-.6-3.6-2.9.4-1.3.3-1.4-.5-.3-.7.9-1.2 1-1.6.2-.4-.6-.2-1.1.5-1.1.8 0 .8-.4-.1-1.5-1.1-1.3-1-1.4.2-1 .9.4 1.8-.1 2.2-1.1.8-2.1-.2-3.3-1.3-1.5-.5.8-1.1.9-1.5.3-.7-1.1 2.1-2.5 3.5-1.6 1.3.8 1-.8-.5-2.9-1.3-1.7-1.4-1.6-1.9.3-.7 2.8-2 2.5-4.1-1.1-1.7-2.9-1.7-3.1 0-5 1.6-1.7 1.6-1.9.1-1.9-1 0-1.7-.5-1.7-1.1 0-.6-.6-.9-1.2-.6-1.6.5-4.8-1-4.8-2.4 0-1.2 4.3-2.9 5-2 .3.3 1 .9 1.5 1.4zM334 718.5c0 .8-.4 1.5-1 1.5-.5 0-.7-.7-.4-1.5.4-.8.8-1.5 1-1.5.2 0 .4.7.4 1.5zm19.3 3.1c-1 2.5-2.3 1.5-2.3-1.9.1-3 .2-3.1 1.5-1.4.7 1.1 1.1 2.5.8 3.3zm205.5-3.4c-.3.7-1 1.3-1.6 1.3-1.5 0-4.7 5.1-5.4 8.5-.3 1.4-.9 3.3-1.3 4.3-.6 1.3-.4 1.6.9 1.1 1.2-.4 1.6 0 1.7 1.7.2 2.4.2 2.4.6.1.2-1.2.9-2.2 1.4-2.2 1.4 0 1.1 2.6-.6 4-.8.7-1.2 1.7-.8 2.3.3.5.1.7-.5.3-.5-.3-1.3 0-1.5.6-.3.8-.6.6-.6-.5-.1-.9.3-1.7.8-1.7s.7-1 .3-2.2c-.3-1.2-.7-1.7-1-1-.2.8-1 .5-2.1-1-1.1-1.3-2-1.7-2.4-1.1-.4.6 0 1.6.8 2.3.8.7 1.5 1.7 1.5 2.3 0 .6-.7.2-1.5-.9-1.4-1.9-1.5-1.9-2.1.3-.3 1.3-1 2-1.5 1.7-.5-.3-.6.3-.2 1.2.5 1.4.3 1.6-1.1 1.1-1-.4-1.5-.3-1.1.3.3.6-.1 1.3-.9 1.6-.9.3-1.6 1-1.6 1.6 0 .5.5.6 1 .3.6-.3 1-.1 1 .4 0 .6-.9 1.1-2 1.1s-2.1.3-2.1.7c-.1.5-.3 1.7-.4 2.9-.2 2-3.3 7.4-4.2 7.4-.3 0-.2-.7.1-1.6.3-.8.2-1.2-.4-.9-.6.3-1 1.3-1 2.1s-.4 1.2-1 .9c-.5-.3-1-.2-1 .4 0 1.6 2.2 2.5 2.9 1.2.9-1.3 4.1-.4 4.1 1.1 0 .7-.5.6-1.3-.1-.8-.6-1.7-.8-2-.4-.4.3.1 1.2 1.1 1.9 1.6 1.3 1.5 1.5-.8 3.3-1.8 1.5-2.7 1.7-3.3.8-.6-.8-.7-.5-.3.6.9 2.9-2.6 1.7-4.3-1.5-1.5-2.5-1.4-2.8 2.6-7.1 2.3-2.5 5.8-7 7.9-10.1 2-3.1 4.1-5.6 4.6-5.6s.7-.4.4-.9c-.3-.5.4-1.9 1.7-3.3 1.2-1.3 2.2-2.7 2.3-3.2.1-.9 9.2-14.1 11.2-16.2 1.7-1.7 3.5-1.8 3-.2zm-.1 5.4c.2 1 0 1.3-.3.6-.8-1.8-2.4-1.5-2.4.5 0 .9-.3 1.4-.6 1-.3-.3-.3-1.5.1-2.7.8-2.5 2.9-2.1 3.2.6zm4.3-1.6c0 .5-.5 1-1.1 1-.5 0-.7-.5-.4-1 .3-.6.8-1 1.1-1 .2 0 .4.4.4 1zm2.8 2.2c-.2.6-1.5 1.8-2.8 2.7l-2.4 1.6 1.9-2.7c2-2.8 4-3.8 3.3-1.6zm-85.3 7.5c-.2.7 0 1.5.5 1.8 1.7 1 1.1 5.1-1 7.5-1.5 1.7-2 1.9-2 .8 0-.9.7-2.1 1.5-2.8 1.9-1.5 1.9-3.6.2-4.7-2-1.2-3-4.3-1.1-3.6.7.3 1.4 0 1.4-.6s-.4-1.1-.9-1.1c-.4 0-.6-1.2-.3-2.8.6-2.7.6-2.7 1.4.8.4 1.9.5 4 .3 4.7zm-152.8-2.5c-.3.7-.5.2-.5-1.2s.2-1.9.5-1.3c.2.7.2 1.9 0 2.5zm11-.6c-.3.3-1.2.4-1.9.1-.8-.3-.5-.6.6-.6 1.1-.1 1.7.2 1.3.5zm1.6 7.5c-.4.4-.6-1.3-.3-3.9l.5-4.7.3 3.9c.2 2.1 0 4.2-.5 4.7zm213.4-4.9c-.3.7-.5.2-.5-1.2s.2-1.9.5-1.3c.2.7.2 1.9 0 2.5zm-201.7-.8c0 .2-.3 1.1-.6 2-.5 1.2-.9 1.3-1.9.3-.7-.7-1.1-1.5-.8-2 .4-.7 3.3-1 3.3-.3zm217.1 1.3c.1.5.3 1.8.4 2.9.1 1.2.5 2.6.9 3.2.3.5 0 1.2-.7 1.5-.9.3-1.3-.6-1.3-3.2.1-3.5 0-3.6-4.4-4.2l-4.5-.6 4.8-.1c2.6-.1 4.8.1 4.8.5zM333 735c0 .5-.4 1-1 1-.5 0-1-.5-1-1 0-.6.5-1 1-1 .6 0 1 .4 1 1zm226.1-.1c.7-1.1.9-1.1.9.3 0 1.1.7 1.5 2.3 1.2 2-.4 2.1-.4.2.5-2 1-2 1 .1 1 1.1.1 2.5.6 3.1 1.2.6.6 1.9 1.2 2.9 1.4 1.1.1 1.8.7 1.7 1.3-.2.6.7 1.9 2 2.9 1.2 1 3.4 3.2 4.9 5 2 2.4 2.8 2.9 3.2 1.8.3-.9 0-1.5-.9-1.5-.7 0-1.6-.4-1.9-.9-.9-1.4 2.8-.7 4 .8.8 1.1 1.3 1.1 1.8.2.6-.9 1.3-.8 2.7.5 1.5 1.3 1.6 1.9.7 2.5-1 .7-1 1.1 0 2.1.9.9 1.2.9 1.2 0 0-.7.5-1.2 1.1-1.2.5 0 .8.4.5.9-.3.5.1 1.2 1 1.5 1 .4 1.3.2.7-.7-.4-.6.5-.4 1.9.5 1.6 1.1 2.9 1.4 3.3.8.3-.5-1.1-1.6-3.1-2.5-4.7-1.9-6.5-3.5-5.8-4.7.3-.5 1.4-.2 2.5.8 1 .9 1.9 1.3 1.9.9 0-.5.7 0 1.6 1.1.8 1 1.2 1.2.8.4-.4-.8.9 0 2.9 1.9s3.4 3.7 3.1 4c-.3.3-.9-.1-1.3-.8-.6-1-1-1-1.6-.2-.4.7-2 1-3.8.7-1.8-.3-6.2-.6-9.9-.7-3.8-.1-6.8-.6-6.8-1.2 0-.5 1.2-.6 2.7-.2 2.3.5 2.5.4 1.4-.9-.7-.9-1.7-1.3-2.2-1.1-.4.3-4.2.7-8.3.9-4.2.2-8.2.9-9.1 1.6-.8.7-1.5.9-1.5.6 0-.4-.9-.2-2.1.4-1.3.7-1.8 1.7-1.5 2.7.6 1.3.4 1.4-.9.3-.9-.7-1.5-.9-1.4-.4.4 2.1-.2 2.8-1.1 1.4-.8-1.2-1-1.2-1 .5s-.2 1.7-1 .5-1-1.2-1 .5c0 1.4-.3 1.6-.8.7-.9-1.4-4.2-.6-4.2 1 0 .6.6.5 1.5-.2s1.5-.8 1.5-.2c0 1.4-2.6 2.2-3.7 1.1-.5-.5-1.7-.3-2.9.7-1.8 1.4-1.8 1.5.5.4 1.8-.9 2.2-.9 1.6 0-1.1 1.9-5.6 3.2-7 2-.8-.7-1.8-.5-3.1.6-1.8 1.4-1.8 1.5.4.4 1.2-.6 2.2-.7 2.2-.1 0 1.6-5.6 3-9.8 2.4-2.3-.3-4.2-.1-4.6.6-.5.7.3.9 2.4.5 1.6-.4 3-.4 3-.1 0 .3-4.3 1.5-9.5 2.8-8.9 2.2-9.6 2.2-11.2.6-2-2-1.6-2.6 2.6-3.1 3.2-.4 7.1-3.1 7.1-4.9 0-.6-1.3.2-2.9 1.7-1.6 1.6-3.3 2.6-3.8 2.3-.5-.3-2.2.1-3.7.9-1.6.7-3.7 1.4-4.8 1.4-1.2 0-1.7.4-1.2 1.2.4.7.4 1 0 .6-1.6-1.4-.9-2 4.3-3.8 2.9-1.1 8.3-3.8 11.8-6 6.7-4.2 7.8-4.7 6.8-2.9-.4.6.1 1.7 1.1 2.5 1.1.9 1.3 1.2.5.8-.7-.3-1.7 0-2.2.7-.6 1-.9.7-.9-1.1 0-2-.2-2.2-1-1-.5.8-1 1.1-1 .5 0-.5-.5-.4-1.1.2-1.4 1.4 0 6.3 1.8 6.3 1 0 1.3-.6.9-1.6-.5-1.3-.1-1.5 1.6-1.1 1.3.3 3.9.8 5.8 1.1l3.5.5-4-1.4c-3-1.1-3.3-1.4-1.2-1.1 2.2.3 3.8-.6 7.5-4.1 2.6-2.4 4.2-4.2 3.5-3.9-.7.4-.9-.1-.6-1.5.5-1.6.8-1.8 1.5-.7.7.9.8.3.4-1.7-.3-1.7-.3-2.4 0-1.7.3.6 1 1 1.5.7.5-.4.6.2.2 1.1-.4 1.2.1 1.1 2-.6 1.5-1.3 2.4-2.6 2.1-2.9-.3-.3-1 .1-1.5.9-.8 1.1-.9 1-.4-.8.4-1.3.2-2.2-.4-2.2-.6 0-1.1.8-1.1 1.7 0 1.4-.2 1.5-.9.5-.6-1.1-1.1-1-2.5.3-.9.9-1.6 2.1-1.6 2.6s-.5.9-1.1.9c-.8 0-.8-.5.1-1.5.7-.8.9-1.5.4-1.5s-.3-.4.5-.9 1.6-2.2 1.9-3.8c.4-3.5 1-4.1 1.8-1.8.4 1 .1 2.1-.7 2.6-1.1.7-1.1.9.2.9.9 0 2.2-.7 2.9-1.5 1-1.2 1.6-1.3 2.6-.4 1.1.9 1.4.8 1.4-.5 0-.9.5-1.6 1-1.6.7 0 .7.6 0 2-1.2 2.2-2.5 2.6-3.3 1-.3-.6-.4-.5-.3.2.4 2.2 3.4 2.1 4.1-.1.3-1.2 1.1-2.1 1.7-2.1.6 0 .6-.6-.2-1.5-.7-.8-1.8-1.5-2.4-1.5-.7 0-2-.6-3.1-1.3-1.4-1.1-1.5-1.6-.5-2.2.8-.5 1.1-.4.7.2-.4.6 0 1.4.9 1.7.8.3 1.2.2.9-.4-.3-.5-.1-1.8.4-2.7.9-1.6 1-1.4 1.1.9 0 2.7 2 4.1 2 1.5 0-.8.3-.8.9.2 1.2 1.8 4.2.6 3.5-1.4-.4-1 0-1.5 1.3-1.5 1.1 0 2.8-.7 3.9-1.5 1.8-1.4 1.8-1.6.2-2.6-1-.5-1.8-1.5-1.7-2.2 0-.8.3-.7.6.2.5 1.1.7 1.1 1.4 0zm-80.2 3.2c-1.9 1.2-2.4.2-.8-1.7.9-1.1 1.4-1.3 1.7-.4.3.7-.2 1.6-.9 2.1zm88.6.7c-.8.8-2.5-1-1.9-2 .4-.6.9-.5 1.5.3.4.7.6 1.5.4 1.7zm-239.9.8c-.3.9-.6 2-.6 2.5s-.4.9-.9.9c-.4 0-.6-1.1-.3-2.5.2-1.4.9-2.5 1.4-2.5.6 0 .7.7.4 1.6zm11.6 5.6c-.6.6-1.2.3-1.6-.7-.3-.9-.2-1.3.4-1 .6.3 1.1-.4 1.1-1.7l.2-2.3.4 2.4c.3 1.3 0 2.8-.5 3.3zm143.3-2.3c-.3 1.2-1 2.1-1.5 2.1-.4 0-.3-1.1.3-2.4 1.4-2.9 2.2-2.7 1.2.3zm90.9.7c.5 1.4.4 1.5-.9.4-1.7-1.4-1.9-2-.6-2 .5 0 1.2.7 1.5 1.6zm-98.8.6c.4.7.3.8-.4.4s-1.2-.2-1.2.5-.3 1-.6.6c-.6-.5.3-2.7 1.1-2.7.2 0 .7.5 1.1 1.2zm105.4 1.9c0 .5-.4.9-.8.9-.5 0-.9-.7-.9-1.5s.4-1.2.9-.9c.4.3.8.9.8 1.5zm-37.7 1.4c-.3.9-.8 1.4-1 1.1-.3-.3-.2-.9.2-1.5.9-1.6 1.5-1.3.8.4zm-203.1 7.1c-.6 3.3-.8 2.8-1.4-3.1-.5-4.6-.4-4.8.7-2.1.6 1.5 1 3.9.7 5.2zm135.8-4.8c0 1.5-.2 1.5-1 .2-1.3-2-1.3-3.3 0-2.5.6.3 1 1.4 1 2.3zm1.4 3.4c.7.7 1 2.3.7 3.6-.5 2-.7 1.9-1.7-1.3-1.2-3.8-1-4.2 1-2.3zM335 756c0 .5-.7 1-1.5 1s-1.5-.5-1.5-1c0-.6.7-1 1.5-1s1.5.4 1.5 1zm153.3 18.7c.8 3.1-.1 2.9-1.3-.2-1-2.6-3.4-3.3-4.6-1.4-.5.8-1 .6-1.6-.5-.6-1-.7-2-.4-2.3.3-.4.6-.1.6.5 0 .7.5 1.2 1 1.2 1.8 0 1.1-2.2-.9-2.7-2.6-.7-3.3-4.1-1.9-8.9l1.2-3.9.7 3c.3 1.6.7 2.4.8 1.6 0-.8.3-1.2.6-1 .2.3.2 1.5-.2 2.7-.4 1.8-.8 2-1.9 1.1-1.8-1.4-1.8 0 0 2.3 1.9 2.6 3.6 2.2 3.8-1 .6-10.1 1-10.3 2.3-1.2.7 4.7 1.5 9.5 1.8 10.7zm84.5-17.3c3.4-.4 3.5-.3 1.2.7-1.4.6-4.2.9-6.2.7-2.1-.2-3.9 0-4 .4-.5 1.2-5.8 2.1-5.8 1 0-.6.5-1.4 1-1.7.6-.3 1-.1 1 .6 0 .8.7.6 1.9-.5 1-.9 2.5-1.4 3.5-1 1 .4 1.6.1 1.6-.7 0-.9.3-1 1.1-.2.6.6 2.7.9 4.7.7zm21.2 5.4c0 .7-6.2 5.7-11.9 9.5-1.3.8-3 1.3-3.9 1-1-.4-1.3-.2-.8.5.3.6.1 1.4-.5 1.8-.7.4-.9.3-.5-.4.3-.6.2-1.3-.4-1.7-.5-.3-1-1.7-1-3 0-1.9.4-2.3 2.1-2 1.2.2 2.7 1.2 3.5 2.2 1.3 1.7 1.3 1.7 1.4-.3 0-1.4.8-2.4 2.2-2.8 1.8-.4 2-.8 1-1.8-.8-.8-4.4-1.3-10.3-1.3-5 0-8.5.1-8 .3.6.2.8.8.5 1.3-.3.6.1 1.8.9 2.7.8.9 1.7 2.6 1.9 3.7.5 1.9.5 1.9 1.3.1.5-1.2.3-2.1-.6-2.6-.7-.5-1-1.2-.6-1.7.5-.4 1.2-.1 1.6.6.7 1.1 1 1.1 1.4 0 .3-.8.3.1 0 1.8-.3 2.1-.1 3.3.6 3.3.6 0 1.1.7 1.1 1.5s-.3 1.4-.7 1.3c-.5-.1-1.8.3-3 1-1.3.7-2.3 1-2.3.7v-1c0-.2-1.4-1.9-3-3.6-2.9-3.3-3.1-5.5-.3-4.5 1.1.5 1.3.2.9-1-.3-.8-.6-2-.6-2.5s-1.2-.9-2.7-.8l-2.8.1 2.5.8 2.5.8-2.6.1c-1.4.1-3.3-.5-4.3-1.2-2-1.5-2.8-1.3 13.9-2.6 15.4-1.1 21.5-1.2 21.5-.3zm49.5 2.2c9.5 1.4 12.5 2 12.5 2.8 0 .4-2.3 3.2-5.1 6.2s-4.8 4.9-4.4 4.2c.3-.6.1-1.2-.5-1.2s-.8-.5-.5-1c.7-1.1.3-1.2-1.9-.4-.9.3-1.2 1.2-.9 2.2.4.9.4 1.5.2 1.2-3.3-3.9-4.2-5.3-2.7-4.2.9.8 1.9.9 2.2.4.3-.6-.4-1.2-1.6-1.5-2.6-.7-2.5-.8-3 1.8-.2 1.3.2 1.9 1 1.7.8-.1 1.1.2.7.8-.5.8-1.1.8-2 0-.9-.7-1-2.1-.5-4.5.4-2 .4-3.5-.1-3.5-.8 0-1.3 1.4-1 3.2.2 1.5-3.8 1.7-6.5.3-1.6-.8-3.6-1.5-4.4-1.5-1.2-.1-1.1-.4.3-1.5 1.1-.7 2.4-1.2 3-1.1.7.2.8.1.4-.2-1.4-.7 3.5-5.2 5.7-5.2 1.2 0 5.3.5 9.1 1zm-66.5 1c-.8.5-3.1.9-5 .8l-3.5-.1 4-.7c5.9-1.1 6.1-1.1 4.5 0zm82 5c0 .5-.8 1.4-1.7 1.9-1 .6-1.3 1.1-.7 1.1.5 0 1.5-.5 2.2-1.2.9-.9 1.6-.7 3.1.9 1.8 1.9 1.8 2.2.4 2.7-.9.4-2.1.2-2.7-.4-.8-.8-.6-.9.7-.4 1.3.5 1.6.2 1.1-1s-1-1.3-2.5-.5c-2.7 1.4-4.1.3-2.6-2.1 1.3-2.1 2.7-2.6 2.7-1zm-172.9 4.1c.9 1.7.8 2.3-.2 3-2.3 1.5-4.9 1-4.9-.9 0-1.5-.2-1.5-1.1-.2-.9 1.3-1 1.3-.6 0 .2-.8.9-1.5 1.5-1.5s1.7-.6 2.4-1.3c1.6-1.6 1.5-1.6 2.9.9zm14.7 2.9c2.9 0 3.4-.3 2.2-1.1-1.2-.8-1.2-1 .4-.7 1.1.2 2.1.9 2.4 1.5.3 1-1.4 1.3-6.4 1.3-6.1 0-6.6-.1-4.8-1.4 1-.8 2.1-1 2.2-.5.2.5 2 .9 4 .9zm138.2 3.6c0 .8-1.9 1.3-2.4.6-.3-.5.1-.9.9-.9s1.5.2 1.5.3zm30 11c9.9 3.1 1.6 2.8-9.5-.3l-2-.6 2-.8c1.1-.4 2.5-.6 3-.4.6.2 3.5 1.2 6.5 2.1zm-236.4-.7c-.9 1.4-4.3 1.9-5.7.9-1.1-.8-1.1-.9.2-.5.9.3 2.2.1 3-.4 1.8-1.1 3.2-1.2 2.5 0zm173.4 2.6c3.5.7 6.8 1.1 7.2.9.4-.3.8 0 .8.5 0 1.4-12.9 1.5-16.5.1-2.8-1.1-2.6-3 .3-3 .9.1 4.6.7 8.2 1.5zm-145.7.2c-.7.2-2.1.2-3 0-1-.3-.4-.5 1.2-.5 1.7 0 2.4.2 1.8.5zm-29.6 1.9c-.3.3-1.2.4-1.9.1-.8-.3-.5-.6.6-.6 1.1-.1 1.7.2 1.3.5zm7.6 1.1c-.7.2-2.1.2-3 0-1-.3-.4-.5 1.2-.5 1.7 0 2.4.2 1.8.5z"/><path d="M427.6 124.8c-.3.5.1.9.9.9s1.2-.4.9-.9c-.3-.4-.7-.8-.9-.8-.2 0-.6.4-.9.8zM389.2 131.3c13.2 7.5 24.9 16.8 39.7 31.7 11.9 12 15.2 13.9 5.5 3.1-12.5-14-30.2-28.4-43.1-35.2-11-5.9-12.7-5.5-2.1.4zM369.1 145.6c0 1.1.3 1.4.6.6.3-.7.2-1.6-.1-1.9-.3-.4-.6.2-.5 1.3zM553.6 142.3c.3.8 1.1 1.4 1.9 1.4 2 0 1.9-.4-.5-1.7-1.5-.8-1.8-.8-1.4.3zM554 148c0 .5.5 1 1.1 1 .5 0 .7-.5.4-1-.3-.6-.8-1-1.1-1-.2 0-.4.4-.4 1zM361.5 208c-1.3.6-1.5.9-.5.9.8 0 2.2-.4 3-.9 1.8-1.2.2-1.2-2.5 0zM367.8 207.7c.7.3 1.6.2 1.9-.1.4-.3-.2-.6-1.3-.5-1.1 0-1.4.3-.6.6zM352.5 210c-.3.5-.1 1 .4 1 .6 0 1.1-.5 1.1-1 0-.6-.2-1-.4-1-.3 0-.8.4-1.1 1zM414.4 209.7c-1.2.2-3.4 1.8-5 3.6-2.5 2.7-2.5 2.9-.4 1.2 1.4-1.1 2.7-2.3 3-2.7.3-.4 2.8-1.1 5.5-1.6 3.1-.6 3.9-1 2-1-1.6.1-4 .3-5.1.5zM423 210.2c0 .5 1.8.8 4 .8s4-.2 4-.4-1.8-.6-4-.8c-2.2-.2-4 0-4 .4zM434.8 211.7c.7.3 1.6.2 1.9-.1.4-.3-.2-.6-1.3-.5-1.1 0-1.4.3-.6.6zM422 227.6c-7.7 4.3-10.8 8.2-8 9.9.6.3 1.4-.5 1.9-1.8 1.2-3.2 5.4-6.4 10.1-7.8 5-1.5 13.8-.4 17 2.2 2.4 1.9 2.4 2 .2.9-8.7-4.2-22-2-25.3 4.2-1.7 3.2.2 4.1 9.8 4.3 4.8.1 11.6.5 15.1 1 6.6.8 7.3.4 5.2-3.5-.6-1.1-.6-2.1-.1-2.5.5-.3 1.5 1.1 2.2 3 1.2 3.2 3.9 4.9 3.9 2.5 0-2.6-5.5-9.4-9.7-12-6.4-4.1-15.6-4.2-22.3-.4zm16 8c0 .6-.7 1.4-1.5 1.8-1.2.4-1.5-.3-1.5-3.2.1-3.5.2-3.6 1.5-1.8.8 1.1 1.5 2.5 1.5 3.2zm3.9-3.2c3.4 1.8 6.5 6.2 5 7.2-.6.3-3.1.3-5.5-.1-3.8-.5-4.3-.9-3.3-2.1.9-1.1.9-2.1.1-3.9-1.4-2.9-.4-3.2 3.7-1.1zm-14.6.3c-1.8.7-1.6 2.3.3 2.3 1.4 0 1.4.2-.1 1.6-1.9 1.9-2.2 1.7-2.8-1.7-.4-2-.1-2.5 1.7-2.6 1.1 0 1.5.1.9.4zm-4.5 5.1c-.4.2-1.5.2-2.3 0-1.4-.3-1.3-.6.2-2.8l1.7-2.4.6 2.4c.4 1.4.3 2.6-.2 2.8zM327.7 248.1c-.9.6-1.7 1.5-1.7 2 0 .6.5.7 1.2.3.8-.5.9-.2.5.9-.3 1-.4 1.7-.1 1.7.5 0 2.6-5.1 2.2-5.6-.2-.1-1.1.2-2.1.7zM333.6 258.1c.3.6 0 1.6-.7 2.1-1.2.8-1.1.9.1.5 1.8-.4 2.7-3.7 1-3.7-.6 0-.8.5-.4 1.1zM333.5 262.9c-.3.5-.2 1.2.3 1.5.5.3.9-.1.9-.9 0-1.7-.3-1.9-1.2-.6zM617.5 298.9c0 1.6.4 2.7.8 2.4.5-.3 1.7.3 2.8 1.2 2 1.9 10.7 3.2 13.6 2 1.7-.7 1.7-.8-.2-1.5-1.9-.8-1.9-.9.2-.9 1.2-.1 2.5-.6 2.8-1.1.4-.6-1.3-1-4.4-1-2.8 0-7.4-.9-10.3-2-2.9-1.1-5.3-2-5.3-2v2.9zM624.4 314.1c-.4.7.1 1.6 1 2.1 1.6.9 1.6 1.1 0 2.9-.9 1-1.3 1.9-.7 1.9.5 0 1.8-.9 2.8-2 1-1.1 1.3-2 .7-2-.7 0-1.2-.5-1.2-1.1 0-.6.7-.8 1.6-.5.9.3 1.2.2.9-.5-.4-.5-1.6-.7-2.7-.3-1.4.4-1.8.2-1.4-.5.4-.6.5-1.1.2-1.1s-.8.5-1.2 1.1zM457 277c-.8.5-1.2 1.2-.9 1.5.4.3 1.2-.1 1.9-1 1.4-1.7 1.1-1.9-1-.5zM345.6 301.2c-4.2 11.6-5.9 31.1-3.6 40.7.7 2.9 1.4 5 1.6 4.8.2-.2-.1-4.2-.7-8.9-1.2-10.2 0-24.2 3.1-33.9 2.2-7.2 2-9.2-.4-2.7zM386.7 340.9c-1.7 7.9-.2 21.1 2.5 21.1.7 0 .8-2 .4-5.8-.4-3.1-1-8.6-1.4-12.2-.6-5.9-.8-6.2-1.5-3.1zM440.5 345.1c-5.9 4.5-6.7 5.7-1.2 1.8 4.2-2.9 6.5-5 5.5-4.9-.2 0-2.1 1.4-4.3 3.1zM451.5 344.5c-2.7 1.4-7.2 3.3-9.9 4.5-2.7 1.1-4.7 2.3-4.4 2.6.8.8 15.9-5.3 18.8-7.6 3.3-2.6 1.6-2.4-4.5.5zM677.8 329.1c.6.9 1 1.8.7 2-.2.3.5.6 1.7.6 1.1.1 1.9.1 1.7 0-.2-.1-1.5-1.1-2.9-2.2-1.5-1.2-2-1.4-1.2-.4zM684.8 331.7c.7.3 1.6.2 1.9-.1.4-.3-.2-.6-1.3-.5-1.1 0-1.4.3-.6.6zM414.5 317c-.3.6.1.7.9.4 1.8-.7 2.1-1.4.7-1.4-.6 0-1.3.4-1.6 1zM635.5 363c.3.5.8 1 1.1 1 .2 0 .4-.5.4-1 0-.6-.5-1-1.1-1-.5 0-.7.4-.4 1zM577.1 380.7c0 3.1.2 3.4.9 1.8 1.2-2.8 1.2-5.5 0-5.5-.5 0-1 1.7-.9 3.7zM574.7 417.7c-.4.3-.7 1.6-.6 2.7 0 1.9.1 1.9 1-.3 1-2.4.8-3.6-.4-2.4zM586 438.5c0 .8.5 1.5 1 1.5.6 0 1-.7 1-1.5s-.4-1.5-1-1.5c-.5 0-1 .7-1 1.5zM582.6 438.9c-.3.5.1 1.4.9 2.1 1.1.9 1.4.8 1.2-.9-.1-2.2-1.2-2.8-2.1-1.2zM589.6 441.5c-.3.8-.1 1.5.4 1.5.6 0 1-.7 1-1.5s-.2-1.5-.4-1.5-.6.7-1 1.5zM423.1 446.6c0 1.1.3 1.4.6.6.3-.7.2-1.6-.1-1.9-.3-.4-.6.2-.5 1.3zM201.5 441c2.8 1.2 8.5 1.2 8.5 0 0-.6-2.4-1-5.2-.9-3.9 0-4.8.3-3.3.9zM232.9 412.5c1.6 3.2 5.9 8.1 6.5 7.4.4-.3-1.2-2.6-3.4-5-2.3-2.4-3.7-3.5-3.1-2.4zM236 423.8c0 .5.7 1.5 1.5 2.2.8.7 1.5.8 1.5.2 0-.5-.7-1.5-1.5-2.2-.8-.7-1.5-.8-1.5-.2zM575 406c0 1.6.4 3 .8 3 .5 0 .7-1.4.4-3-.2-1.7-.6-3-.8-3-.2 0-.4 1.3-.4 3zM388.1 487.6c0 1.1.3 1.4.6.6.3-.7.2-1.6-.1-1.9-.3-.4-.6.2-.5 1.3zM381.8 488.7c.7.3 1.6.2 1.9-.1.4-.3-.2-.6-1.3-.5-1.1 0-1.4.3-.6.6zM364.2 438.4c.1 1.4.5 2.3.9 2 .7-.4 0-4.4-.7-4.4-.2 0-.3 1.1-.2 2.4zM590 454.5c0 .6.5 1.6 1.2 2.3.7.7.8 1.2.4 1.2-.5 0-.3.7.4 1.5 1.7 2.1 3.3 1.9 2.1-.3-1.7-3-4-5.7-4.1-4.7zM577.2 461.4c-1.6 2.7-1.2 4.4 1.1 3.9 1.5-.3 1.8-.2.9.5-.9.6.2.9 3.3 1 2.5 0 4.3-.4 3.9-.9-.8-1.3 1-1.1 2.4.3.6.6 1.4 1 1.6.7.3-.3-1.1-1.8-3.1-3.4-3.7-2.9-8.9-4-10.1-2.1zm6.8.6c1.3.9 1.3 1.1 0 2-2 1.3-4 1.3-4-.1 0-.5-.4-.7-1-.4-.5.3-1 .1-1-.4 0-1.4.6-1.4 3.1-.1 1.1.7 1.9.7 1.9.1 0-.5-.6-1.2-1.2-1.4-.7-.3-.8-.6-.3-.6.6 0 1.7.4 2.5.9zM417.2 474.3c-2.1 2.2-2.1 2.3-.2 3.5 1.6 1 2 1 1.8 0-.2-.7.5-1.2 1.4-1.2 1 .1 1.5-.3 1.2-.8-.3-.5-1.2-.7-2-.4-.8.3-1.4.1-1.4-.4s.8-1 1.8-1.2c1.1-.2 1.3-.6.6-1-.6-.4-2.1.3-3.2 1.5zM412.5 479c-.3.5-.1 1 .4 1 .6 0 1.1-.5 1.1-1 0-.6-.2-1-.4-1-.3 0-.8.4-1.1 1zM415 479.5c0 .8-.5 1.5-1.2 1.5-.6 0-.9.2-.6.5.3.3 1.3.3 2.2-.1 1.7-.7 2.2-3.4.6-3.4-.5 0-1 .7-1 1.5zM405.9 483.7c-1.3 1.6-1.2 1.7.4.4 1.6-1.3 2.1-2.1 1.3-2.1-.2 0-1 .8-1.7 1.7zM420.6 482.5c-.3.9 0 1.5.9 1.5s1.2-.6.9-1.5c-.4-.8-.7-1.5-.9-1.5-.2 0-.5.7-.9 1.5zM353.3 493.7c-.9.3-.8 1.1.5 3.1 1.6 2.4 1.6 2.6 0 2-1.4-.6-1.7-.1-1.7 2 0 1.5-.3 4.2-.7 5.9-.5 2.8-.3 3.3 1.2 3.3 1.6 0 1.7.2.4 1.1-1.2.8-1.2 1-.1.7.8-.2 1.5-1.1 1.7-2 .1-.9-.3-1.5-1-1.2-1.6.6-1.8-3.2-.1-4.6.9-.8 1.5-.8 2 0 .4.6.1.9-.6.8-.6-.2-1.3.2-1.6.9-.3.8.7 1.1 2.9.9 1.8-.2 3.9.1 4.6.7 2.5 2 2.3-.1-.3-2.7-2.2-2.2-2.4-3-1.5-4.1 1-1.2 1-1.5-.1-1.5-.9 0-1-.3-.3-.8 1.6-1 1.4-4.4-.3-3.7-4.9 2-4.9 2-3.4.2 1.3-1.7.8-2-1.6-1zm5.2 3.3c-.3.5-1.1 1-1.6 1-.6 0-.7-.5-.4-1 .3-.6 1.1-1 1.6-1 .6 0 .7.4.4 1zm-.5 3c0 .5-.4 1-1 1-.5 0-1-.5-1-1 0-.6.5-1 1-1 .6 0 1 .4 1 1z"/><path d="M361.2 502.6c1 1 2 1.5 2.4 1.2.3-.4-.5-1.2-1.8-1.8-2.2-1.2-2.2-1.2-.6.6zM355.5 508.9c.2.9.4 2.2.4 2.9.1.7.6 1 1.2.7.6-.4.8-1.3.5-2.1-.3-.8 0-1.4.6-1.4 1.5 0 .1-1.3-1.6-1.6-.8-.1-1.3.5-1.1 1.5zM430.2 545.5c0 1.6.2 2.2.5 1.2.2-.9.2-2.3 0-3-.3-.6-.5.1-.5 1.8zM405.6 561.2c.3.4-.2.8-1 .8-1.8 0-2.1 1.6-.6 2.5.6.3 1.3-.1 1.6-.9.3-.9 1.2-1.6 2-1.6s1.4-.4 1.4-.8-.9-.8-1.9-.8c-1.1 0-1.7.4-1.5.8zM346.4 558c.1 2.7.4 3 3.2 3 1.7 0 3.7-.7 4.4-1.5 1.6-2 .1-3.8-2-2.5-1 .7-1.1 1-.2 1 .6 0 1.2.4 1.2 1 0 2.2-4 .9-4.6-1.5-.9-3.5-2.1-3.1-2 .5zM343.8 597c-.3 1.7-.1 3 .3 3 1 0 1.8-5 .9-5.5-.4-.3-1 .9-1.2 2.5zM368 572.5c0 .8.7 1.5 1.6 1.5 1.8 0 5.8 4 4.9 4.9-.4.3-1-.1-1.5-.9-.7-1.2-1-1.1-1.6.4-.5 1.4-.1 2.5 1.5 3.8 2.3 1.8 4.1 1.6 4.1-.3 0-.6-1-.9-2.2-.7-1.1.2-2.3-.2-2.5-.8-.2-.7.7-1 2.7-.8 1.6.2 3-.1 3-.7s-.4-.7-1-.4c-.6.4-.7-.1-.3-1.1.4-1.1.8-1.3 1.1-.6.2.7.8 1.2 1.3 1.2.6 0 .7-.5.3-1.2-.4-.7-.3-.8.5-.4.9.6.9 1.1-.1 2.3-1.1 1.4-1 1.5 1 .9 1.2-.4 2.2-.3 2.2.2s.7.9 1.5.9 1.5-.4 1.5-.9c0-.4-.6-.8-1.4-.8-.8 0-1.7-.7-2-1.5-.5-1.4-.4-1.4 1.6 0 3.1 2.1 3.5 1.9 3.6-1.5.1-3.2-.2-3.3-11.3-4.4-3.5-.4-4.3-.2-2.5.4 1.4.4 4.2.8 6.2.9 2 .1 4 .6 4.4 1.2.5.8 0 1-1.7.6-1.3-.3-4.8-.9-7.6-1.3-2.9-.3-5-1-4.7-1.5.3-.5-.2-.9-1-.9-.9 0-1.6.7-1.6 1.5zM369.6 592.9c-.4.7-.5 1.5-.2 1.8.9.9 1.9-.4 1.4-1.8-.4-1.1-.6-1.1-1.2 0zM370 597c0 .5.5 1 1 1 .6 0 1-.5 1-1 0-.6-.4-1-1-1-.5 0-1 .4-1 1zM393 597.1c0 .5.5.7 1 .4.6-.3 1-.8 1-1.1 0-.2-.4-.4-1-.4-.5 0-1 .5-1 1.1zM394.7 601c.3 1.1.7 2 .9 2 .2 0 .4-.9.4-2s-.4-2-.9-2-.7.9-.4 2zM384.5 604c-.8 1.3 3.3 10 4.6 10 .6 0 .7.5.3 1.2-.4.7-.3.8.4.4 1.2-.7.5-3.6-.9-3.6-.4 0-.6-.7-.3-1.5.4-.8.1-1.5-.6-1.5-.6 0-.8-.5-.5-1 .3-.6 0-1.3-.9-1.6-.8-.3-1.2-1.2-.9-2 .6-1.6-.3-1.9-1.2-.4zM396 605.9c0 .5.5 1.3 1 1.6.6.3 1 .2 1-.4 0-.5-.4-1.3-1-1.6-.5-.3-1-.2-1 .4zM397.4 610.3c.3 1 .6 2.5.6 3.2 0 .7.7 1.5 1.5 1.8 1.2.5 1.2.2.3-2.1-1.4-3.2-3.4-5.6-2.4-2.9zM374.1 612.6c0 1.1.3 1.4.6.6.3-.7.2-1.6-.1-1.9-.3-.4-.6.2-.5 1.3zM415.4 666.6c-3.3 3.1-10.5 7.8-16.1 10.4-2.9 1.4-5.3 2.8-5.3 3.3 0 .4-.6.5-1.2.1-.8-.5-.7 0 .2 1.1 1.4 1.7 1.4 1.8-.7.7-3.3-1.8-3.8-1.4-1.2.8l2.4 2-3.1-1.5c-2.9-1.4-6.9-1.2-6 .4.2.3-.9.6-2.6.7-3.8.2-5.7 1.9-3.9 3.6 1.1 1.1 1.3 1 .7 0-1.1-1.9 2.1-2.6 3.9-.8 1.1 1.1 1.2 1.6.4 1.6-.7 0-1 .3-.7.6.8.8 6.8-2.4 6.8-3.6 0-.6-.7-1-1.6-1-.8 0-1.3-.4-.9-.9.3-.6 1.6-.4 3.1.4 2 1 3.2 1.1 5.1.2 1.7-.8 2-1.3 1.1-1.9-1.3-.8-1-.9 3.2-1.2.8-.1 1.4-.4 1.3-.9-.2-.4-.3-.9-.3-1.2 0-.2-1.1 0-2.5.5s-2.5.7-2.5.4c0-1.1 4.6-2.1 6.1-1.4 1.6.9 4.3-.3 4.5-2 .1-.5.2-1.5.3-2.1 0-.6 1-.9 2.1-.6 1.1.3 2 0 2-.6s.3-.8.6-.5c.7.7 4.4-2.8 4.4-4.1 0-.6.5-1.3 1.2-1.7.7-.5.8-.2.3.7-.6 1.1-.5 1.1.5.2.7-.6 1-1.7.8-2.4-.3-.9-1-.7-2.4.7zm-2.4 3.9c0 .2-1 .9-2.2 1.5-2.2 1.1-2.2 1-.4-.4 2.1-1.7 2.6-1.9 2.6-1.1zm-9 6.9c0 .3-.4.8-1 1.1-.5.3-1 .1-1-.4 0-.6.5-1.1 1-1.1.6 0 1 .2 1 .4zM407.5 577c.3.5.8 1 1.1 1 .2 0 .4-.5.4-1 0-.6-.5-1-1.1-1-.5 0-.7.4-.4 1zM410.5 582c-.3.5-.1 1 .4 1 .6 0 1.1-.5 1.1-1 0-.6-.2-1-.4-1-.3 0-.8.4-1.1 1zM412.6 585.8c-.8 1.4.2 3.9 1.9 4.6 2.4.9 2.9-1.5.7-3.6-1.2-1.2-2.2-1.6-2.6-1zm2.9 3.1c-.6.5-2.5-1-2.5-2 0-.5.6-.4 1.4.3.8.7 1.2 1.5 1.1 1.7zM414 593.1c.7 1.1 1.4 1.9 1.6 1.6.7-.7-.7-3.7-1.7-3.7-.6 0-.5.9.1 2.1zM416 591.9c0 .5.5 1.3 1 1.6.6.3 1 .2 1-.4 0-.5-.4-1.3-1-1.6-.5-.3-1-.2-1 .4zM423 600c0 .5.5 1 1.1 1 .5 0 .7-.5.4-1-.3-.6-.8-1-1.1-1-.2 0-.4.4-.4 1zM424.7 606.5c-.9.9-1.7 2.2-1.7 2.8.1.7.9.2 2-1.1 1.8-2.2 1.9-2.2 2.5-.2.3 1.1.4 2.3.2 2.8-.3.4.2 1.6 1 2.7 1.5 1.9 1.5 1.9.9-.8-.4-1.7-.3-2.6.3-2.3.5.3 1.2 0 1.4-.6.4-1 .6-1 .6-.1.1.7.6 1.3 1.2 1.3.8 0 .8-.5-.1-1.5-.7-.8-1.6-1.2-2.1-.9-.5.3-1.8-.4-2.7-1.6-1.7-2.1-1.9-2.1-3.5-.5zM426 633.1c0 .5.5.7 1 .4.6-.3 1-.8 1-1.1 0-.2-.4-.4-1-.4-.5 0-1 .5-1 1.1zM423 647.4c0 .8.4 1.7.9 2 .5.4.7-.3.4-1.4-.6-2.3-1.3-2.6-1.3-.6zM471.7 702.5c-1.4 2-1.7 3.5-1.1 7 .7 5.3 1.9 5.2 2.2-.2.1-2.1.5-5 .8-6.6.7-3.3.4-3.3-1.9-.2zm0 4.7c-.3.7-.5.2-.5-1.2s.2-1.9.5-1.3c.2.7.2 1.9 0 2.5zM473.6 710.9c-.3.5.1 1.1.9 1.5.8.3 1.5.1 1.5-.4 0-1.3-1.8-2.2-2.4-1.1zM472.4 715.6c-.4 1.4-.2 2.9.3 3.3.6.3.9 1.8.7 3.3-.2 2.5 0 2.7 1.6 1.8 2.3-1.2 3.4-2.9 2.5-3.8-.3-.3-1 0-1.5.8-1.3 2-1.2 1 .1-3 .9-2.6.9-3.4-.2-4.1-2.2-1.4-2.8-1.1-3.5 1.7zM438.5 723.5c1.6 7 4.8 16.9 5.2 16 .3-1.1-4.3-17.4-5.3-18.4-.3-.3-.3.8.1 2.4zM469.6 732.9c-.4.6-.2 1.1.4 1.1.7 0 1 .6.7 1.4-.3.8.1 1.7.9 2 1.7.7 1.7-.2 0-3.3-.8-1.5-1.6-2-2-1.2zM471.5 740c.3.5.8 1 1.1 1 .2 0 .4-.5.4-1 0-.6-.5-1-1.1-1-.5 0-.7.4-.4 1zM398 578c-1.2.8-1.1 1 .8 1 1.2 0 2.2-.5 2.2-1 0-1.3-1.1-1.3-3 0zM404 581c0 .5.5 1 1 1 .6 0 1-.5 1-1 0-.6-.4-1-1-1-.5 0-1 .4-1 1zM399.1 586.6c0 1.1.3 1.4.6.6.3-.7.2-1.6-.1-1.9-.3-.4-.6.2-.5 1.3zM351.6 591.6c-.3.9-.3 2 0 2.6.4.6 0 1.4-.7 1.9-.7.4-1 1.1-.6 1.5 1.1 1.2 2-.3 2.3-4.1.3-3.8 0-4.4-1-1.9zM353.4 608.5c-.4.8-.3 2.7 0 4.1.6 2.1 1 2.4 1.9 1.4.9-1 .9-1.4 0-1.7-.8-.3-1.1-1.4-.7-2.9.7-2.6-.3-3.3-1.2-.9zM355.6 618.1c-.7 3.5-.8 14.5-.2 13.8.5-.5 1.7-16.9 1.2-16.9-.2 0-.6 1.4-1 3.1zM354.1 635.6c0 1.1.3 1.4.6.6.3-.7.2-1.6-.1-1.9-.3-.4-.6.2-.5 1.3zM353.2 641.5c0 1.6.2 2.2.5 1.2.2-.9.2-2.3 0-3-.3-.6-.5.1-.5 1.8zM352.2 647c0 1.4.2 1.9.5 1.2.2-.6.2-1.8 0-2.5-.3-.6-.5-.1-.5 1.3zM342 678.9c0 .5.5 1.3 1 1.6.6.3 1 .2 1-.4 0-.5-.4-1.3-1-1.6-.5-.3-1-.2-1 .4zM447.6 614.3c.3 1 .9 1.5 1.2 1.2.3-.3 0-1.1-.7-1.8-1-.9-1.1-.8-.5.6zM455 630.9c0 .6.4 1.3 1 1.6.6.3.7-.1.4-.9-.7-1.8-1.4-2.1-1.4-.7zM440.6 621.8c-.3.5.1.9.9.9s1.2-.4.9-.9c-.3-.4-.7-.8-.9-.8-.2 0-.6.4-.9.8zM448.9 630.2c.7.9.9 2.3.5 3-.6 1-.4 1.1.7 0 1.1-1 1-1.5-.6-3-1.7-1.5-1.8-1.5-.6 0zM451.2 634.2c-1.3 1.3-1.6 2.9-.4 2.7.4-.1.9 0 1.2.1 1.6.6 4.1.7 3.5.2-.4-.4-1.2-.7-1.8-.7-.7 0-1.1-.8-1.1-1.8.2-2 .1-2-1.4-.5zM601.1 661.5c-.1 1.9 1.7 3.8 2.9 3 .9-.6 1.1-.4.5.6-.7 1.2-.5 1.2.6.1 1.2-1.1 1.2-1.4-.1-2.2-.8-.5-1.7-.7-2.1-.4-.4.2-1-.2-1.2-.8-.3-.7-.6-.9-.6-.3z"/><path d="M606.1 665.9c-.8.5-2.1.7-3 .4-.9-.3.3 1.3 2.5 3.5 2.3 2.3 3.9 4.4 3.5 4.8-.3.4 0 .4.7 0s1-1.1.7-1.6c-.3-.5.2-1.3 1.1-1.8 1.1-.6 1.3-1.1.5-1.6-.6-.4-1.1-.2-1.1.5 0 .8-.3.9-1.3 0-.8-.6-1.6-.9-1.9-.6-.3.3-1.1-.3-1.9-1.2-1.3-1.6-1.2-1.7.3-.5 1.2.9 1.8 1 2.3.2 1-1.6-.7-3.1-2.4-2.1zM613.5 674.3c.9 1.3 1.1 2.5.5 3.2-.7.8-.5 1.2.5 1.2.8 0 1.3-.3 1-.5-.3-.3 0-1.1.7-1.9 1.3-1.6-.1-3.5-2.7-3.9-1.3-.2-1.3 0 0 1.9zm2.3 1.2c-.3.3-.9-.2-1.2-1.2-.6-1.4-.5-1.5.5-.6.7.7 1 1.5.7 1.8zM631.3 689.5c0 .8.4 1.2.9.9.5-.3.6-1 .3-1.5-.9-1.3-1.2-1.1-1.2.6zM629.2 691.6c1 1 2 1.6 2.2 1.3.3-.3-.5-1.1-1.7-1.8-2.1-1.3-2.1-1.2-.5.5zM633 693c0 .5.5 1 1.1 1 .5 0 .7-.5.4-1-.3-.6-.8-1-1.1-1-.2 0-.4.4-.4 1zM359.2 677c0 1.4.2 1.9.5 1.2.2-.6.2-1.8 0-2.5-.3-.6-.5-.1-.5 1.3zM358.6 682.5c-.3.8-.8 3.8-1 6.7l-.5 5.3.9-4.4c1.3-6.3 2.1-7.4 1.4-2.2-.4 3.1-.3 4.1.5 3.7 1.3-.8 1.5-10.6.2-10.6-.5 0-1.1.7-1.5 1.5zM360.1 699.7c0 .4.4 1.7.9 2.8.8 1.9.9 1.9.9-.2.1-1.2-.3-2.5-.9-2.8-.5-.3-1-.3-.9.2zM357.2 727.5c0 1.6.2 2.2.5 1.2.2-.9.2-2.3 0-3-.3-.6-.5.1-.5 1.8zM357.2 735.5c0 1.6.2 2.2.5 1.2.2-.9.2-2.3 0-3-.3-.6-.5.1-.5 1.8zM356.1 746.6c0 1.1.3 1.4.6.6.3-.7.2-1.6-.1-1.9-.3-.4-.6.2-.5 1.3zM356.1 751.6c-.2 4 1.2 11.4 2.1 11.4.6 0 .7-1.1.3-2.8-.5-1.5-1.1-4.5-1.5-6.7-.4-2.2-.8-3.1-.9-1.9zM358.2 752c0 1.4.2 1.9.5 1.2.2-.6.2-1.8 0-2.5-.3-.6-.5-.1-.5 1.3zM360.1 756.6c0 1.1.3 1.4.6.6.3-.7.2-1.6-.1-1.9-.3-.4-.6.2-.5 1.3zM360.2 760.5c.1 1 .9 2 1.6 2.1.7.1.8 0 .2-.3-.5-.2-.8-.9-.5-1.3.3-.5 0-1.2-.6-1.5-.7-.5-1-.1-.7 1zM329.5 705.2c-1.1 2.5-1.5 2.8-1.5 1.3-.1-1.1-.4-1.5-.6-.8-.3.7-.2 1.9.3 2.6.6 1.1 1.3.7 3-1.9 1.2-1.9 1.8-3.6 1.2-3.9-.5-.4-1.6.9-2.4 2.7zM323.8 762.7c.6.2 1.8.2 2.5 0 .6-.3.1-.5-1.3-.5-1.4 0-1.9.2-1.2.5zM569.2 724.6c-1.1 1.3-1.1 1.9.2 3.9 2.2 3.4 2.7 3.1 2.2-1.1-.6-4.4-.7-4.6-2.4-2.8zM579.5 740.1c-.4.6-.3 1.5.3 2.1.6.6 1.1.4 1.5-.6.7-1.8-.9-3.1-1.8-1.5zM549 728.9c-1.3 2.5-1.3 3.1.2 3.1.6 0 .8-.3.5-.6-.3-.4-.2-1.5.4-2.5.5-1.1.7-1.9.5-1.9-.3 0-1 .9-1.6 1.9zM533.9 751.7c-1.3 1.6-1.2 1.7.4.4.9-.7 1.7-1.5 1.7-1.7 0-.8-.8-.3-2.1 1.3zM525.9 760.7c-1.1 1.5-1.1 1.6.1.5 2-1.7 3.5-1.5 2 .3-.9 1-.9 1.5-.1 1.5.6 0 1.1-.5 1.1-1.1 0-.5.5-.7 1.1-.3 1.7 1-1.2 2.5-3.5 1.8-1.2-.4-1.6-.2-1.2.5.6.9 2.9 1 7.9.2 1.6-.2.6-1.9-2-3.2-1.6-.7-3.1-1.5-3.4-1.7-.3-.1-1.2.5-2 1.5zM583.5 751c-.4.6-1.2.7-1.8.3-.7-.3-.4.3.6 1.4.9 1.1 1.5 2.3 1.2 2.6-.3.4-.2.4.3.1.4-.3.7-.9.7-1.2 0-.4.4-1.2.8-1.9.4-.6.3-1.4-.2-1.7-.5-.4-1.2-.2-1.6.4zM514.2 772.9c-2.3 3.1-2.3 3.1-.2 3.1 1.2 0 1.9-.4 1.5-.9-.3-.5-.1-1.2.5-1.6.5-.3 1-.1 1 .4 0 .6.8 1.1 1.7 1.1 1.5 0 1.5-.1.1-1.3-.9-.6-1.7-1.8-2-2.5-.2-.8-1.2-.2-2.6 1.7zM508 776c1.9 1.3 3 1.3 3 0 0-.6-1-1-2.2-1-1.9 0-2 .2-.8 1zM485 765.9c0 1.1-.5 2.3-1 2.6-.6.4-.8 1.1-.4 1.6.3.5.9.7 1.3.5.8-.5 1.4-6.6.6-6.6-.3 0-.5.9-.5 1.9zM585 764.7l2.3 1.6-2.3 1.9c-1.2 1-1.9 1.8-1.5 1.8.4 0 1.8-.9 3.1-1.9 2.3-1.8 2.4-2 .7-3.1-1.6-1.1-1.7-1.1-.1-.6 1 .3 2.8.2 4-.3 1.8-.7 1-.9-3.1-.9-5.2-.1-5.3 0-3.1 1.5zM576.9 769.2c-.7 2.5-.4 3.4 1.3 3.4 1.7 0 1.7-.2.4-1.2-.9-.6-1.3-1.4-.9-1.7.3-.4.3-.7 0-.7-.4 0-.7.1-.8.2zM564.9 771.4c.7.9 1.7 1.3 2.2 1 .5-.3.6.1.3.9s.2 1.7 1.1 2.1c.9.3 1.3 1.1 1 1.7-.4.6.2.5 1.4-.3 2.2-1.4 2.8-2.8 1.1-2.8-.5 0-1 .6-1 1.2-.1.7-.9-.1-1.8-1.7-.9-1.7-2.6-3.2-3.6-3.3-1.7-.3-1.8-.2-.7 1.2zM631.6 771.8c-.3.6-.1 1.4.5 1.7 1.4.9 2 .2 1-1.4-.6-.8-1.1-.9-1.5-.3zM647 776.1c0 .5.5.7 1 .4.6-.3 1-.8 1-1.1 0-.2-.4-.4-1-.4-.5 0-1 .5-1 1.1zM483.2 776.6c-1.4 1.6-.5 1.8 1.7.5.7-.5.9-1.1.5-1.4-.5-.3-1.5.1-2.2.9zM186.3 358.7c2 .2 5.4.2 7.5 0 2-.2.3-.4-3.8-.4s-5.8.2-3.7.4zM176.8 742.7c-4.1 1-1.3 2.3 5 2.3 4.1 0 6.1-.4 5.2-.9-2-1.1-8.1-2-10.2-1.4zM182 747.6c0 1 9.2 3.5 9.9 2.8.3-.3 0-.9-.6-1.5-1.4-1.4-9.3-2.4-9.3-1.3zM187.1 752.4c.2.2 2.2 1.4 4.3 2.6 2.9 1.6 4.2 1.8 5 1 1.6-1.7-2-4-6.3-4-1.9 0-3.2.2-3 .4zM163.1 775c-2.4 1.1-6.5 3.4-9.2 5.2-4.2 2.7-4.8 3.4-3.6 4.6 1.8 1.8 14.4 3.3 21.9 2.7 11.7-1 16.4-6.5 7.8-9-1.4-.4-4.4-1.8-6.7-3.1-5-2.9-4.7-2.9-10.2-.4zm13.1 4.6c3.7 1.9 4.8 2.8 3.7 3.4-2 1.1-24.2 2-25.7 1.1-1.4-.8 11.8-7 15.1-7.1 1 0 4.1 1.2 6.9 2.6zM191.3 788.5c-6.6 2.8-2.5 7.2 5.8 6.2 5.2-.6 10.9-3.1 10.9-4.8 0-2.8-11.2-3.8-16.7-1.4zm12.7 1.3c0 1.4-6.4 2.9-9.8 2.4-2.6-.3-3-.7-2.1-1.8 1.2-1.5 11.9-2 11.9-.6zM136.5 788.9c-.8 1.5.3 3.1 2.1 3.1.9 0 1.4-.7 1.2-1.7-.4-2-2.4-2.8-3.3-1.4zM587 796.9c0 .9 2.4 2.1 4.2 2.1.6 0 .6-.6-.2-1.5-1.4-1.6-4-2-4-.6zM574.7 798.1c1.5 1.5 8.2 2.9 8.9 1.8 1.1-1.8-.9-2.9-5.4-2.9-3.3 0-4.3.3-3.5 1.1zM236.8 801.3c-2.1.6-3.8 1.4-3.8 1.8 0 .4 1.7.5 3.8.2 5-.7 11.2-2.3 11.2-2.8 0-.8-7.3-.3-11.2.8zM459.1 804.2c-6.7 3.4-8.3 5.1-5.7 6.1 2.5 1 21.4 2.7 31.1 2.9 7.4.1 9.4.4 11.2 2 1.1 1.1 3.8 2.3 5.8 2.8 6.7 1.5 45.7-2.3 57.3-5.6 7.3-2.1 6.8-4.4-1.3-6.1-9.6-2.1-30.7-2.6-40.7-1.1-7.7 1.2-8.8 1.2-8.5-.1.3-2.2-3.3-2.8-23.8-3.5l-19-.6-6.4 3.2zm30.9-.2c8.5.6 15.6 1.3 15.9 1.6.9.8-.9 1.7-5.5 2.5-2.7.5-5.1 1.4-5.5 2-.8 1.4-12.6 1.3-26.4 0-5.5-.6-10.9-1.1-12-1.1-1.3 0 .2-1.3 4-3.4 4.7-2.7 6.9-3.3 10-3 2.2.2 11 .9 19.5 1.4zm60.4 3.5c4.3.7 8 1.6 8.2 1.8 1.2 1.2-14.5 3.9-29.9 5.2-23.4 2-28.6 1.9-31.5-.5-3.2-2.6-2-4 3.6-4.1 2.6 0 9.4-.8 15.2-1.9 12.8-2.2 23.9-2.4 34.4-.5zM211.8 802.7c-2.6.6-2.2 2.3.5 2.3 3.3 0 6.7-1.1 6.7-2.1 0-.9-4.1-1-7.2-.2zM618.8 805.8c-7.1 1.7-7.8 3.8-1 2.8 2.6-.4 5.8-.7 7.2-.6 3.1 0 9-1.9 9-3 0-1.2-8.9-.8-15.2.8zM291 806.6c0 1.3-.7 1.5-4 .9-2.3-.4-4.6-.3-5.3.3-.7.5-8.8 2.6-18.2 4.6-18.1 3.9-21.5 5-21.5 6.5 0 2.3 4.9 5.3 12.6 7.6 7.8 2.4 9.3 2.5 34 2.5 14.1 0 25.5-.2 25.3-.5-.3-.2-11-.7-23.9-1-12.9-.4-25.6-1-28.1-1.5-5.8-1.2-15.9-4.9-15.9-5.9 0-.5 3.7-1.6 8.3-2.6 4.5-1 12.5-3 17.7-4.6 9.1-2.7 10-2.7 21-1.9 11.1.9 47 8.6 47 10.1 0 1.1-11.3 5.8-15.8 6.5-2.3.4-4.2 1-4.2 1.5 0 1 5.7.2 12.8-1.8 4.8-1.3 11.2-5.5 11.2-7.2 0-.4-4.6-1.8-10.2-3.1-5.7-1.3-9.4-2.5-8.3-2.7 5.5-1 14.5-3.7 14.5-4.3 0-1-4.4-2.7-10-4-2.5-.5-12.3-1-21.7-1-15.2 0-17.3.2-17.3 1.6zm24.5.4c22.5 1.5 25.6 2.8 11.5 5-8.6 1.3-12.9 1-24.9-2.1-14.8-3.9-11.7-4.6 13.4-2.9zM226.5 808c.3.5 1 1 1.6 1 .5 0 .9-.5.9-1 0-.6-.7-1-1.6-1-.8 0-1.2.4-.9 1zM574.5 808.5c-2.9 1.3-2.7 1.3 4.3 1.4 6.8.1 9.2-.9 5.6-2.3-2.5-1-6.7-.6-9.9.9zM373.4 808.9c.6.9 8.5 3.1 11.3 3.1 1 0 2.5-.5 3.3-1 1.3-.9 1.3-1.1 0-2-1.9-1.2-15.3-1.3-14.6-.1zM604 809c0 .5.9 1 1.9 1 1.1 0 2.3-.5 2.6-1 .4-.6-.5-1-1.9-1s-2.6.4-2.6 1zM355.5 810c.3.5.8 1 1.1 1 .2 0 .4-.5.4-1 0-.6-.5-1-1.1-1-.5 0-.7.4-.4 1zM571.5 814c-.4.6 1.3 1 4.4 1 2.8 0 5.1-.5 5.1-1 0-.6-2-1-4.4-1-2.5 0-4.8.4-5.1 1zM400.8 820.7c-3.2.8-1.9 2.3 2 2.3 4.8 0 8.3-1 7.6-2.1-.5-.9-6.5-1-9.6-.2zM389.5 822c.3.5 1.7 1 3 1s2.7-.5 3-1c.4-.6-.8-1-3-1s-3.4.4-3 1zM405.2 824.8c-6.8.7-1.7 2.2 7.6 2.2 5.9 0 9.1-.4 8.2-.9-1.8-1-11.2-1.8-15.8-1.3z"/></svg>